<svg xmlns="http://www.w3.org/2000/svg" width="532" height="279" viewBox="0 0 532 279" fill="none">
  <path opacity="0.1" fill-rule="evenodd" clip-rule="evenodd" d="M195.078 3.21172L195.098 3.20972C195.081 3.21014 195.078 3.21172 195.078 3.21172ZM306.715 136.98C307.686 136.7 307.336 135.482 305.717 133.492C300.301 126.839 294.653 115.31 285.593 92.4092C272.108 58.3247 265.55 47.7749 247.352 30.8801C234.265 18.7306 222.218 8.20312 200.98 4.19635C195.998 3.25649 195.217 3.20685 195.098 3.20972L200.461 2.68841C200.461 2.68841 232.175 2.25004 248.429 7.79863C290.084 22.0173 309.413 47.3904 323.933 106.909C331.445 137.703 340.334 157.789 348.504 162.43C352.538 164.722 352.627 164.404 349.322 159.476C342.818 149.779 335.634 127.886 330.737 98.6762C321.257 59.266 318.203 51.6555 303.481 33.2301C299.312 29.3872 290.841 21.925 290.841 21.925C290.841 21.925 294.16 23.2075 294.35 23.2945C312.467 31.6077 325.624 54.3184 334.075 98.6762C340.446 132.107 348.215 153.874 357.564 164.475C362.848 170.467 365.658 170.854 361.069 164.958C350.841 151.82 342.107 125.21 337.303 92.5641C332.35 58.895 327.397 48.483 307.758 30.4658C301.334 24.5718 275.04 5.48125 275.04 5.48125C275.04 5.48125 300.716 14.7309 314.542 23.2945C331.721 37.1953 342.366 62.0141 349.253 102.195C356.091 142.086 364.722 163.337 378.544 174.31C381.724 176.836 412.001 186.179 416.433 186.002C417.967 185.941 418.138 185.713 416.958 185.304C413.292 184.034 399.687 167.598 393.289 156.708C383.223 139.575 380.106 130.785 372.986 99.4496C365.363 65.8964 359.485 53.9363 344.645 41.7833C342.001 39.3608 337.735 34.6109 337.735 34.6109C337.735 34.6109 356.144 47.7286 366.444 58.296C382.856 75.1333 383.619 77.8155 391.674 106.125L391.678 106.137C392.398 108.671 393.178 111.409 394.032 114.381C406.513 157.816 417.462 175.287 440.156 187.979C449.475 193.191 450.05 192.822 442.175 186.682C430.429 177.527 422.412 166.106 411.931 129.262C411.741 128.593 411.554 127.935 411.37 127.288C405.112 105.266 402.181 94.949 392.041 84.6194C389.272 81.7992 380.905 67.8305 380.905 67.8305C380.905 67.8305 392.054 79.4528 395.125 81.8762C403.156 88.2121 416.967 122.353 418.037 135.257C418.037 135.257 421.305 140.158 421.987 138.683C423.49 135.428 416.552 110.09 412.666 102.46C412.103 101.355 411.201 99.66 410.206 97.7913L410.204 97.7882L410.204 97.7874C407.675 93.0373 404.548 87.1641 404.873 86.9857C405.006 86.913 407.138 90.1035 409.042 92.9522L409.042 92.9529C410.364 94.9312 411.576 96.7444 411.931 97.1854C414.869 100.832 417.695 109.123 421.369 124.872C429.595 160.139 448.245 191.507 462.033 193.261L466.318 193.807L463.128 191.97C452.527 185.868 442.248 167.693 438.972 141.142C434.431 104.344 427.677 84.5906 406.859 73.7884L401.564 70.3457C421.621 75.1082 437.44 98.1414 442.585 130.703C447.375 161.026 448.458 165.523 452.966 173.832C459.23 185.372 462.574 188.781 458.803 179.781C452.807 165.467 455.999 134.397 464.522 124.123C465.028 123.512 466.623 121.615 466.623 121.615C466.623 121.615 465.413 123.673 464.982 124.697C460.438 135.483 458.854 143.142 458.338 156.829C457.809 170.826 457.882 171.393 459.518 166.01C462.14 157.386 466.065 151.608 473.277 145.759L479.783 140.484C479.783 140.484 478.054 136.795 476.744 134.514C473.839 129.458 467.808 122.3 467.808 122.3C467.808 122.3 475.411 128.961 477.836 132.77L482.245 139.696L486.437 137.934L490.63 136.172L488.097 131.673C486.398 128.654 484.004 126.069 484.004 126.069C484.004 126.069 487.689 127.889 489.418 130.827C492.023 135.253 492.364 135.429 497.121 134.792L497.419 134.752L497.644 134.722L498.058 134.668C500.855 134.299 502.077 134.139 502.372 133.529C502.6 133.056 502.271 132.313 501.685 130.994L501.685 130.993C501.605 130.814 501.521 130.624 501.432 130.423C500.773 128.918 499.41 127.439 499.41 127.439C499.41 127.439 501.227 128.086 502.057 128.683C503.173 129.485 504.085 131.853 504.085 131.853C504.085 131.853 505.246 133.414 510.051 132.788C514.761 132.177 517.382 132.889 518.706 134.037C514.428 132.11 506.576 135.408 507.598 138.796C508.293 141.1 510.111 140.952 513.924 140.641C514.669 140.58 515.491 140.513 516.395 140.457C523.506 140.457 524.691 142.5 524.691 142.5C524.691 142.5 518.37 141.828 517.185 142.17C516.855 142.224 516.54 142.273 516.239 142.32C510.781 143.176 510.041 143.292 510.041 154.878C510.041 161 509.553 168.011 508.957 170.458C507.9 174.797 507.954 174.887 511.189 174.184C515.152 173.321 527.245 175.374 531.881 177.696C534.064 178.789 534.29 179.104 532.543 178.621C515.861 174.005 507.844 175.087 503.488 182.54C501.713 185.576 498.617 189.754 496.606 191.825L492.953 195.59L517.381 194.982C555.419 194.035 580.62 188.851 610.558 175.815C620.729 171.386 627 169.515 627 169.515C627 169.515 624.668 172.577 619.964 176.434C598.652 193.906 531.652 209.149 495.199 204.817C491.755 204.407 489.415 204.545 489.745 205.138C494.956 214.511 496.289 217.947 496.998 223.83C497.986 232.029 503.755 233.639 508.89 233.932C513.772 233.924 521.136 231.926 521.136 231.926C521.136 231.926 517.506 233.765 516.79 233.932C516.373 234.029 515.929 234.142 515.46 234.26C513.066 234.864 510.049 235.626 506.915 235.351C506.915 235.351 504.215 235.115 502.57 234.666C501.143 234.277 499.06 233.334 499.06 233.334L498.11 244.851C497.353 254.022 497.528 256.572 498.968 257.362C499.634 257.728 505.037 257.362 505.037 257.362C505.037 257.362 504.545 258.647 498.46 258.373C496.976 258.384 496.107 259.319 496.043 260.973C495.987 262.393 495.088 265.362 494.045 267.571C493.266 269.221 490.324 271.322 490.324 271.322C490.324 271.322 492.957 267.566 494.162 261.792C494.972 257.905 494.728 257.578 488.339 253.99C484.673 251.929 480.52 248.973 479.112 247.422L476.553 244.601L472.29 251.209C466.23 260.601 456.208 270.977 448.95 275.371C445.683 277.349 440.552 278.174 440.552 278.174C440.552 278.174 445.282 276 448.428 273.665L454.132 269.43L453.313 261.028C451.889 246.418 456.953 225.769 464.585 215.062C464.739 214.847 464.887 214.643 465.03 214.451L463.858 214.112C463.858 214.112 465.667 210.941 467.129 208.715C459.51 216.179 448.875 229.047 442.253 239.831C422.082 272.678 402.254 284.164 366.289 276.057C358.34 274.264 352.537 272.477 349.772 270.637C347.007 268.798 344.637 266.458 344.637 266.458C344.637 266.458 348.05 268.164 353.327 268.856C358.604 269.548 388.538 267.575 407.772 256.489C416.97 251.187 421.993 246.164 439.227 225.033C443.959 219.23 450.511 212.408 453.787 209.871C457.063 207.334 458.254 206.114 456.434 207.161C454.614 208.207 450.147 210.597 446.507 212.472C442.867 214.347 435.422 219.282 429.962 223.44C400.445 245.911 385.622 251.704 358.604 251.328L345.911 251.153L360.471 250.282C386.282 248.738 400.75 243.415 421.046 227.989C427.406 223.155 432.609 219.044 432.609 218.855C432.609 218.666 428.701 219.74 423.926 221.243C411.927 225.019 394.709 227.436 381.145 227.247L369.736 227.09L381.959 226.146C404.074 224.438 424.328 217.212 437.729 206.25L444.834 200.437L435.762 198.625L426.688 196.812L424.519 201.012C420.762 208.286 403.687 218.199 388.896 221.692C388.147 221.869 387.343 222.068 386.484 222.28C376.67 224.709 359.603 228.933 333.108 222.842C333.108 222.842 340.077 222.5 341.798 222.614L353.853 222.842L347.425 221.037C343.567 219.953 339.823 217.818 339.823 217.818L348.514 220.216C366.54 224.919 397.004 213.212 409.84 196.884C411.505 194.767 411.533 194.771 410.76 196.995C408.071 204.728 397.329 212.104 379.599 218.389C366.804 222.924 366.963 223.284 380.834 221.185C405.409 217.465 433.162 199.029 419.899 195.234C413.607 193.435 410.441 194.108 390.579 201.477C366.419 210.441 344.68 216.74 331.923 214.735C330.486 214.51 324.418 213.005 324.418 213.005C324.418 213.005 326.662 213.098 330.738 213.022C350.028 212.662 370.168 207.554 394.789 197.887C408.497 192.505 408.675 192.386 404.467 191.417C392.736 188.717 377.661 191.502 339.293 203.457C318.279 210.004 299.189 210.624 283.7 205.264C267.201 199.554 261.174 197.586 261.174 197.586C267.148 197.678 272.256 198.091 276.892 198.466C288.467 199.401 297.095 200.099 308.885 194.975C324.456 188.208 339.368 183.685 353.191 181.535C354.397 181.348 355.511 181.177 356.539 181.02C363.339 179.977 366.301 179.523 366.385 178.755C366.45 178.162 364.802 177.382 361.884 176C361.313 175.73 360.692 175.436 360.026 175.116C347.641 169.164 338.06 169.738 304.186 178.46C265.022 188.544 232.139 189.121 212.947 161.005C212.947 160.722 214.522 162.112 216.679 164.015L216.679 164.015L216.68 164.015L216.68 164.016C220.049 166.988 224.835 171.211 227.243 172.255C243.789 180.288 263.839 186.6 309.752 175.276C321.168 172.461 334.21 169.794 338.733 169.351C346.866 168.554 346.918 168.525 343.328 166.896C335.482 163.331 313.44 165.944 282.941 172.255C276.172 173.656 262.985 174.091 252.203 172.66C237.44 170.7 225.521 166.35 225.521 166.35C225.521 166.35 239.067 167.712 247.784 168.144C252.772 168.392 256.439 168.912 259.772 169.386C267.638 170.503 273.644 171.355 290.771 167.729C307.872 164.108 329.147 161.538 333.845 162.524C335.385 162.848 333.965 161.991 330.689 160.622C320.07 156.181 291.772 156.316 267.155 160.926C240.914 165.839 206.328 160.85 206.328 152.972C206.328 152.972 208.074 154.951 209.541 155.873C211.559 157.142 215.466 157.929 215.466 157.929C215.466 157.929 241.247 163.459 270.464 158.309C281.668 156.334 289.651 155.736 305.102 155.712L325.18 155.681L321.004 153.386C317.793 151.621 313.991 150.999 304.554 150.693C293.085 150.321 285.663 150.914 262.522 154.051C229.02 157.23 223.114 156.146 219.071 155.404C218.649 155.327 218.247 155.253 217.836 155.188C213.491 154.503 202.121 150.336 198.876 147.651C184.013 138.114 163.944 119.377 163.267 118.743C163.263 118.741 163.26 118.738 163.257 118.736C163.251 118.732 163.248 118.729 163.249 118.727L163.267 118.743C163.717 119.031 172.596 122.721 182.724 126.93L182.726 126.931L182.738 126.936C194.478 131.815 207.891 137.39 211.806 139.173C215.215 140.726 236.104 140.38 247.962 138.572C253.786 137.685 264.21 136.541 271.126 136.03L283.7 135.102L274.435 134.288C269.339 133.841 253.814 133.461 239.935 133.444C237.813 133.441 235.528 133.492 233.159 133.545C225.29 133.721 216.484 133.918 209.541 132.235C186.323 126.61 181.179 119.508 181.179 118.544C181.179 118.544 194.787 124.049 204.011 126.255C217.774 129.546 223.817 129.561 238.535 129.597H238.537H238.539H238.54H238.542H238.544C240.815 129.603 243.293 129.609 246.037 129.628C268.707 129.783 280.637 132.393 286.679 133.715L286.683 133.716C287.083 133.804 287.457 133.886 287.807 133.961C291.396 134.731 295.917 135.703 297.304 136.001C294.223 134.118 286.074 128.866 279.854 124.123C279.854 124.123 253.13 114.574 237.116 115.449C231.018 115.782 225.186 116.968 220.326 117.955C217.702 118.489 215.362 118.964 213.415 119.217C204.79 120.338 192.479 112.023 192.479 112.023C192.479 112.023 205.1 117.652 213.415 116.134C215.921 115.677 218.312 114.917 220.701 114.159C223.411 113.298 226.117 112.439 228.981 112.023C233.016 111.437 253.8 113.036 266.758 115.055C250.067 105.08 234.038 102.992 195.51 106.309C168.2 108.659 161.109 107.93 151.019 101.734C149.665 100.903 148.244 100.227 146.783 99.5319C144.505 98.448 142.128 97.3176 139.755 95.479C138.654 94.626 137.912 93.874 137.161 93.1119C136.474 92.415 135.778 91.7096 134.791 90.9104C133.299 89.7016 132.413 89.0669 130.809 87.9715C119.174 80.0289 106.368 76.3877 106.368 76.3877C106.368 76.3877 119.529 78.839 123.391 79.1167C127.253 79.3944 139.886 78.4729 151.464 77.0682C171.666 74.617 183.283 74.4781 208.253 76.3877C214.117 76.8364 241.537 92.7615 259.556 106.184C263.748 109.306 267.486 111.596 267.86 111.27C268.523 110.695 260.023 104.149 249.286 96.9674C246.374 95.02 237.184 89.4886 228.865 84.6744C220.544 79.8615 214.163 75.9241 214.684 75.9241C215.206 75.9241 213.332 72.9542 210.52 69.3255C207.71 65.6968 202.477 58.3373 198.89 52.9723C181.55 27.0322 164.111 17.4269 133.229 13.3606C125.445 12.3356 113.083 12.6754 113.083 12.6754C113.083 12.6754 124.448 13.224 131.254 15.2316C147.176 19.9281 153.272 26.9967 163.422 40.0643C177.12 57.7027 177.707 58.1893 194.154 65.4833C209.003 72.0705 216.064 75.8105 213.791 75.8874C213.198 75.908 211.488 75.356 209.992 74.6617C208.013 73.7448 207.517 73.7448 208.171 74.6617C209.606 76.6734 208.294 76.2512 194.54 70.2665C181.167 64.4482 161.815 57.565 152.918 55.4615C147.227 54.1153 144.468 54.8636 113.638 66.1168C88.7488 75.2034 71.343 78.077 61.2886 74.7627C53.8525 72.3115 19.168 79.8454 14.9244 84.8328C13.0991 86.9777 5.07526 94.445 5.07526 94.445L10.9059 85.2827C10.9059 85.2827 12.1958 83.718 13.1865 82.8424C14.8949 81.3325 16.3433 80.6605 18.1932 79.8022L18.1939 79.8019C18.7071 79.5637 19.2513 79.3113 19.8404 79.0226C25.6873 76.1576 30.5457 75.4258 35.8984 74.6195C39.0328 74.1474 42.3367 73.6497 46.1079 72.6833C51.8417 71.2138 56.8671 70.2379 61.5894 69.3208C71.9941 67.3002 80.9271 65.5653 92.7236 59.4677C100.526 55.4339 108.757 51.4701 111.014 50.6599C116.327 48.7526 87.8633 47.2241 73.3033 49.8911C67.8757 50.8853 49.5766 57.2114 37.635 62.8818C17.5424 72.4225 3.26855 84.8328 3.26855 84.8328C3.26855 84.8328 2.48889 78.2047 34.0798 61.3876C48.8146 53.5437 68.1078 47.7223 71.9797 47.0519C80.5833 45.5624 94.4321 44.4432 108.869 44.7831C110.746 44.8273 112.026 44.7803 113.172 44.7383C115.609 44.6489 117.435 44.582 123.082 45.4615C123.36 45.4786 123.633 45.4968 123.9 45.5161C125.007 45.5961 125.955 45.6564 126.81 45.7107C129.613 45.8889 131.415 46.0034 134.565 46.5438C137.017 46.9645 138.665 47.4004 140.627 47.9194L140.627 47.9195C141.426 48.1308 142.277 48.3559 143.255 48.5993C145.311 49.1108 150.489 50.3226 153.739 51.0796C153.741 50.4229 150.779 48.3865 144.696 44.5353C105.998 20.0331 47.2159 30.8667 13.934 65.4326C8.49689 71.0795 1.82709 81.0733 1.82709 81.0733C1.82709 81.0733 3.10785 74.0143 11.9589 62.8818C11.9589 62.8818 26.3419 49.7404 32.4998 46.2481C61.2886 29.921 78.5369 29.4617 78.5369 29.4617C107.553 27.0637 123.792 28.9338 145.38 42.0209C155.244 48.001 155.635 47.8518 148.028 41.0076C133.462 27.9032 115.889 20.2052 97.4808 18.8671C92.5211 18.5068 83.8519 17.8141 83.8519 17.8141C83.8519 17.8141 100.767 17.2386 111.108 19.5269C129.396 23.5739 135.559 28.3738 151.864 42.053C165.576 53.5588 171.244 57.5627 173.819 57.5627C174.266 57.5627 170.389 52.1564 165.2 45.5486C151.681 28.3279 139.955 19.6819 124.087 15.2316C121.476 14.4994 108.738 14.0457 108.738 14.0457L89.3822 13.5021C89.3822 13.5021 119.429 10.2189 125.285 9.95839C150.926 8.81999 180.16 24.0428 197.064 47.3365C217.984 76.1617 218.937 77.1405 234.269 85.5581L238.231 87.7328L236.045 83.2629C234.842 80.8048 230.686 71.7675 226.808 63.1813C209.313 24.4479 195.978 11.9563 165.722 5.95675C154.621 3.75567 145.441 4.25832 145.441 4.25832L122.94 4.9331C122.94 4.9331 152.587 1.41874 170.756 4.7961C171.284 4.89442 179.841 6.50899 179.841 6.50899C179.841 6.50899 171.259 3.67347 169.868 3.09237C167.684 2.18003 157.72 0 157.72 0C157.72 0 168.715 1.56926 175.496 3.42578C183.01 5.4829 187.17 6.96468 194.062 10.2773C196.497 11.4482 198.608 12.4025 200.521 13.2672C207.278 16.3221 211.559 18.2576 218.948 24.6656C232.686 36.5805 235.747 41.9419 248.448 64.192C250.991 68.6467 253.921 73.7785 257.399 79.7754C276.979 113.527 278.992 116.146 293.115 126.255C300.05 131.219 306.715 136.98 306.715 136.98ZM306.715 136.98L306.247 137.351C306.282 137.168 306.436 137.043 306.715 136.98ZM306.247 137.351C305.598 140.677 343.824 163.055 365.338 172.415C439.989 204.896 545.805 207.541 609.976 178.532C616.301 175.673 619.89 174.03 619.89 174.03C619.89 174.03 618.248 175.686 616.594 176.93C593.613 194.216 530.596 204.46 476.618 200.457C477.037 199.996 477.289 199.724 477.289 199.724H474.128C474.128 199.724 473.972 199.906 473.701 200.226C470.555 199.961 467.444 199.646 464.376 199.281C398.074 191.379 361.955 178.583 313.612 145.865C306.038 140.74 297.728 136.092 297.728 136.092C297.728 136.092 291.337 129.755 277.042 118.727C271.967 114.812 268.412 111.595 269.14 111.576C269.868 111.558 277.909 117.204 287.009 124.123C296.109 131.042 306.247 137.351 306.247 137.351ZM418.037 135.257C418.037 135.257 423.796 154.482 427.48 163.141C432.271 174.405 441.766 185.946 448.859 189.126C452.96 190.964 452.952 190.942 447.554 185.625C438.745 176.95 424.647 149.478 424.066 147.808C423.485 146.138 418.037 135.257 418.037 135.257ZM476.283 203.571C476.302 202.497 475.686 202.274 474.594 202.735C472.572 205.055 469.988 208.167 468.993 210.001C468.553 210.813 468.181 211.491 467.868 212.058C468.208 212.936 466.832 216.828 463.857 222.542C457.857 234.062 455.149 244.141 455.15 254.948C455.152 268.556 456.893 268.729 466.638 256.095C475.162 245.044 475.439 244.13 472.387 237.058C468.447 227.929 468.683 216.858 472.974 209.525C474.792 206.421 476.281 203.741 476.283 203.571ZM134.117 51.0651L135.453 51.2773C141.672 52.2654 146.107 54.0281 142.52 54.0855C141.31 54.1039 133.269 56.7582 124.651 59.9818C92.6151 71.9649 68.8413 76.0526 61.871 73.4476C61.2955 73.1032 58.5709 72.6268 58.5709 72.6268C58.5709 72.6268 66.8662 71.2565 68.4463 71.2565C68.4463 71.2565 70.4214 70.9139 73.9766 69.8861C73.9766 69.8861 74.1689 70.0175 78.5369 68.3007C82.9049 66.5827 89.6727 63.4108 93.5774 61.2522C99.6342 57.9024 105.58 55.1148 110.748 53.1309C110.829 53.2947 111.344 53.2238 112.689 52.7574C116.639 51.3871 124.369 50.9974 131.8 50.9974C132.594 50.9974 133.368 51.0216 134.117 51.0651ZM207.652 3.78551C207.652 3.78551 212.363 5.63313 215.769 7.36484C219.174 9.09541 222.347 10.5115 222.818 10.5115C224.919 10.5115 239.578 21.3436 248.75 29.674C267.603 46.796 274.576 57.8748 288.24 92.4092C301.498 125.918 308.57 137.362 323.299 147.484C317.96 140.958 308.385 128.443 303.127 116.689C299.264 108.052 297.35 98.2928 295.43 88.4993C293.16 76.9237 290.881 65.2997 285.361 55.4229C275.172 37.1899 260.425 23.9803 260.425 23.9803C273.46 32.5448 280.618 38.4266 288.117 50.577C294.683 61.217 296.868 72.8615 299.068 84.5876C300.601 92.7603 302.142 100.973 305.179 108.912C311.168 124.57 320.953 141.669 325.146 148.721C325.534 148.974 325.928 149.228 326.326 149.481C337.629 156.66 338.424 156.882 335.576 152.058C330.95 144.226 325.126 126.45 320.031 104.614C304.639 38.6412 274.687 8.98065 220.227 4.35931C216.142 4.01239 212.048 3.91219 209.654 3.85358C208.635 3.82862 207.924 3.81121 207.652 3.78551ZM204.507 22.2743C214.381 31.3357 218.786 38.6653 234.679 72.4813C242.303 88.7002 244.518 91.6196 254.213 98.224C258.783 101.337 264.534 105.469 266.993 107.405C269.452 109.342 271.239 110.409 270.964 109.778C269.016 105.306 266.707 101.937 264.672 98.9673C263.697 97.5438 262.785 96.2119 262.005 94.8942C259.392 90.4801 257.048 86.9502 254.559 83.2008C249.848 76.1044 244.615 68.2221 236.045 52.0719C222.162 25.907 196.037 14.3883 196.037 14.3883C196.037 14.3883 202.21 20.1663 204.507 22.2743ZM307.556 27.3019C328.256 46.0478 334.991 59.0384 339.305 88.5475C343.228 115.384 358.284 162.551 361.922 159.397C362.233 159.126 361.225 156.431 359.682 153.406C354.7 143.639 350.739 128.628 347.277 106.376C339.657 57.4077 327.913 33.6745 305.601 22.1401C302.759 20.671 295.186 17.4715 295.186 17.4715C295.186 17.4715 302.758 22.9575 307.556 27.3019ZM365.022 65.4712L365.023 65.4737C366.236 67.9023 367.298 70.0304 368.623 73.0551C374.065 85.4788 376.278 97.7649 378.212 108.503C379.275 114.407 380.254 119.844 381.64 124.577C387.975 146.231 400.278 167.205 413.359 178.656C417.759 182.507 419.763 184.077 417.812 182.145C403.763 168.228 394.116 148.966 386.849 120.312C380.881 96.7781 377.686 87.3518 372.875 79.0799C370.255 74.5779 367.474 65.775 367.474 65.775C367.474 65.775 371.454 74.43 373.42 77.3586C378.688 85.2081 382.969 96.8859 388.811 119.352C399.139 159.066 416.668 186.298 433.932 189.451L439.889 190.539L435.918 188.127C415.312 175.608 403.918 156.643 391.739 114.592C382.984 84.3669 376.554 70.6727 366.444 60.7186C362.919 57.2485 357.994 53.4422 357.994 53.4422C357.994 53.4422 361.413 58.1395 363.519 62.4399C364.053 63.5308 364.541 64.5089 365.007 65.442L365.012 65.4508L365.022 65.4712ZM154.967 78.6875C147.875 79.5769 138.613 80.6499 134.385 81.0733C129.709 81.5415 124.934 82.1573 124.934 82.1573C124.934 82.1573 130.47 85.7028 134.019 87.9715C136.166 89.343 137.973 90.8664 139.682 92.3074C142.849 94.9777 145.68 97.3647 149.711 97.9774C155.918 98.9206 167.146 99.1983 195.085 94.8639C205.239 93.2894 217.419 91.9651 222.151 91.9226C229.317 91.8583 230.201 91.6495 227.446 90.6786C220.205 88.1287 205.246 88.1826 184.087 90.8381C162.655 93.5269 146.338 92.1537 141.993 90.0983C137.648 88.0428 138.028 86.1514 138.028 86.1514C138.028 86.1514 138.859 86.9285 146.134 86.8239C151.182 86.7512 154.312 85.7761 157.944 84.6441C159.546 84.1451 161.245 83.6156 163.249 83.1195C169.801 81.4991 180.523 79.5367 187.075 78.7598L198.988 77.3471L183.426 77.2094C174.867 77.1336 162.061 77.7992 154.967 78.6875ZM163.911 85.0027C156.267 86.9444 148.822 88.5441 147.366 88.5579C146.108 88.5697 144.363 88.7279 144.363 88.7279C144.363 88.7279 145.08 89.3514 146.733 89.7557C148.24 90.3791 167.836 90.9873 187.275 88.442C204.757 86.1525 219.91 85.9781 226.784 87.9875C228.96 88.6233 228.842 88.333 226.122 86.3568C216.412 79.3026 188.724 78.7001 163.911 85.0027ZM195.678 97.2623C189.49 98.2653 177.28 99.4542 168.544 99.9041L152.66 100.721L157.955 102.824C165.988 106.013 172.463 106.227 195.056 104.055C208.45 102.766 222.225 102.218 234.074 102.5C253.933 102.973 255.243 101.663 239.358 97.2233C227.542 93.9206 216.236 93.9309 195.678 97.2623ZM1.82709 96.7402C1.95947 98.3181 2.48889 103.626 2.48889 103.626C1.56769 102.884 -1.10303 98.902 0.503479 94.445C1.64087 91.2893 2.15277 90.0997 2.33478 90.0604C2.33478 90.0604 1.82709 94.1042 1.82709 96.7402ZM494.219 137.48C494.219 137.48 493.013 137.791 494.786 141.836C495.497 143.455 496.723 144.779 497.512 144.779L501.78 143.54C501.78 143.54 507.076 142.27 505.479 138.627C503.996 135.249 494.219 137.48 494.219 137.48ZM251.483 140.197C241.771 141.455 231.646 142.531 228.981 142.587L224.137 142.691L228.769 143.873C231.799 144.646 240.499 144.728 253.918 144.109C265.202 143.588 281.691 143.139 290.559 143.111C307.221 143.056 308.377 142.318 296.275 139.457C287.413 137.361 271.311 137.628 251.483 140.197ZM486.425 140.315C483.491 141.474 484.004 146.624 486.24 150.322C487.312 151.316 493.496 146.559 493.496 144.742C493.496 139.358 491.697 138.232 486.425 140.315ZM192.43 134.442C192.43 134.442 192.16 136.689 200.851 143.873C210.331 149.364 235.143 155.531 273.111 150.5C281.847 149.248 294.653 148.172 301.569 148.108L314.144 147.995L308.187 146.295C303.331 144.91 298.321 144.764 281.053 145.508C243.665 147.118 229.246 146.742 219.504 143.899C202.076 138.815 192.43 134.442 192.43 134.442ZM474.866 146.715C461.287 157.351 457.464 175.995 466.575 187.154C471.737 193.478 476.392 196.542 474.352 192.273C469.565 182.254 471.612 168.721 479.542 157.974C484.474 147.254 484.025 139.541 474.866 146.715ZM497.313 146.582C496.854 146.829 497.287 150.01 498.276 153.651C499.264 157.293 500.082 163.795 500.093 168.102C500.111 174.937 500.409 175.884 502.43 175.546C506.595 174.851 508.515 166.339 508.174 150.103L508.056 144.523L503.103 145.329C500.377 145.773 497.773 146.337 497.313 146.582ZM490.813 150.136C489.013 151.19 487.378 152.148 487.18 152.266C486.981 152.384 487.717 155.782 488.814 159.818C489.911 163.854 490.818 169.869 490.829 173.182C490.85 179.644 491.006 179.829 494.907 178.019C497.669 176.737 498.475 165.253 496.625 153.547C495.684 147.592 495.423 147.439 490.813 150.136ZM476.83 167.157C473.543 174.622 473.583 186.308 476.915 191.824L479.337 195.832L481.154 191.283C482.152 188.781 484.388 185.428 486.122 183.832C489.352 180.856 489.356 170.786 486.13 157.647L485.203 153.875L482.279 157.647C480.671 159.722 478.219 164.001 476.83 167.157ZM365.28 165.463C366.926 168.003 369.363 170.935 370.693 171.979C372.023 173.024 370.885 170.945 368.164 167.362C362.398 159.771 360.99 158.844 365.28 165.463ZM497.664 183.678C496.789 186.212 494.457 189.986 492.482 192.066C490.507 194.145 489.978 195.102 491.305 194.192C497.25 190.115 506.404 175.755 501.652 177.96C500.334 178.571 498.54 181.144 497.664 183.678ZM492.771 181.232C492.008 181.696 491.246 183.883 491.078 186.092C490.794 189.834 490.899 189.952 492.618 187.814C496.6 182.86 496.694 178.849 492.771 181.232ZM485.54 187.527C482.42 191.965 482.143 195.273 484.892 195.273C485.984 195.273 486.904 194.885 486.936 194.413C486.968 193.94 487.483 191.358 488.081 188.675C489.389 182.818 488.981 182.634 485.54 187.527ZM335.244 187.88C329.377 189.346 318.954 192.949 312.08 195.888L299.584 201.23L306.864 200.752C311.749 200.429 318.28 198.636 326.718 195.296C333.634 192.559 343.462 188.835 348.558 187.02C360.009 182.941 353.268 183.377 335.244 187.88ZM359.094 186.713C354.755 187.686 342.866 191.62 332.675 195.457C315.45 201.94 313.319 202.462 302.44 202.87C286.596 203.466 284.358 204.823 296.198 206.657C311.21 208.983 320.907 207.329 352.455 197.053C362.688 193.721 375.166 190.052 380.182 188.902C386.977 187.345 388.667 186.593 386.801 185.958C382.423 184.469 367.265 184.882 359.094 186.713ZM435.155 211.462C432.663 213.107 427.645 215.833 424.005 217.52C415.222 221.591 421.559 220.171 433.325 215.434C444.357 210.991 457.044 203.364 455.524 202.089C452.285 199.374 446.47 200.481 443.097 204.454C441.222 206.663 437.648 209.817 435.155 211.462ZM453.42 213.454C449.784 216.393 442.003 224.738 436.127 231.996C415.93 256.943 402.026 265.243 369.736 271.625L365.765 272.408L369.069 273.501C375.534 275.637 395.57 274.842 404.159 272.11C421.721 266.524 425.369 262.74 448.438 226.18C453.97 217.414 462.968 208.03 469.009 204.728C470.465 203.933 469.04 204.368 465.843 205.696C462.645 207.023 457.055 210.514 453.42 213.454ZM484.59 214.246L484.5 224.04L489.305 226.87C495.904 230.758 496.029 230.648 494.237 222.528C492.576 215.004 487.158 204.454 484.956 204.454C484.805 204.454 484.641 208.861 484.59 214.246ZM480.624 213.901C480.919 215.963 481.166 214.553 481.173 210.766C481.181 206.979 480.94 205.291 480.637 207.015C480.335 208.74 480.33 211.839 480.624 213.901ZM471.753 223.389C471.648 229.635 474.679 240.318 476.309 239.445C479.291 237.846 481.812 223.085 479.705 219.553C478.555 217.622 477.562 214.081 477.501 211.684L477.389 207.323L474.62 212.487C473.052 215.409 471.808 220.143 471.753 223.389ZM479.038 239.244C477.329 243.116 481.464 248.688 489.074 252.766C495.055 255.97 495.411 255.464 495.877 243.091L496.273 232.57L489.933 229.026L483.591 225.481L482.028 230.747C481.169 233.643 479.823 237.467 479.038 239.244ZM120.773 69.8182C120.773 69.8182 134.467 70.2541 143.092 69.133C145.984 68.757 148.167 68.2479 150.377 67.7322C152.408 67.2583 154.463 66.7789 157.115 66.3924C163.584 65.4493 173.732 64.9214 174.251 64.8948C174.172 64.8948 173.891 64.8749 173.446 64.8436C170.719 64.651 161.853 64.0249 155.868 64.8938C152.554 65.375 150.254 65.8508 147.731 66.3729L147.73 66.373L147.729 66.3731C146.15 66.6998 144.484 67.0446 142.426 67.4202C134.111 68.9378 120.773 69.8182 120.773 69.8182Z" fill="#3A7E7F"/>
</svg>