<svg xmlns="http://www.w3.org/2000/svg" width="445" height="235" viewBox="0 0 445 235" fill="none">
  <path fill-rule="evenodd" clip-rule="evenodd" d="M281.018 2.6978L276.511 2.25964C276.511 2.25964 249.855 1.89118 236.193 6.55483C201.181 18.5057 184.935 39.8321 172.731 89.8581C166.417 115.741 158.945 132.624 152.079 136.524C148.688 138.451 148.613 138.183 151.391 134.042C156.858 125.891 162.897 107.489 167.012 82.9383C174.98 49.8137 177.547 43.417 189.921 27.9302C193.425 24.7003 200.545 18.4282 200.545 18.4282C200.545 18.4282 197.755 19.5061 197.596 19.5793C182.369 26.5666 171.31 45.6552 164.207 82.9383C158.852 111.037 152.321 129.333 144.464 138.243C140.022 143.279 137.661 143.604 141.518 138.649C150.114 127.606 157.456 105.24 161.493 77.8011C165.656 49.5019 169.819 40.7504 186.326 25.6068C191.726 20.6528 213.826 4.60705 213.826 4.60705C213.826 4.60705 192.245 12.3814 180.624 19.5793C166.185 31.263 157.238 52.1235 151.449 85.8957C145.702 119.425 138.447 137.286 126.83 146.509C124.157 148.632 98.7088 156.485 94.984 156.336C93.6946 156.285 93.5511 156.093 94.5424 155.75C97.6241 154.682 109.059 140.868 114.437 131.715C122.897 117.314 125.517 109.926 131.502 83.5884C137.909 55.3866 142.849 45.334 155.322 35.1193C157.545 33.0831 161.13 29.0908 161.13 29.0908C161.13 29.0908 145.657 40.1164 137 48.9984C123.205 63.1503 122.564 65.4047 115.794 89.1992L115.79 89.2112C115.185 91.34 114.53 93.641 113.812 96.1383C103.321 132.646 94.1185 147.33 75.0442 157.998C67.212 162.379 66.7281 162.069 73.3476 156.908C83.2202 149.213 89.9587 139.614 98.7677 108.646L99.2393 106.987L99.2394 106.986C104.499 88.4769 106.963 79.8056 115.486 71.1234C117.813 68.7531 124.846 57.0122 124.846 57.0122C124.846 57.0122 115.475 66.7809 112.893 68.8178C106.144 74.1431 94.5349 102.839 93.636 113.685C93.636 113.685 90.8887 117.805 90.3158 116.564C89.052 113.829 94.8839 92.5319 98.1503 86.1185C98.6223 85.1914 99.3786 83.7709 100.213 82.2038L100.213 82.2031L100.217 82.1967L100.217 82.1953L100.219 82.1924L100.219 82.1918C102.345 78.1992 104.974 73.2623 104.7 73.1124C104.588 73.0513 102.796 75.7334 101.196 78.128C100.085 79.7907 99.0664 81.3147 98.7677 81.6854C96.2979 84.7507 93.9227 91.7187 90.8354 104.956C83.9211 134.598 68.2456 160.963 56.6564 162.438L53.0551 162.896L55.7363 161.353C64.6465 156.224 73.286 140.948 76.0395 118.632C79.8566 87.7019 85.5331 71.0993 103.031 62.0199L107.481 59.1263C90.6229 63.1292 77.3271 82.4888 73.0027 109.857C68.9765 135.344 68.0664 139.124 64.2772 146.107C59.0127 155.807 56.2014 158.673 59.3709 151.108C64.4107 139.077 61.7284 112.962 54.5648 104.326C54.139 103.813 52.7984 102.219 52.7984 102.219C52.7984 102.219 53.8152 103.949 54.1777 104.809C57.997 113.875 59.3287 120.312 59.7625 131.816C60.2064 143.581 60.1452 144.058 58.7702 139.533C56.5663 132.284 53.2676 127.428 47.2054 122.512L41.7374 118.078C41.7374 118.078 43.1903 114.978 44.2917 113.061C46.7332 108.811 51.8023 102.795 51.8023 102.795C51.8023 102.795 45.412 108.393 43.3739 111.594L39.6681 117.416L36.1447 115.935L32.6202 114.454L34.7496 110.672C36.1778 108.135 38.1897 105.962 38.1897 105.962C38.1897 105.962 35.0922 107.492 33.6393 109.961C31.4498 113.682 31.1628 113.829 27.1644 113.294C26.8869 113.257 26.6247 113.222 26.3771 113.19C24.0261 112.88 22.9989 112.745 22.7513 112.233C22.5591 111.835 22.8364 111.211 23.3288 110.102L23.33 110.099C23.3966 109.949 23.4671 109.79 23.5409 109.622C24.0951 108.357 25.2411 107.114 25.2411 107.114C25.2411 107.114 23.7138 107.657 23.0158 108.16C22.0779 108.834 21.3114 110.824 21.3114 110.824C21.3114 110.824 20.3357 112.136 16.2972 111.61C12.3377 111.096 10.1349 111.695 9.02239 112.659C12.6181 111.04 19.2176 113.812 18.3587 116.659C17.7743 118.596 16.2463 118.471 13.042 118.21L13.0414 118.21L13.0403 118.21L13.0383 118.21C12.4127 118.159 11.7232 118.103 10.9644 118.056C4.98811 118.056 3.99207 119.773 3.99207 119.773C3.99207 119.773 9.30431 119.208 10.3004 119.495C10.4525 119.52 10.6008 119.544 10.7455 119.567L11.0932 119.621L11.096 119.622C15.6831 120.341 16.305 120.438 16.305 130.177C16.305 135.323 16.7155 141.215 17.2162 143.271C18.1051 146.918 18.0595 146.995 15.3404 146.403C12.0095 145.678 1.84549 147.404 -2.0517 149.355C-3.88625 150.274 -4.07649 150.538 -2.60796 150.132C11.4132 146.253 18.1518 147.163 21.8131 153.426C23.305 155.979 25.9072 159.491 27.5971 161.231L30.6677 164.395L10.136 163.884C-21.8358 163.088 -43.0172 158.731 -68.1803 147.774C-76.7293 144.052 -82 142.479 -82 142.479C-82 142.479 -80.0402 145.053 -76.0859 148.295C-58.1731 162.98 -1.85923 175.792 28.7798 172.15C31.6746 171.806 33.6415 171.922 33.3645 172.42C28.9845 180.299 27.8642 183.187 27.2679 188.131C26.4379 195.023 21.5889 196.376 17.2727 196.622C13.169 196.615 6.98021 194.936 6.98021 194.936C6.98021 194.936 10.0311 196.482 10.6324 196.622C10.9829 196.704 11.3566 196.798 11.7504 196.898C13.7627 197.406 16.2986 198.046 18.9328 197.815C18.9328 197.815 21.202 197.616 22.5849 197.239C23.7845 196.912 25.5345 196.12 25.5345 196.12L26.3333 205.8C26.9697 213.508 26.8228 215.651 25.6124 216.316C25.0527 216.623 20.5113 216.316 20.5113 216.316C20.5113 216.316 20.9249 217.395 26.0396 217.165C27.2868 217.174 28.0166 217.96 28.0711 219.35C28.1178 220.544 28.8732 223.04 29.7499 224.896C30.4045 226.283 32.8774 228.049 32.8774 228.049C32.8774 228.049 30.6647 224.892 29.652 220.039C28.9711 216.772 29.1758 216.497 34.546 213.481C37.6277 211.749 41.1177 209.265 42.3014 207.961L44.452 205.59L48.0354 211.144C53.1285 219.038 61.5526 227.759 67.6526 231.453C70.3986 233.115 74.7114 233.808 74.7114 233.808C74.7114 233.808 70.7358 231.981 68.092 230.018L63.297 226.459L63.9857 219.397C65.1828 207.117 60.9262 189.761 54.5114 180.762C54.3824 180.581 54.2579 180.41 54.138 180.248L55.1225 179.964C55.1225 179.964 53.6015 177.298 52.3727 175.427C58.7765 181.699 67.7159 192.516 73.282 201.58C90.2358 229.189 106.902 238.843 137.13 232.028C143.812 230.522 148.689 229.019 151.013 227.473C153.337 225.927 155.329 223.961 155.329 223.961C155.329 223.961 152.461 225.395 148.025 225.976C143.589 226.558 118.429 224.899 102.263 215.582C94.5323 211.125 90.3103 206.904 75.8252 189.142C71.8479 184.265 66.3409 178.531 63.5874 176.398C60.8339 174.267 59.8326 173.241 61.3624 174.121C62.8921 175 66.6469 177.009 69.7063 178.585C72.7657 180.161 79.0237 184.309 83.6129 187.803C108.422 206.69 120.88 211.559 143.589 211.244L154.258 211.096L142.021 210.364C120.326 209.067 108.165 204.592 91.1069 191.627C85.7612 187.564 81.3878 184.109 81.3878 183.95C81.3878 183.791 84.672 184.694 88.686 185.957C98.7711 189.131 113.243 191.162 124.644 191.004L134.233 190.872L123.96 190.078C105.372 188.642 88.3478 182.569 77.0846 173.355L71.1125 168.47L78.7378 166.947L86.3642 165.423L88.1876 168.953C91.345 175.066 105.697 183.398 118.129 186.334C118.759 186.483 119.434 186.65 120.156 186.829C128.405 188.87 142.75 192.42 165.019 187.301C165.019 187.301 159.162 187.014 157.715 187.11L147.583 187.301L152.986 185.784C156.228 184.873 159.375 183.079 159.375 183.079L152.071 185.094C136.919 189.047 111.314 179.207 100.526 165.483C99.1259 163.704 99.1026 163.707 99.7523 165.576C102.012 172.076 111.041 178.275 125.943 183.558C136.697 187.37 136.564 187.672 124.905 185.908C104.249 182.782 80.9228 167.286 92.0703 164.096C97.3593 162.584 100.02 163.15 116.714 169.344C137.021 176.878 155.293 182.172 166.015 180.487C167.224 180.298 172.324 179.033 172.324 179.033C172.324 179.033 170.437 179.111 167.011 179.047C150.797 178.744 133.87 174.451 113.176 166.326C101.654 161.803 101.505 161.702 105.041 160.888C114.902 158.619 127.572 160.96 159.821 171.007C177.483 176.51 193.528 177.032 206.547 172.527C220.415 167.727 225.481 166.073 225.481 166.073C220.46 166.151 216.166 166.498 212.27 166.813C202.54 167.599 195.288 168.185 185.379 163.878C172.291 158.19 159.758 154.389 148.139 152.582C147.126 152.425 146.189 152.281 145.326 152.149L145.325 152.149L145.325 152.149C139.609 151.273 137.12 150.891 137.05 150.245C136.995 149.747 138.38 149.091 140.833 147.93L140.834 147.929L140.849 147.923L140.852 147.921C141.327 147.696 141.842 147.452 142.394 147.187C152.804 142.184 160.857 142.667 189.329 149.997C222.246 158.473 249.885 158.958 266.016 135.327C266.016 135.088 264.693 136.256 262.882 137.853L262.881 137.855L262.879 137.856L262.879 137.857L262.878 137.857C260.046 140.355 256.024 143.905 254 144.782C240.093 151.534 223.241 156.839 184.65 147.322C175.055 144.956 164.093 142.714 160.292 142.342C153.455 141.671 153.412 141.647 156.429 140.277C163.024 137.282 181.55 139.477 207.185 144.782C212.874 145.959 223.958 146.325 233.021 145.122C245.429 143.475 255.447 139.819 255.447 139.819C255.447 139.819 244.062 140.964 236.735 141.327C232.542 141.535 229.46 141.973 226.659 142.37C220.047 143.309 214.999 144.026 200.604 140.978C186.23 137.935 168.349 135.774 164.4 136.603C163.105 136.875 164.299 136.155 167.052 135.004C175.978 131.271 199.763 131.385 220.454 135.26C242.51 139.389 271.579 135.196 271.579 128.574C271.579 128.574 270.111 130.238 268.879 131.013C267.183 132.079 263.898 132.741 263.898 132.741C263.898 132.741 242.229 137.389 217.672 133.061C208.255 131.401 201.545 130.898 188.559 130.878L171.683 130.852L175.193 128.923C177.892 127.439 181.087 126.916 189.019 126.659C198.659 126.346 204.897 126.845 224.348 129.481C252.506 132.154 257.47 131.243 260.868 130.619C261.223 130.554 261.561 130.492 261.906 130.437C265.559 129.861 275.115 126.359 277.843 124.103C290.335 116.086 307.203 100.337 307.772 99.805C307.784 99.7978 307.789 99.7932 307.787 99.7911L307.772 99.805C307.394 100.046 299.932 103.148 291.419 106.686C281.549 110.788 270.267 115.477 266.975 116.977C264.109 118.282 246.553 117.99 236.585 116.471C231.69 115.726 222.929 114.764 217.116 114.335L206.547 113.554L214.335 112.871C218.618 112.494 231.667 112.175 243.332 112.161C245.116 112.158 247.036 112.201 249.027 112.246C255.642 112.394 263.043 112.559 268.879 111.145C288.393 106.417 292.717 100.448 292.717 99.6378C292.717 99.6378 281.28 104.265 273.527 106.119C261.959 108.885 256.88 108.898 244.509 108.928C242.598 108.933 240.513 108.938 238.203 108.953C219.149 109.084 209.122 111.278 204.044 112.389C203.706 112.463 203.39 112.532 203.095 112.596C200.079 113.243 196.279 114.06 195.113 114.31C197.703 112.727 204.551 108.313 209.78 104.326C209.78 104.326 232.241 96.3005 245.701 97.0361C250.827 97.3163 255.729 98.3125 259.814 99.1427C262.019 99.5909 263.986 99.9908 265.622 100.203C272.872 101.146 283.219 94.1567 283.219 94.1567C283.219 94.1567 272.611 98.8876 265.622 97.612C263.517 97.2277 261.506 96.5893 259.498 95.9517C257.221 95.2285 254.946 94.5062 252.539 94.1567C249.148 93.6643 231.679 95.0081 220.787 96.7048C234.816 88.3209 248.289 86.5662 280.672 89.3536C303.626 91.329 309.586 90.7165 318.067 85.5089C319.205 84.8101 320.399 84.2419 321.628 83.6576C323.542 82.7466 325.54 81.7964 327.535 80.2511C328.46 79.5341 329.083 78.9021 329.715 78.2615C330.292 77.6757 330.877 77.0828 331.707 76.4112C332.961 75.3952 333.705 74.8617 335.054 73.9409C344.833 67.2651 355.596 64.2047 355.596 64.2047C355.596 64.2047 344.535 66.265 341.289 66.4984C338.042 66.7318 327.424 65.9573 317.693 64.7766C300.713 62.7163 290.949 62.5996 269.961 64.2047C265.033 64.5818 241.986 77.967 226.841 89.2485C223.317 91.873 220.176 93.7974 219.861 93.5234C219.303 93.0402 226.448 87.5383 235.473 81.5021C237.92 79.8652 245.645 75.2161 252.637 71.1697C259.63 67.1244 264.994 63.815 264.555 63.815C264.117 63.815 265.692 61.3187 268.055 58.2688C270.417 55.2188 274.816 49.0331 277.831 44.5238C292.405 22.7209 307.063 14.6475 333.02 11.2297C339.562 10.3682 349.952 10.6538 349.952 10.6538C349.952 10.6538 340.4 11.1149 334.68 12.8023C321.297 16.7498 316.173 22.691 307.643 33.6744C296.129 48.4997 295.635 48.9087 281.812 55.0394C269.33 60.576 263.396 63.7195 265.306 63.7841C265.805 63.8015 267.242 63.3375 268.499 62.7539C270.163 61.9833 270.58 61.9833 270.03 62.7539C268.824 64.4448 269.927 64.0899 281.487 59.0597C292.727 54.1694 308.993 48.384 316.47 46.6159C321.254 45.4845 323.573 46.1134 349.486 55.5719C370.406 63.2093 385.036 65.6245 393.486 62.8388C399.736 60.7785 428.889 67.1109 432.456 71.3029C433.99 73.1056 440.734 79.382 440.734 79.382L435.833 71.681C435.833 71.681 434.749 70.3658 433.917 69.6299C432.481 68.3608 431.263 67.796 429.709 67.0746L429.708 67.0741C429.276 66.874 428.819 66.6619 428.324 66.4193C423.41 64.0113 419.326 63.3962 414.827 62.7185C412.193 62.3216 409.416 61.9033 406.246 61.091C401.426 59.856 397.203 59.0357 393.233 58.2649C384.488 56.5665 376.98 55.1083 367.065 49.9832C360.507 46.5928 353.589 43.2612 351.692 42.5802C347.226 40.9771 371.15 39.6923 383.388 41.934C387.95 42.7696 403.33 48.0868 413.367 52.8528C430.255 60.8718 442.253 71.3029 442.253 71.3029C442.253 71.3029 442.908 65.7318 416.356 51.5969C403.971 45.004 387.755 40.1111 384.5 39.5476C377.269 38.2956 365.629 37.355 353.494 37.6407C351.917 37.6778 350.841 37.6383 349.878 37.603C347.83 37.5279 346.295 37.4716 341.55 38.2105C341.316 38.225 341.085 38.2403 340.86 38.2566C339.929 38.3239 339.132 38.3745 338.414 38.4202C336.058 38.57 334.543 38.6662 331.895 39.1204C329.834 39.474 328.449 39.8404 326.8 40.2766C326.129 40.4543 325.414 40.6435 324.591 40.8481C322.864 41.2779 318.512 42.2962 315.781 42.9325C315.781 42.3801 318.27 40.6686 323.381 37.4324C355.907 16.838 405.315 25.9438 433.288 54.9968C437.858 59.7431 443.464 68.143 443.464 68.143C443.464 68.143 442.388 62.2098 434.948 52.8528C434.948 52.8528 422.859 41.8073 417.684 38.872C393.486 25.1489 378.989 24.7629 378.989 24.7629C354.601 22.7473 340.952 24.3191 322.806 35.319C314.516 40.3453 314.188 40.2199 320.581 34.4673C332.824 23.453 347.595 16.9827 363.066 15.858C367.235 15.5551 374.522 14.9729 374.522 14.9729C374.522 14.9729 360.304 14.4892 351.612 16.4126C336.242 19.8141 331.061 23.8484 317.357 35.346C305.831 45.0167 301.068 48.382 298.904 48.382C298.528 48.382 301.786 43.838 306.147 38.284C317.511 23.8099 327.367 16.5428 340.704 12.8023C342.899 12.1869 353.605 11.8056 353.605 11.8056L369.873 11.3487C369.873 11.3487 344.618 8.58909 339.697 8.37013C318.145 7.41329 293.574 20.2082 279.365 39.7868C261.782 64.0147 260.981 64.8374 248.095 71.9125L244.765 73.7403L246.602 69.9833C247.613 67.9173 251.106 60.3214 254.366 53.1045C269.07 20.5487 280.279 10.0494 305.709 5.00671C315.04 3.15668 322.755 3.57916 322.755 3.57916L341.668 4.14632C341.668 4.14632 316.749 1.19247 301.478 4.03117C301.034 4.11381 293.842 5.47087 293.842 5.47087C293.842 5.47087 301.055 3.08759 302.225 2.59917C304.06 1.83234 312.435 0 312.435 0C312.435 0 303.194 1.31898 297.494 2.87941C291.178 4.60843 287.682 5.85389 281.889 8.63822C279.842 9.62232 278.068 10.4245 276.46 11.1512C270.781 13.7189 267.183 15.3457 260.972 20.7317C249.425 30.7462 246.852 35.2526 236.177 53.954C234.039 57.6983 231.577 62.0116 228.653 67.052C212.197 95.4207 210.504 97.6218 198.634 106.119C192.805 110.291 187.203 115.133 187.203 115.133C186.387 114.898 186.681 113.874 188.041 112.201C192.594 106.61 197.341 96.9196 204.956 77.6709C216.291 49.0225 221.802 40.1553 237.098 25.955C248.098 15.7432 258.224 6.89481 276.075 3.52707C280.262 2.73711 280.918 2.69539 281.018 2.6978ZM187.203 115.133L187.596 115.445C187.566 115.291 187.438 115.186 187.203 115.133ZM187.596 115.445C187.596 115.445 196.117 110.142 203.766 104.326C211.414 98.5112 218.173 93.7655 218.785 93.781C219.397 93.7964 216.409 96.501 212.143 99.7911C200.128 109.061 194.757 114.387 194.757 114.387C194.757 114.387 187.772 118.293 181.406 122.601C140.773 150.101 110.415 160.856 54.6872 167.497C52.1087 167.805 49.4931 168.069 46.8488 168.292C46.6218 168.023 46.4901 167.87 46.4901 167.87H43.834C43.834 167.87 44.0456 168.098 44.397 168.486C-0.971352 171.851 -53.9379 163.24 -73.2534 148.712C-74.6439 147.666 -76.0237 146.274 -76.0237 146.274C-76.0237 146.274 -73.0077 147.655 -67.6908 150.058C-13.7544 174.44 75.1844 172.217 137.93 144.917C156.012 137.049 188.142 118.241 187.596 115.445ZM93.636 113.685C93.636 113.685 88.795 129.844 85.6989 137.121C81.6715 146.59 73.6914 156.289 67.7293 158.962C64.2827 160.507 64.2894 160.489 68.8263 156.02C76.2301 148.728 88.0797 125.638 88.5681 124.234C89.0565 122.831 93.636 113.685 93.636 113.685ZM50.8063 176.508C51.1765 177.19 51.4886 177.761 51.7517 178.237C51.4664 178.976 52.623 182.247 55.1233 187.049C60.1664 196.731 62.4426 205.203 62.4415 214.286C62.4404 225.724 60.9763 225.87 52.7859 215.251C45.6212 205.962 45.3887 205.193 47.9542 199.25C51.2651 191.577 51.067 182.272 47.4602 176.108C45.9327 173.499 44.6811 171.247 44.6789 171.104C44.6628 170.201 45.1805 170.014 46.0984 170.4C47.798 172.351 49.97 174.967 50.8063 176.508ZM332.275 42.9204L331.15 43.0991C325.924 43.9296 322.196 45.4112 325.21 45.4594C326.227 45.4749 332.986 47.7059 340.23 50.4153C367.156 60.4873 387.138 63.923 392.997 61.7334C393.48 61.444 395.771 61.0435 395.771 61.0435C395.771 61.0435 388.798 59.8918 387.47 59.8918C387.47 59.8918 385.81 59.6038 382.822 58.74C382.822 58.74 382.66 58.8504 378.989 57.4074C375.318 55.9635 369.629 53.2974 366.347 51.4831C361.256 48.6673 356.258 46.3241 351.914 44.6567C351.846 44.7947 351.414 44.7353 350.283 44.343C346.963 43.1912 340.465 42.8637 334.22 42.8637C333.554 42.8637 332.904 42.884 332.275 42.9204ZM270.466 3.18176C270.466 3.18176 266.507 4.73471 263.644 6.19023C260.782 7.64478 258.115 8.83505 257.719 8.83505C255.953 8.83505 243.632 17.9395 235.923 24.9413C220.077 39.3325 214.216 48.6444 202.731 77.6709C191.589 105.833 185.644 115.452 173.268 123.959C177.755 118.473 185.801 107.957 190.22 98.0783C193.467 90.8189 195.075 82.6165 196.689 74.3849C198.597 64.6555 200.513 54.8854 205.152 46.5839C213.716 31.2589 226.112 20.1561 226.112 20.1561C215.156 27.3546 209.139 32.2983 202.836 42.5108C197.317 51.4538 195.481 61.2412 193.632 71.0972C192.343 77.9663 191.048 84.8689 188.495 91.5422C183.462 104.701 175.239 119.071 171.714 125C171.387 125.213 171.055 125.427 170.719 125.64C161.219 131.675 160.551 131.861 162.945 127.807C166.833 121.224 171.728 106.283 176.01 87.929C188.948 32.4783 214.122 7.54833 259.897 3.66405C263.331 3.37246 266.771 3.28823 268.784 3.23897C269.64 3.218 270.238 3.20336 270.466 3.18176ZM273.11 18.7218C264.81 26.338 261.108 32.4986 247.75 60.9213C241.341 74.5534 239.48 77.0073 231.331 82.5583C227.491 85.1752 222.657 88.6476 220.59 90.2748C218.522 91.903 217.021 92.8 217.252 92.2695C218.89 88.5111 220.83 85.6794 222.54 83.183C223.36 81.9865 224.127 80.8671 224.783 79.7595C226.979 76.0495 228.948 73.0825 231.041 69.9311C235 63.9665 239.399 57.3413 246.602 43.767C258.271 21.7751 280.229 12.0935 280.229 12.0935C280.229 12.0935 275.041 16.95 273.11 18.7218ZM186.496 22.9475C169.097 38.7036 163.437 49.6224 159.811 74.4251C156.513 96.9814 143.858 136.626 140.801 133.975C140.54 133.747 141.386 131.482 142.684 128.939C146.871 120.73 150.2 108.113 153.11 89.4105C159.515 48.2518 169.385 28.3037 188.139 18.6089C190.528 17.3742 196.893 14.685 196.893 14.685C196.893 14.685 190.529 19.296 186.496 22.9475ZM139.458 52.4814C139.005 53.4084 138.59 54.2386 138.195 55.0307C137.175 57.0722 136.282 58.861 135.169 61.4036C130.594 71.8458 128.735 82.1724 127.109 91.1976C126.215 96.1604 125.392 100.73 124.228 104.708C118.903 122.909 108.562 140.538 97.5673 150.162C93.8693 153.399 92.1849 154.719 93.8248 153.095C105.633 141.397 113.741 125.207 119.849 101.123C124.865 81.343 127.551 73.4201 131.595 66.4675C133.796 62.6835 136.134 55.2846 136.134 55.2846C136.134 55.2846 132.789 62.5592 131.137 65.0207C126.709 71.6183 123.111 81.4336 118.2 100.317C109.519 133.696 94.786 156.585 80.2753 159.236L75.2689 160.15L78.6065 158.123C95.9263 147.6 105.503 131.66 115.739 96.3158C123.098 70.9112 128.502 59.4012 137 51.0346C139.963 48.118 144.103 44.9187 144.103 44.9187C144.103 44.9187 141.228 48.8668 139.458 52.4814ZM314.748 66.1376C320.709 66.8852 328.495 67.787 332.048 68.143C335.979 68.5365 339.992 69.054 339.992 69.054C339.992 69.054 335.339 72.0341 332.355 73.9409C330.551 75.0938 329.033 76.3742 327.596 77.5853C324.934 79.8297 322.554 81.836 319.166 82.351C313.95 83.1438 304.512 83.3772 281.029 79.7341C272.494 78.4107 262.257 77.2976 258.28 77.2619C252.256 77.2079 251.513 77.0323 253.83 76.2163C259.915 74.0731 272.489 74.1184 290.273 76.3504C308.287 78.6104 322.001 77.4562 325.653 75.7285C329.306 74.0009 328.986 72.4111 328.986 72.4111C328.986 72.4111 328.288 73.0643 322.173 72.9764C317.93 72.9153 315.299 72.0957 312.246 71.1443C310.9 70.7248 309.472 70.2798 307.787 69.8628C302.28 68.5008 293.269 66.8514 287.762 66.1984L277.749 65.011L290.829 64.8953C298.022 64.8316 308.786 65.3911 314.748 66.1376ZM307.231 71.4456C313.656 73.0776 319.914 74.4222 321.138 74.4338C322.195 74.4438 323.661 74.5767 323.661 74.5767C323.661 74.5767 323.059 75.1008 321.669 75.4406C320.403 75.9646 303.932 76.4758 287.594 74.3364C272.899 72.4121 260.163 72.2655 254.386 73.9544C252.557 74.4888 252.656 74.2448 254.942 72.5838C263.104 66.6546 286.375 66.1482 307.231 71.4456ZM280.53 81.75C285.731 82.593 295.994 83.5923 303.337 83.9704L316.687 84.6572L312.237 86.4243C305.485 89.1048 300.043 89.2851 281.053 87.4592C269.796 86.376 258.217 85.915 248.258 86.1523C231.567 86.5497 230.465 85.4491 243.817 81.7172C253.748 78.9412 263.252 78.9499 280.53 81.75ZM443.464 81.3111C443.353 82.6374 442.908 87.0985 442.908 87.0985C443.682 86.4754 445.927 83.1282 444.577 79.382C443.621 76.7296 443.191 75.7297 443.038 75.6967C443.038 75.6967 443.464 79.0956 443.464 81.3111ZM29.6042 115.553C29.6042 115.553 30.6177 115.814 29.1269 119.214C28.5294 120.575 27.4993 121.689 26.8362 121.689L23.249 120.647C23.249 120.647 18.7971 119.579 20.1399 116.518C21.3859 113.678 29.6042 115.553 29.6042 115.553ZM233.626 117.837C241.789 118.894 250.3 119.799 252.539 119.846L256.611 119.933L252.717 120.927C250.171 121.577 242.858 121.645 231.579 121.125C222.095 120.687 208.236 120.31 200.782 120.286C186.778 120.24 185.806 119.62 195.978 117.215C203.427 115.454 216.96 115.677 233.626 117.837ZM36.1547 117.936C38.6212 118.911 38.1897 123.239 36.3105 126.347C35.4093 127.183 30.2116 123.185 30.2116 121.657C30.2116 117.132 31.7235 116.186 36.1547 117.936ZM283.26 113C283.26 113 283.487 114.888 276.183 120.927C268.215 125.542 247.36 130.725 215.447 126.497C208.105 125.444 197.341 124.54 191.528 124.487L180.959 124.391L185.965 122.963C190.047 121.799 194.258 121.676 208.772 122.301C240.197 123.654 252.317 123.338 260.505 120.949C275.153 116.676 283.26 113 283.26 113ZM45.8704 123.316C57.2838 132.255 60.4968 147.925 52.8393 157.305C48.5004 162.621 44.5877 165.196 46.3021 161.608C50.3261 153.186 48.605 141.812 41.9399 132.779C37.7942 123.769 38.1717 117.285 45.8704 123.316ZM27.0031 123.204C27.3891 123.411 27.0253 126.085 26.1943 129.145C25.3632 132.206 24.6757 137.671 24.6668 141.291C24.6512 147.036 24.4009 147.832 22.702 147.548C19.202 146.964 17.5877 139.81 17.8748 126.163L17.9738 121.473L22.1369 122.151C24.4276 122.524 26.617 122.997 27.0031 123.204ZM32.4667 126.191C33.9797 127.076 35.3537 127.882 35.5206 127.981C35.6875 128.081 35.0689 130.937 34.1466 134.329C33.2243 137.721 32.4622 142.777 32.4533 145.561C32.4355 150.993 32.3043 151.148 29.0257 149.627C26.7038 148.55 26.0263 138.897 27.5816 129.058C28.3726 124.053 28.5918 123.924 32.4667 126.191ZM44.2194 140.497C46.9818 146.772 46.9485 156.594 44.1482 161.23L42.1123 164.599L40.5848 160.775C39.746 158.673 37.8669 155.854 36.4095 154.512C33.6949 152.011 33.6916 143.547 36.4028 132.504L37.1816 129.334L39.6392 132.504C40.9909 134.248 43.0524 137.845 44.2194 140.497ZM137.979 139.074C136.595 141.208 134.547 143.673 133.429 144.55C132.31 145.428 133.267 143.681 135.555 140.669C140.401 134.289 141.584 133.51 137.979 139.074ZM26.7083 154.383C27.4436 156.513 29.4039 159.685 31.0638 161.433C32.7237 163.181 33.1687 163.985 32.0528 163.221C27.0565 159.793 19.3622 147.724 23.3562 149.577C24.4643 150.091 25.9718 152.253 26.7083 154.383ZM30.8213 152.328C31.4621 152.717 32.1029 154.556 32.2442 156.413C32.4823 159.557 32.3944 159.656 30.9492 157.86C27.6027 153.696 27.5237 150.324 30.8213 152.328ZM36.899 157.618C39.5212 161.348 39.7537 164.129 37.443 164.129C36.5252 164.129 35.752 163.803 35.7253 163.406C35.6986 163.008 35.2658 160.838 34.763 158.583C33.6638 153.661 34.0064 153.505 36.899 157.618ZM163.224 157.915C168.155 159.147 176.916 162.176 182.693 164.646L193.197 169.136L187.078 168.734C182.972 168.463 177.482 166.955 170.39 164.148C164.577 161.848 156.317 158.718 152.033 157.192C142.409 153.764 148.075 154.131 163.224 157.915ZM143.178 156.934C146.824 157.752 156.817 161.059 165.384 164.283C179.861 169.732 181.652 170.171 190.796 170.515C204.113 171.015 205.994 172.156 196.043 173.698C183.424 175.653 175.274 174.262 148.758 165.625C140.157 162.824 129.669 159.74 125.453 158.774C119.742 157.465 118.322 156.833 119.89 156.3C123.569 155.048 136.31 155.395 143.178 156.934ZM79.2473 177.736C81.3422 179.118 85.5598 181.41 88.6192 182.828C96.002 186.249 90.6752 185.056 80.7859 181.075C71.513 177.34 60.8495 170.929 62.1278 169.858C64.8501 167.576 69.7375 168.506 72.5722 171.846C74.1486 173.702 77.1525 176.353 79.2473 177.736ZM63.8956 179.411C66.9517 181.881 73.4922 188.894 78.4307 194.995C95.4068 215.964 107.093 222.939 134.233 228.303L137.57 228.962L134.794 229.88C129.36 231.675 112.52 231.008 105.3 228.711C90.5395 224.016 87.4734 220.836 68.0831 190.107C63.4339 182.738 55.8709 174.851 50.7934 172.076C49.5696 171.408 50.7666 171.773 53.4545 172.889C56.1424 174.005 60.8406 176.939 63.8956 179.411ZM37.6967 180.076L37.7723 188.308L33.7339 190.686C28.1879 193.954 28.0822 193.862 29.5886 187.037C30.9848 180.713 35.5384 171.846 37.3896 171.846C37.5164 171.846 37.6544 175.55 37.6967 180.076ZM41.0309 179.786C40.7828 181.519 40.5748 180.334 40.5692 177.151C40.5625 173.968 40.765 172.549 41.0198 173.999C41.2735 175.448 41.2779 178.053 41.0309 179.786ZM48.4871 187.761C48.575 193.011 46.0273 201.99 44.6578 201.256C42.1512 199.912 40.0319 187.505 41.803 184.536C42.7698 182.914 43.6042 179.937 43.6554 177.922L43.75 174.257L46.0773 178.598C47.3946 181.053 48.4404 185.032 48.4871 187.761ZM42.3637 201.087C43.8 204.342 40.3245 209.025 33.9286 212.453C28.901 215.146 28.6018 214.72 28.2102 204.32L27.8775 195.477L33.2065 192.499L38.5366 189.519L39.8505 193.946C40.5726 196.379 41.704 199.593 42.3637 201.087ZM343.489 58.6829C343.489 58.6829 331.979 59.0493 324.73 58.107C322.299 57.791 320.464 57.363 318.607 56.9296C316.899 56.5313 315.172 56.1284 312.943 55.8035C307.506 55.0108 298.976 54.5671 298.54 54.5448C298.607 54.5448 298.843 54.5281 299.217 54.5017C301.509 54.3398 308.961 53.8136 313.991 54.5439C316.777 54.9484 318.71 55.3483 320.831 55.7871C322.158 56.0617 323.56 56.3516 325.29 56.6673C332.279 57.9429 343.489 58.6829 343.489 58.6829Z" fill="#3A7E7F"/>
</svg>