<svg xmlns="http://www.w3.org/2000/svg" width="596" height="272" viewBox="0 0 596 272" fill="none">
  <path opacity="0.5" fill-rule="evenodd" clip-rule="evenodd" d="M405.88 3.12781L400.655 2.61981C400.655 2.61981 369.75 2.19262 353.91 7.59962C313.319 21.4554 294.483 46.1811 280.333 104.181C273.013 134.189 264.35 153.763 256.389 158.285C252.458 160.519 252.372 160.209 255.592 155.407C261.931 145.957 268.931 124.622 273.702 96.1581C282.941 57.7537 285.917 50.3374 300.263 32.3821C304.326 28.6373 312.581 21.3655 312.581 21.3655C312.581 21.3655 309.346 22.6152 309.161 22.7001C291.507 30.8011 278.686 52.9323 270.45 96.1581C264.242 128.735 256.671 149.947 247.56 160.278C242.411 166.117 239.673 166.494 244.145 160.749C254.112 147.946 262.623 122.014 267.304 90.202C272.131 57.3921 276.957 47.2457 296.095 29.6884C302.356 23.9448 327.979 5.34138 327.979 5.34138C327.979 5.34138 302.958 14.355 289.485 22.7001C272.744 36.2461 262.37 60.4316 255.659 99.5868C248.996 138.46 240.585 159.169 227.116 169.862C224.017 172.323 194.512 181.428 190.194 181.255C188.699 181.196 188.533 180.974 189.682 180.575C193.255 179.337 206.512 163.321 212.747 152.71C222.556 136.013 225.594 127.447 232.532 96.9118C239.961 64.2149 245.689 52.5599 260.149 40.7171C262.726 38.3564 266.884 33.7277 266.884 33.7277C266.884 33.7277 248.944 46.5107 238.907 56.8084C222.914 73.216 222.17 75.8298 214.321 103.417C213.617 105.889 212.857 108.561 212.024 111.462C199.86 153.789 189.191 170.814 167.076 183.182C157.995 188.262 157.434 187.901 165.109 181.919C176.555 172.997 184.368 161.867 194.581 125.963L194.881 124.906L195.128 124.039C201.226 102.58 204.082 92.5261 213.963 82.46C216.662 79.7119 224.816 66.0996 224.816 66.0996C224.816 66.0996 213.951 77.4252 210.958 79.7869C203.132 85.961 189.673 119.231 188.631 131.805C188.631 131.805 185.446 136.582 184.782 135.144C183.316 131.972 190.078 107.281 193.865 99.8452C194.414 98.7675 195.294 97.1149 196.264 95.2925L196.264 95.2923C198.729 90.6633 201.776 84.9398 201.458 84.766C201.329 84.6951 199.251 87.8047 197.396 90.581C196.108 92.5087 194.927 94.2757 194.581 94.7054C191.717 98.2594 188.963 106.338 185.384 121.686C177.368 156.052 159.194 186.62 145.757 188.33L141.582 188.861L144.69 187.072C155.021 181.124 165.037 163.414 168.23 137.541C172.655 101.681 179.237 82.432 199.524 71.9054L204.683 68.5506C185.138 73.1915 169.723 95.637 164.709 127.368C160.041 156.917 158.986 161.299 154.593 169.396C148.489 180.641 145.23 183.964 148.904 175.193C154.747 161.244 151.638 130.968 143.332 120.955C142.839 120.36 141.284 118.512 141.284 118.512C141.284 118.512 142.463 120.517 142.883 121.515C147.311 132.025 148.855 139.489 149.358 152.827C149.873 166.467 149.802 167.019 148.208 161.773C145.653 153.369 141.828 147.739 134.8 142.04L128.46 136.899C128.46 136.899 130.145 133.304 131.422 131.082C134.252 126.155 140.129 119.18 140.129 119.18C140.129 119.18 132.721 125.67 130.358 129.382L126.061 136.131L121.976 134.414L117.89 132.698L120.359 128.313C122.014 125.371 124.347 122.852 124.347 122.852C124.347 122.852 120.756 124.625 119.071 127.489C116.533 131.802 116.2 131.973 111.564 131.352C111.243 131.309 110.939 131.269 110.652 131.231C107.926 130.872 106.735 130.716 106.448 130.122C106.225 129.661 106.547 128.937 107.117 127.651C107.195 127.476 107.277 127.291 107.363 127.095C108.006 125.629 109.335 124.187 109.335 124.187C109.335 124.187 107.564 124.817 106.755 125.4C105.667 126.181 104.778 128.488 104.778 128.488C104.778 128.488 103.647 130.009 98.9651 129.4C94.3745 128.804 91.8206 129.498 90.5307 130.616C94.6995 128.739 102.351 131.953 101.355 135.254C100.678 137.499 98.906 137.355 95.1909 137.052L95.1904 137.052L95.1893 137.052L95.1873 137.052C94.4618 136.993 93.6622 136.928 92.7822 136.873C85.8534 136.873 84.6986 138.864 84.6986 138.864C84.6986 138.864 90.8576 138.208 92.0124 138.542C92.3257 138.593 92.6252 138.64 92.9114 138.685L92.9205 138.686L92.9307 138.688L92.9349 138.689C98.2531 139.522 98.9741 139.635 98.9741 150.926C98.9741 156.892 99.4501 163.724 100.031 166.108C101.061 170.336 101.008 170.425 97.8558 169.739C93.994 168.898 82.2099 170.899 77.6915 173.161C75.5645 174.227 75.3439 174.533 77.0466 174.062C93.3026 169.565 101.115 170.619 105.36 177.881C107.09 180.84 110.107 184.912 112.066 186.93L115.626 190.599L91.8219 190.006C54.754 189.083 30.1964 184.032 1.02244 171.328C-8.88921 167.013 -15 165.189 -15 165.189C-15 165.189 -12.7279 168.173 -8.14329 171.932C12.6247 188.958 77.9146 203.812 113.437 199.59C116.793 199.191 119.074 199.325 118.753 199.903C113.675 209.037 112.376 212.386 111.684 218.118C110.722 226.108 105.1 227.676 100.096 227.962C95.3383 227.954 88.163 226.007 88.163 226.007C88.163 226.007 91.7002 227.8 92.3973 227.962C92.8037 228.057 93.237 228.167 93.6936 228.282C96.0267 228.871 98.9668 229.613 102.021 229.346C102.021 229.346 104.652 229.115 106.255 228.678C107.646 228.299 109.675 227.38 109.675 227.38L110.601 238.603C111.339 247.539 111.168 250.024 109.765 250.795C109.116 251.152 103.851 250.795 103.851 250.795C103.851 250.795 104.33 252.047 110.26 251.78C111.706 251.79 112.552 252.702 112.616 254.313C112.67 255.698 113.546 258.591 114.562 260.743C115.321 262.351 118.188 264.398 118.188 264.398C118.188 264.398 115.623 260.739 114.449 255.111C113.659 251.324 113.896 251.005 120.123 247.508C123.695 245.5 127.742 242.62 129.114 241.108L131.607 238.359L135.762 244.799C141.667 253.951 151.434 264.062 158.506 268.344C161.69 270.272 166.69 271.075 166.69 271.075C166.69 271.075 162.081 268.957 159.016 266.681L153.456 262.555L154.255 254.367C155.643 240.13 150.708 220.008 143.27 209.574C143.121 209.364 142.976 209.166 142.837 208.978L141.67 209.316C141.67 209.316 141.955 210.058 140.071 206.646C139.739 207.501 141.08 211.294 143.98 216.863C149.827 228.089 152.466 237.911 152.464 248.442C152.463 261.703 150.766 261.872 141.27 249.56C132.963 238.791 132.694 237.9 135.668 231.009C139.507 222.113 139.277 211.324 135.095 204.178C133.324 201.153 131.873 198.542 131.871 198.377C131.852 197.329 132.453 197.112 133.518 197.561C132.726 196.653 132.024 195.87 131.544 195.342C78.9446 199.243 17.5351 189.259 -4.85931 172.415C-6.47145 171.203 -8.07114 169.589 -8.07114 169.589C-8.07114 169.589 -4.57434 171.19 1.58997 173.976C64.1235 202.245 167.238 199.667 239.985 168.016C262.102 158.393 302.345 134.652 297.111 133.485C297.111 133.485 303.607 127.87 310.365 123.033C324.128 113.182 326.089 110.63 345.169 77.7397C348.558 71.897 351.413 66.897 353.89 62.5565L353.892 62.5539C366.269 40.8716 369.251 35.647 382.639 24.0362C389.84 17.7917 394.012 15.9056 400.596 12.9287C402.46 12.0861 404.517 11.1561 406.891 10.0151C413.606 6.78696 417.66 5.34298 424.983 3.33836C431.591 1.52921 442.305 0 442.305 0C442.305 0 432.595 2.1244 430.467 3.01345C429.112 3.57973 420.748 6.34289 420.748 6.34289C420.748 6.34289 429.087 4.76952 429.602 4.67371C447.306 1.38254 476.198 4.80722 476.198 4.80722L454.27 4.14965C454.27 4.14965 445.325 3.65983 434.507 5.80474C405.023 11.6512 392.028 23.824 374.98 61.569C371.201 69.9361 367.151 78.7428 365.978 81.1382L363.849 85.4939L367.709 83.3748C382.65 75.172 383.578 74.2181 403.964 46.1286C420.437 23.4292 448.925 8.59491 473.912 9.70427C479.618 9.95813 508.899 13.1576 508.899 13.1576L490.037 13.6873C490.037 13.6873 477.624 14.1294 475.079 14.8429C459.617 19.1797 448.19 27.605 435.015 44.3862C429.959 50.8254 426.181 56.0938 426.617 56.0938C429.126 56.0938 434.649 52.192 448.012 40.9799C463.9 27.6497 469.906 22.9723 487.727 19.0286C497.804 16.7987 514.288 17.3595 514.288 17.3595C514.288 17.3595 505.84 18.0345 501.007 18.3857C483.069 19.6896 465.943 27.1912 451.75 39.9611C444.337 46.6307 444.717 46.7761 454.329 40.9486C475.367 28.1954 491.192 26.373 519.467 28.7099C519.467 28.7099 536.275 29.1575 564.33 45.0679C570.33 48.4711 584.346 61.2771 584.346 61.2771C592.971 72.1256 594.22 79.0044 594.22 79.0044C594.22 79.0044 587.72 69.2657 582.422 63.7629C549.989 30.079 492.707 19.5219 454.996 43.3988C449.068 47.1523 446.182 49.1368 446.184 49.7764C449.351 49.0387 454.397 47.8578 456.4 47.3594C457.354 47.1221 458.183 46.9028 458.962 46.6968C460.873 46.1911 462.479 45.7663 464.869 45.3564C467.939 44.8297 469.694 44.7182 472.426 44.5445C473.259 44.4916 474.183 44.4329 475.262 44.3549C475.521 44.3361 475.786 44.3185 476.056 44.3018C481.561 43.4443 483.341 43.5096 485.716 43.5967C486.832 43.6376 488.08 43.6834 489.909 43.6403C503.978 43.3091 517.473 44.3997 525.857 45.8512C529.63 46.5045 548.431 52.1773 562.79 59.8211C593.575 76.209 592.815 82.668 592.815 82.668C592.815 82.668 578.905 70.5744 559.325 61.2771C547.689 55.7515 529.856 49.5867 524.567 48.6179C510.379 46.019 482.642 47.5086 487.819 49.3672C490.018 50.1567 498.039 54.0193 505.643 57.9502C517.138 63.8922 525.843 65.5828 535.982 67.5519C540.584 68.4455 545.481 69.3966 551.069 70.8285C554.744 71.7703 557.963 72.2553 561.018 72.7153C566.234 73.5011 570.968 74.2142 576.666 77.006C577.24 77.2875 577.771 77.5336 578.271 77.7658C580.074 78.6022 581.485 79.2571 583.15 80.7284C584.115 81.5816 585.372 83.1064 585.372 83.1064L591.054 92.0349C591.054 92.0349 583.235 84.7581 581.456 82.668C577.321 77.8079 543.522 70.4662 536.275 72.8549C526.478 76.0846 509.516 73.2843 485.262 64.4296C455.218 53.4635 452.53 52.7344 446.984 54.0462C438.315 56.096 419.456 62.8036 406.424 68.4734C393.021 74.3054 391.743 74.7169 393.141 72.7565C393.779 71.8629 393.295 71.8629 391.366 72.7565C389.909 73.433 388.242 73.971 387.665 73.9508C385.45 73.8759 392.33 70.2314 406.801 63.8123C422.827 56.7044 423.4 56.2302 436.749 39.0419C446.639 26.3077 452.579 19.4196 468.095 14.8429C474.728 12.8866 485.803 12.3519 485.803 12.3519C485.803 12.3519 473.756 12.0208 466.171 13.0196C436.077 16.9822 419.083 26.3424 402.186 51.6206C398.69 56.8486 393.59 64.0203 390.852 67.5564C388.112 71.0925 386.286 73.9866 386.794 73.9866C387.302 73.9866 381.084 77.8235 372.976 82.5137C364.869 87.205 355.913 92.5952 353.076 94.493C342.612 101.491 334.329 107.87 334.975 108.43C335.34 108.748 338.983 106.517 343.068 103.474C360.627 90.3944 387.347 74.8757 393.061 74.4384C417.395 72.5776 428.714 72.7129 448.401 75.1016C459.684 76.4704 471.994 77.3684 475.758 77.0977C479.522 76.8271 492.346 74.4384 492.346 74.4384C492.346 74.4384 479.867 77.9867 468.53 85.7266C466.966 86.7941 466.103 87.4126 464.648 88.5905C463.687 89.3693 463.009 90.0567 462.339 90.7358L462.339 90.736C461.607 91.4786 460.884 92.2113 459.811 93.0425C457.499 94.8342 455.183 95.9358 452.963 96.992C451.539 97.6695 450.154 98.3282 448.835 99.1384C439.002 105.176 432.092 105.886 405.479 103.596C367.934 100.364 352.315 102.399 336.049 112.119C348.677 110.152 368.93 108.594 372.862 109.165C375.653 109.57 378.29 110.407 380.931 111.246C383.259 111.985 385.589 112.725 388.031 113.171C396.134 114.65 408.432 109.165 408.432 109.165C408.432 109.165 396.436 117.268 388.031 116.175C386.134 115.929 383.853 115.465 381.296 114.945L381.296 114.945C376.56 113.983 370.878 112.828 364.935 112.503C349.329 111.65 323.287 120.955 323.287 120.955C317.226 125.577 309.285 130.695 306.283 132.531C307.634 132.24 312.04 131.293 315.537 130.543C315.806 130.485 316.09 130.423 316.389 130.358L316.59 130.314L316.608 130.31L316.614 130.308L316.635 130.304L316.637 130.303C322.524 129.015 334.15 126.471 356.241 126.32C358.918 126.302 361.334 126.296 363.549 126.29H363.552C377.894 126.255 383.783 126.241 397.195 123.033C406.184 120.884 419.444 115.519 419.444 115.519C419.444 116.459 414.431 123.379 391.806 128.861C385.041 130.5 376.459 130.308 368.791 130.137C366.482 130.085 364.256 130.036 362.187 130.038C348.663 130.055 333.534 130.425 328.569 130.861L319.54 131.654L331.793 132.559C338.533 133.057 348.69 134.171 354.366 135.036C365.921 136.797 386.277 137.135 389.599 135.622C393.415 133.884 406.493 128.448 417.936 123.693L417.938 123.691L417.94 123.691C427.809 119.589 436.461 115.993 436.899 115.713C436.239 116.33 416.682 134.589 402.199 143.884C399.037 146.499 387.957 150.56 383.723 151.228C383.322 151.291 382.93 151.363 382.519 151.439C378.579 152.162 372.824 153.218 340.177 150.119C317.627 147.063 310.394 146.485 299.218 146.847C290.021 147.146 286.317 147.752 283.187 149.472L279.118 151.709L298.684 151.739C313.74 151.762 321.519 152.345 332.438 154.27C360.909 159.287 386.032 153.899 386.032 153.899C386.032 153.899 389.84 153.132 391.806 151.896C393.235 150.997 394.937 149.068 394.937 149.068C394.937 156.745 361.234 161.607 335.663 156.819C311.674 152.327 284.098 152.195 273.75 156.523C270.557 157.857 269.173 158.692 270.675 158.377C275.252 157.415 295.984 159.92 312.649 163.449C329.339 166.983 335.191 166.152 342.857 165.063C346.105 164.602 349.678 164.095 354.539 163.854C363.034 163.432 376.234 162.105 376.234 162.105C376.234 162.105 364.619 166.344 350.233 168.254C339.726 169.649 326.875 169.224 320.279 167.86C290.559 161.709 269.079 159.163 261.433 162.637C257.935 164.225 257.985 164.253 265.911 165.03C270.319 165.462 283.027 168.06 294.153 170.804C338.894 181.838 358.432 175.688 374.555 167.86C376.902 166.842 381.566 162.727 384.849 159.83C386.951 157.976 388.487 156.62 388.487 156.897C369.785 184.295 337.741 183.732 299.576 173.906C266.566 165.407 257.23 164.848 245.161 170.647C244.512 170.959 243.908 171.245 243.35 171.509C240.507 172.855 238.902 173.616 238.965 174.193C239.047 174.942 241.932 175.384 248.56 176.4C249.561 176.554 250.647 176.72 251.822 176.903C265.292 178.998 279.824 183.405 294.997 189.999C306.486 194.993 314.894 194.313 326.174 193.401L326.174 193.401C330.692 193.036 335.67 192.634 341.491 192.544C341.491 192.544 335.618 194.461 319.54 200.026C304.446 205.25 285.843 204.645 265.366 198.265C227.976 186.615 213.286 183.901 201.854 186.533C197.754 187.476 197.927 187.593 211.286 192.838C235.278 202.257 254.904 207.235 273.702 207.586C277.674 207.66 279.861 207.57 279.861 207.57C279.861 207.57 273.948 209.036 272.547 209.255C260.116 211.209 238.931 205.071 215.387 196.336C196.033 189.155 192.948 188.499 186.816 190.252C173.892 193.95 200.936 211.916 224.885 215.54C238.401 217.586 238.556 217.236 226.088 212.816C208.81 206.691 198.342 199.504 195.722 191.968C194.969 189.8 194.996 189.797 196.619 191.86C209.126 207.771 238.813 219.18 256.38 214.597L264.849 212.26C264.849 212.26 261.2 214.341 257.441 215.396L251.177 217.155L262.924 216.934C264.602 216.822 271.392 217.155 271.392 217.155C245.574 223.091 228.942 218.975 219.378 216.608L219.377 216.608L219.371 216.606L219.37 216.606C218.536 216.4 217.756 216.206 217.028 216.035C202.614 212.63 185.975 202.971 182.314 195.883L180.2 191.79L171.358 193.557L162.518 195.323L169.442 200.987C182.5 211.669 202.237 218.711 223.788 220.375L235.699 221.295L224.582 221.448C211.363 221.632 194.585 219.277 182.892 215.597C178.238 214.132 174.431 213.086 174.431 213.27C174.431 213.455 179.501 217.46 185.699 222.171C205.476 237.203 219.576 242.391 244.728 243.895L258.916 244.744L246.547 244.915C220.218 245.281 205.774 239.635 177.01 217.738C171.69 213.686 164.434 208.877 160.887 207.05C157.34 205.223 152.987 202.893 151.213 201.875C149.44 200.855 150.601 202.044 153.793 204.515C156.985 206.988 163.37 213.636 167.981 219.29C184.775 239.882 189.67 244.777 198.634 249.944C217.376 260.747 246.547 262.669 251.689 261.995C256.832 261.321 260.158 259.658 260.158 259.658C260.158 259.658 257.848 261.938 255.154 263.731C252.459 265.523 246.805 267.265 239.058 269.012C204.011 276.913 184.689 265.72 165.033 233.711C158.58 223.203 148.217 210.663 140.793 203.39C140.729 203.294 140.667 203.199 140.605 203.107C140.575 203.061 140.545 203.017 140.515 202.973C138.654 200.217 135.512 196.447 134.387 195.116C137.453 194.858 140.485 194.551 143.474 194.195C208.084 186.496 243.282 174.026 290.391 142.143C297.772 137.148 305.87 132.619 305.87 132.619C305.87 132.619 312.097 126.444 326.027 115.697C330.973 111.883 334.437 108.747 333.728 108.729C333.019 108.711 325.183 114.213 316.315 120.955C307.447 127.698 297.568 133.846 297.568 133.846L297.111 133.485C296.166 133.212 296.507 132.024 298.084 130.085C303.362 123.602 308.866 112.368 317.695 90.051C330.836 56.8363 337.226 46.5557 354.96 30.0921C367.713 18.2526 379.453 7.99379 400.149 4.08926C405.004 3.17338 405.765 3.12502 405.88 3.12781ZM436.899 115.713L436.916 115.697L436.917 115.698L436.917 115.699L436.916 115.699C436.916 115.7 436.915 115.702 436.913 115.703C436.91 115.706 436.906 115.709 436.899 115.713ZM188.631 131.805C188.631 131.805 183.019 150.54 179.429 158.978C174.76 169.955 165.507 181.201 158.595 184.299C154.599 186.091 154.607 186.07 159.867 180.889C168.451 172.434 182.189 145.663 182.755 144.036C183.322 142.409 188.631 131.805 188.631 131.805ZM465.303 49.7624L464.003 49.9688C457.944 50.9317 453.621 52.6494 457.117 52.7053C458.296 52.7232 466.132 55.3098 474.53 58.4512C505.748 70.1285 528.915 74.1118 535.708 71.5733C536.269 71.2377 538.924 70.7734 538.924 70.7734C538.924 70.7734 530.84 69.4381 529.3 69.4381C529.3 69.4381 527.376 69.1043 523.911 68.1028C523.911 68.1028 523.724 68.2307 519.467 66.5577C515.211 64.8836 508.616 61.7927 504.811 59.6891C498.908 56.4248 493.114 53.7084 488.078 51.7752C488 51.935 487.498 51.866 486.187 51.4114C482.338 50.076 474.805 49.6962 467.564 49.6962C466.789 49.6962 466.034 49.7199 465.303 49.7624ZM393.647 3.68891C393.647 3.68891 389.056 5.48938 385.738 7.1769C382.419 8.86331 379.327 10.2433 378.868 10.2433C376.821 10.2433 362.536 20.799 353.598 28.9167C335.225 45.6018 328.43 56.3979 315.115 90.051C302.196 122.704 295.304 133.856 280.953 143.719C286.155 137.359 295.486 125.165 300.609 113.71C304.374 105.294 306.239 95.784 308.11 86.2404C310.322 74.9602 312.543 63.6328 317.922 54.0081C327.851 36.2404 342.222 23.3679 342.222 23.3679C329.52 31.7138 322.544 37.4455 315.237 49.2858C308.838 59.6543 306.709 71.0017 304.565 82.4286C303.071 90.3927 301.569 98.3955 298.61 106.132C292.774 121.391 283.239 138.052 279.152 144.925C278.774 145.172 278.39 145.419 278.001 145.666C266.987 152.663 266.212 152.878 268.987 148.178C273.495 140.546 279.171 123.223 284.136 101.944C299.135 37.6551 328.322 8.75148 381.393 4.24807C385.374 3.91 389.363 3.81235 391.696 3.75524C392.689 3.73092 393.382 3.71395 393.647 3.68891ZM396.712 21.7059C387.089 30.536 382.797 37.6786 367.309 70.6317C359.88 86.4367 357.722 89.2817 348.274 95.7175C343.821 98.7514 338.217 102.777 335.82 104.664C333.424 106.552 331.682 107.592 331.951 106.977C333.849 102.619 336.099 99.3361 338.082 96.4418L338.082 96.4412C339.032 95.0542 339.921 93.7565 340.681 92.4726C343.228 88.1712 345.511 84.7313 347.937 81.0776C352.528 74.1623 357.627 66.4811 365.978 50.7431C379.507 25.2459 404.966 14.0211 404.966 14.0211C404.966 14.0211 398.95 19.6517 396.712 21.7059ZM296.292 26.6052C276.12 44.8727 269.558 57.5319 265.354 86.288C261.531 112.439 246.859 158.403 243.314 155.33C243.011 155.066 243.993 152.439 245.497 149.491C250.352 139.973 254.211 125.346 257.585 103.662C265.011 55.9428 276.454 32.8152 298.198 21.5751C300.967 20.1435 308.347 17.0256 308.347 17.0256C308.347 17.0256 300.968 22.3716 296.292 26.6052ZM241.757 60.8466C241.231 61.9214 240.751 62.884 240.292 63.8024L240.292 63.8028L240.291 63.8037C239.11 66.17 238.075 68.2437 236.784 71.1908C231.481 83.2975 229.324 95.2701 227.44 105.734L227.44 105.734L227.44 105.734C226.403 111.488 225.449 116.786 224.099 121.398C217.926 142.499 205.937 162.939 193.189 174.097C188.902 177.85 186.949 179.38 188.85 177.497C202.54 163.935 211.941 145.164 219.022 117.241C224.838 94.3084 227.952 85.1227 232.641 77.062C235.193 72.6747 237.903 64.0966 237.903 64.0966C237.903 64.0966 234.024 72.5306 232.109 75.3845C226.976 83.0337 222.804 94.4136 217.111 116.307C207.046 155.007 189.964 181.544 173.141 184.617L167.336 185.677L171.206 183.326C191.287 171.127 202.39 152.646 214.258 111.668C222.789 82.214 229.055 68.8693 238.907 59.1691C242.342 55.7876 247.142 52.0785 247.142 52.0785C247.142 52.0785 243.809 56.6558 241.757 60.8466ZM444.987 76.6795C451.898 77.5462 460.925 78.5918 465.044 79.0044C469.601 79.4607 474.254 80.0608 474.254 80.0608C474.254 80.0608 468.86 83.5158 465.401 85.7266C463.309 87.0631 461.548 88.5477 459.883 89.9519C456.796 92.554 454.037 94.8801 450.109 95.4771C444.061 96.3963 433.119 96.6669 405.893 92.4431C395.998 90.9088 384.129 89.6183 379.518 89.5769C372.535 89.5143 371.673 89.3107 374.358 88.3646C381.414 85.8798 395.992 85.9323 416.61 88.5201C437.496 91.1403 453.396 89.8021 457.63 87.7991C461.865 85.7961 461.495 83.9529 461.495 83.9529C461.495 83.9529 460.685 84.7103 453.596 84.6083C448.675 84.5375 445.626 83.5873 442.086 82.4841C440.526 81.9978 438.87 81.4818 436.916 80.9984C430.532 79.4193 420.084 77.507 413.699 76.7499L402.09 75.3733L417.255 75.2391C425.595 75.1653 438.075 75.8139 444.987 76.6795ZM436.272 82.8335C443.72 84.7257 450.976 86.2846 452.395 86.298C453.621 86.3096 455.321 86.4637 455.321 86.4637C455.321 86.4637 454.622 87.0713 453.011 87.4652C451.543 88.0728 432.447 88.6655 413.504 86.1851C396.468 83.954 381.702 83.7841 375.003 85.7422C372.883 86.3617 372.998 86.0788 375.648 84.1531C385.111 77.2789 412.092 76.6918 436.272 82.8335ZM405.315 94.7803C411.345 95.7577 423.244 96.9163 431.757 97.3547L447.235 98.1509L442.076 100.2C434.248 103.307 427.938 103.517 405.921 101.4C392.869 100.144 379.446 99.6092 367.899 99.8843C348.547 100.345 347.27 99.069 362.75 94.7423C374.264 91.5238 385.282 91.5339 405.315 94.7803ZM594.22 94.2715C594.091 95.8092 593.575 100.981 593.575 100.981C594.472 100.259 597.075 96.3782 595.509 92.0349C594.401 88.9598 593.902 87.8005 593.725 87.7622C593.725 87.7622 594.22 91.7028 594.22 94.2715ZM114.393 133.971C114.393 133.971 115.568 134.274 113.84 138.216C113.147 139.794 111.953 141.085 111.184 141.085L107.025 139.877C107.025 139.877 101.863 138.639 103.42 135.09C104.865 131.797 114.393 133.971 114.393 133.971ZM350.935 136.619C360.398 137.845 370.266 138.894 372.862 138.949L377.583 139.05L373.069 140.201C370.116 140.955 361.638 141.035 348.561 140.432C337.565 139.924 321.497 139.487 312.855 139.459C296.619 139.405 295.493 138.686 307.286 135.898C315.921 133.856 331.613 134.116 350.935 136.619ZM121.988 136.735C124.847 137.864 124.347 142.882 122.168 146.486C121.124 147.455 115.097 142.819 115.097 141.048C115.097 135.802 116.85 134.705 121.988 136.735ZM408.48 131.011C408.48 131.011 408.743 133.201 400.275 140.201C391.036 145.553 366.857 151.562 329.858 146.659C321.345 145.439 308.866 144.39 302.126 144.329L289.873 144.218L295.677 142.562C300.41 141.212 305.292 141.07 322.119 141.795C358.552 143.364 372.604 142.997 382.098 140.227C399.081 135.273 408.48 131.011 408.48 131.011ZM133.252 142.971C146.485 153.336 150.21 171.504 141.332 182.378C136.301 188.541 131.765 191.527 133.753 187.367C138.418 177.603 136.423 164.416 128.695 153.943C123.889 143.497 124.326 135.98 133.252 142.971ZM111.377 142.842C111.825 143.082 111.403 146.182 110.44 149.73C109.476 153.279 108.679 159.615 108.669 163.812C108.651 170.473 108.36 171.395 106.391 171.066C102.333 170.389 100.461 162.094 100.794 146.273L100.909 140.835L105.736 141.621C108.391 142.053 110.93 142.602 111.377 142.842ZM117.712 146.305C119.466 147.332 121.059 148.265 121.253 148.381C121.446 148.496 120.729 151.807 119.66 155.74C118.59 159.673 117.707 165.534 117.696 168.763C117.676 175.06 117.524 175.24 113.722 173.476C111.03 172.227 110.245 161.036 112.048 149.629C112.965 143.826 113.219 143.677 117.712 146.305ZM131.338 162.892C134.541 170.166 134.502 181.554 131.255 186.929L128.895 190.835L127.124 186.402C126.151 183.964 123.973 180.696 122.283 179.141C119.136 176.241 119.132 166.428 122.275 153.624L123.178 149.948L126.028 153.624C127.595 155.646 129.985 159.816 131.338 162.892ZM240.042 161.241C238.437 163.716 236.063 166.573 234.766 167.591C233.47 168.608 234.579 166.583 237.231 163.091C242.85 155.694 244.222 154.791 240.042 161.241ZM111.036 178.991C111.888 181.46 114.161 185.138 116.085 187.164C118.01 189.191 118.526 190.124 117.232 189.237C111.439 185.263 102.519 171.27 107.149 173.418C108.434 174.014 110.182 176.522 111.036 178.991ZM115.804 176.608C116.547 177.059 117.29 179.191 117.454 181.344C117.73 184.989 117.628 185.105 115.952 183.021C112.073 178.193 111.981 174.285 115.804 176.608ZM122.851 182.742C125.891 187.066 126.16 190.29 123.481 190.29C122.417 190.29 121.521 189.912 121.49 189.451C121.459 188.991 120.957 186.474 120.374 183.86C119.1 178.153 119.497 177.973 122.851 182.742ZM269.311 183.086C275.028 184.514 285.185 188.026 291.884 190.89L304.061 196.095L296.967 195.629C292.206 195.315 285.842 193.567 277.619 190.312C270.88 187.645 261.302 184.016 256.337 182.247C245.178 178.273 251.747 178.698 269.311 183.086ZM246.069 181.949C250.297 182.897 261.883 186.731 271.815 190.469C288.6 196.786 290.676 197.295 301.278 197.693C316.717 198.274 318.898 199.597 307.361 201.384C292.731 203.651 283.282 202.038 252.539 192.025C242.567 188.777 230.408 185.202 225.519 184.081C218.898 182.564 217.251 181.831 219.07 181.213C223.336 179.761 238.107 180.164 246.069 181.949ZM171.949 206.066C174.378 207.669 179.268 210.326 182.815 211.97C191.374 215.936 185.198 214.553 173.733 209.936C162.982 205.606 150.619 198.174 152.101 196.932C155.257 194.286 160.923 195.365 164.21 199.237C166.038 201.389 169.52 204.462 171.949 206.066ZM154.15 208.007C157.693 210.871 165.277 219.003 171.002 226.076C190.684 250.387 204.233 258.474 235.699 264.693L239.568 265.457L236.349 266.522C230.049 268.603 210.525 267.829 202.155 265.166C185.041 259.722 181.486 256.035 159.005 220.408C153.615 211.866 144.847 202.721 138.96 199.504C137.541 198.729 138.929 199.153 142.045 200.447C145.161 201.74 150.608 205.142 154.15 208.007ZM123.775 208.779L123.863 218.323L119.181 221.08C112.751 224.869 112.629 224.762 114.375 216.85C115.994 209.517 121.273 199.237 123.419 199.237C123.566 199.237 123.726 203.531 123.775 208.779ZM127.641 208.442C127.354 210.452 127.112 209.078 127.106 205.387C127.098 201.697 127.333 200.052 127.628 201.733C127.922 203.413 127.928 206.433 127.641 208.442ZM136.286 217.689C136.388 223.776 133.434 234.186 131.846 233.335C128.94 231.777 126.483 217.392 128.536 213.95C129.657 212.069 130.625 208.618 130.684 206.282L130.794 202.032L133.492 207.065C135.019 209.912 136.232 214.525 136.286 217.689ZM129.186 233.139C130.852 236.912 126.822 242.342 119.407 246.316C113.578 249.438 113.231 248.945 112.777 236.888L112.391 226.635L118.57 223.182L124.749 219.727L126.273 224.859C127.11 227.681 128.422 231.407 129.186 233.139ZM478.309 68.0366C478.309 68.0366 464.965 68.4613 456.56 67.3689C453.741 67.0025 451.614 66.5063 449.46 66.0038C447.481 65.542 445.478 65.0748 442.895 64.6982C436.59 63.7792 426.701 63.2647 426.195 63.2388C426.273 63.2388 426.547 63.2194 426.98 63.1889C429.637 63.0012 438.278 62.3911 444.109 63.2378C447.339 63.7067 449.58 64.1704 452.039 64.6791C453.578 64.9975 455.203 65.3336 457.209 65.6997C465.312 67.1786 478.309 68.0366 478.309 68.0366Z" fill="#3A7E7F"/>
</svg>