<svg xmlns="http://www.w3.org/2000/svg" width="496" height="229" viewBox="0 0 496 229" fill="none">
  <path opacity="0.5" fill-rule="evenodd" clip-rule="evenodd" d="M160.015 2.63253L164.413 2.20497C164.413 2.20497 190.424 1.84543 203.756 6.39625C237.92 18.058 253.773 38.8685 265.682 87.6841C271.843 112.941 279.134 129.415 285.834 133.221C289.143 135.101 289.216 134.84 286.505 130.799C281.17 122.845 275.278 104.889 271.263 80.9318C263.487 48.6086 260.982 42.3666 248.908 27.2545C245.488 24.1027 238.54 17.9824 238.54 17.9824C238.54 17.9824 241.263 19.0342 241.419 19.1056C256.277 25.9238 267.068 44.5506 274 80.9318C279.225 108.351 285.598 126.204 293.265 134.899C297.599 139.813 299.904 140.13 296.14 135.295C287.751 124.519 280.588 102.694 276.648 75.9188C272.585 48.3042 268.523 39.7645 252.416 24.9873C247.146 20.1532 225.581 4.49559 225.581 4.49559C225.581 4.49559 246.64 12.0819 257.979 19.1056C272.07 30.5066 280.8 50.8625 286.449 83.8176C292.057 116.535 299.136 133.965 310.472 142.965C313.081 145.037 337.913 152.699 341.548 152.554C342.806 152.504 342.946 152.317 341.979 151.982C338.972 150.94 327.814 137.46 322.566 128.528C314.31 114.476 311.753 107.266 305.914 81.5661C299.662 54.0466 294.841 44.2372 282.67 34.2697C280.501 32.2827 277.002 28.387 277.002 28.387C277.002 28.387 292.101 39.1459 300.549 47.8129C314.009 61.6225 314.635 63.8224 321.241 87.0412C321.833 89.1217 322.473 91.3709 323.175 93.8124C333.412 129.437 342.392 143.766 361.005 154.176C368.648 158.451 369.12 158.148 362.661 153.112C353.027 145.603 346.452 136.236 337.856 106.017L337.395 104.398C332.263 86.3364 329.859 77.8749 321.542 69.4027C319.271 67.0897 312.409 55.6329 312.409 55.6329C312.409 55.6329 321.553 65.1652 324.072 67.1529C330.658 72.3494 341.986 100.351 342.863 110.934C342.863 110.934 345.544 114.955 346.103 113.744C347.336 111.075 341.646 90.2932 338.458 84.035C337.996 83.128 337.256 81.737 336.439 80.2033C334.365 76.3072 331.8 71.4899 332.067 71.3435C332.176 71.2839 333.925 73.9011 335.486 76.2377L335.487 76.2386C336.571 77.8608 337.564 79.3475 337.856 79.7091C340.266 82.7003 342.584 89.4997 345.596 102.417C352.343 131.342 367.639 157.069 378.948 158.508L382.462 158.955L379.846 157.449C371.151 152.444 362.721 137.538 360.034 115.761C356.309 85.5801 350.77 69.3792 333.696 60.5194L329.353 57.6958C345.803 61.6019 358.778 80.4931 362.997 107.199C366.926 132.069 367.814 135.758 371.512 142.572C376.649 152.037 379.392 154.834 376.299 147.452C371.382 135.712 373.999 110.229 380.989 101.802C381.405 101.302 382.713 99.7459 382.713 99.7459C382.713 99.7459 381.721 101.434 381.367 102.273C377.64 111.12 376.341 117.401 375.917 128.627C375.484 140.107 375.544 140.572 376.886 136.157C379.036 129.084 382.255 124.345 388.17 119.548L393.506 115.222C393.506 115.222 392.088 112.196 391.014 110.325C388.631 106.178 383.685 100.308 383.685 100.308C383.685 100.308 389.921 105.771 391.909 108.895L395.526 114.575L398.964 113.13L402.403 111.685L400.325 107.995C398.931 105.519 396.968 103.399 396.968 103.399C396.968 103.399 399.991 104.891 401.408 107.301C403.545 110.931 403.825 111.075 407.727 110.553C407.997 110.517 408.253 110.483 408.495 110.451C410.789 110.149 411.791 110.017 412.033 109.517C412.221 109.129 411.95 108.52 411.47 107.438C411.404 107.291 411.335 107.135 411.263 106.97C410.722 105.736 409.603 104.522 409.603 104.522C409.603 104.522 411.094 105.053 411.775 105.543C412.69 106.201 413.438 108.143 413.438 108.143C413.438 108.143 414.39 109.423 418.331 108.91C422.195 108.408 424.344 108.992 425.43 109.934C421.921 108.353 415.481 111.058 416.319 113.837C416.89 115.726 418.381 115.605 421.507 115.35L421.508 115.35L421.508 115.35C422.119 115.3 422.793 115.246 423.535 115.2C429.366 115.2 430.338 116.875 430.338 116.875C430.338 116.875 425.155 116.323 424.183 116.604C423.912 116.649 423.653 116.689 423.406 116.728C418.93 117.429 418.323 117.524 418.323 127.027C418.323 132.049 417.923 137.799 417.434 139.805C416.567 143.364 416.611 143.438 419.265 142.861C422.515 142.154 432.433 143.837 436.236 145.742C438.026 146.639 438.212 146.896 436.779 146.5C423.097 142.715 416.521 143.602 412.948 149.714C411.493 152.205 408.953 155.632 407.304 157.33L404.308 160.418L424.343 159.919C455.541 159.143 476.21 154.891 500.765 144.199C509.107 140.567 514.25 139.032 514.25 139.032C514.25 139.032 512.338 141.543 508.479 144.707C491 159.037 436.048 171.539 406.15 167.986C403.326 167.649 401.406 167.762 401.677 168.249C405.951 175.937 407.044 178.755 407.626 183.58C408.436 190.305 413.167 191.625 417.379 191.865C421.383 191.859 427.423 190.22 427.423 190.22C427.423 190.22 424.445 191.728 423.859 191.865C423.517 191.945 423.153 192.037 422.769 192.134L422.768 192.134C420.804 192.63 418.33 193.255 415.759 193.029C415.759 193.029 413.545 192.835 412.195 192.468C411.025 192.148 409.317 191.375 409.317 191.375L408.538 200.821C407.917 208.342 408.06 210.434 409.241 211.082C409.787 211.382 414.219 211.082 414.219 211.082C414.219 211.082 413.815 212.136 408.824 211.911C407.607 211.92 406.895 212.687 406.842 214.043C406.796 215.209 406.059 217.644 405.204 219.455C404.565 220.808 402.152 222.532 402.152 222.532C402.152 222.532 404.311 219.451 405.299 214.715C405.964 211.527 405.764 211.259 400.524 208.316C397.517 206.626 394.111 204.202 392.956 202.929L390.857 200.616L387.361 206.035C382.391 213.738 374.17 222.249 368.218 225.853C365.538 227.475 361.33 228.151 361.33 228.151C361.33 228.151 365.209 226.368 367.789 224.453L372.468 220.98L371.796 214.089C370.628 202.106 374.782 185.17 381.041 176.389C381.167 176.212 381.289 176.045 381.406 175.887L380.445 175.609C380.445 175.609 381.928 173.01 383.127 171.184C376.878 177.305 368.156 187.859 362.725 196.703C346.181 223.644 329.919 233.065 300.422 226.415C293.901 224.945 289.142 223.479 286.874 221.97C284.606 220.461 282.663 218.542 282.663 218.542C282.663 218.542 285.462 219.942 289.79 220.509C294.119 221.076 318.67 219.458 334.445 210.366C341.989 206.018 346.108 201.898 360.243 184.566C364.124 179.807 369.498 174.212 372.185 172.131C374.872 170.051 375.849 169.05 374.356 169.908C372.863 170.766 369.199 172.726 366.214 174.264C363.229 175.802 357.122 179.85 352.644 183.26C328.435 201.69 316.278 206.441 294.119 206.133L283.708 205.989L295.649 205.275C316.819 204.009 328.686 199.643 345.331 186.991C350.548 183.026 354.815 179.655 354.815 179.5C354.815 179.344 351.61 180.225 347.694 181.458C337.852 184.555 323.731 186.537 312.605 186.383L303.249 186.254L313.273 185.479C331.411 184.079 348.024 178.152 359.014 169.161L364.842 164.394L357.401 162.908L349.959 161.42L348.18 164.865C345.099 170.831 331.095 178.961 318.963 181.826C318.348 181.971 317.689 182.134 316.985 182.309C308.935 184.301 294.937 187.765 273.207 182.769C273.207 182.769 278.922 182.489 280.335 182.583L290.221 182.769L284.95 181.289C281.786 180.4 278.715 178.649 278.715 178.649L285.842 180.616C300.627 184.473 325.613 174.872 336.14 161.48C337.506 159.743 337.529 159.746 336.895 161.57C334.69 167.913 325.879 173.962 311.337 179.117C300.844 182.837 300.974 183.132 312.35 181.41C332.507 178.36 355.269 163.239 344.391 160.126C339.23 158.65 336.633 159.203 320.344 165.247C300.528 172.598 282.698 177.765 272.235 176.12C271.056 175.936 266.079 174.702 266.079 174.702C266.079 174.702 267.92 174.778 271.263 174.716C287.085 174.42 303.602 170.23 323.796 162.302C335.04 157.888 335.185 157.79 331.734 156.996C322.112 154.781 309.748 157.065 278.28 166.87C261.044 172.24 245.388 172.749 232.684 168.353C219.152 163.669 214.208 162.055 214.208 162.055C219.108 162.131 223.298 162.469 227.1 162.777C236.594 163.544 243.67 164.116 253.34 159.914C266.111 154.363 278.341 150.654 289.678 148.891C290.667 148.737 291.582 148.597 292.424 148.468L292.425 148.468C298.002 147.613 300.431 147.241 300.5 146.61C300.553 146.124 299.202 145.484 296.809 144.351L296.806 144.35L296.795 144.345C296.33 144.125 295.826 143.886 295.285 143.626C285.126 138.744 277.269 139.215 249.486 146.368C217.365 154.639 190.395 155.112 174.654 132.052C174.654 131.82 175.946 132.961 177.716 134.522L177.716 134.522C180.479 136.96 184.404 140.423 186.379 141.28C199.95 147.868 216.394 153.044 254.051 143.757C263.414 141.449 274.111 139.261 277.82 138.898C284.491 138.244 284.534 138.22 281.59 136.884C275.154 133.96 257.076 136.103 232.061 141.28C226.51 142.428 215.694 142.785 206.851 141.611C194.743 140.004 184.967 136.437 184.967 136.437C184.967 136.437 196.077 137.553 203.227 137.908C207.318 138.111 210.325 138.538 213.058 138.926C219.51 139.842 224.436 140.541 238.483 137.567C252.509 134.597 269.958 132.489 273.811 133.299C275.075 133.564 273.91 132.861 271.223 131.738C262.513 128.095 239.304 128.207 219.114 131.987C197.591 136.017 169.225 131.925 169.225 125.464C169.225 125.464 170.658 127.087 171.86 127.843C173.515 128.884 176.72 129.529 176.72 129.529C176.72 129.529 197.865 134.065 221.828 129.841C231.017 128.222 237.565 127.731 250.237 127.711L266.705 127.686L263.28 125.804C260.646 124.356 257.528 123.846 249.788 123.595C240.381 123.29 234.294 123.776 215.314 126.349C187.837 128.956 182.993 128.067 179.677 127.459C179.331 127.395 179.001 127.335 178.664 127.281C175.1 126.72 165.775 123.302 163.113 121.1C150.923 113.277 134.462 97.9091 133.908 97.3903C133.904 97.3881 133.901 97.3862 133.899 97.3845C133.897 97.3827 133.895 97.3813 133.894 97.3801L133.893 97.3787C133.893 97.3779 133.893 97.3773 133.893 97.3768L133.908 97.3903C134.277 97.626 141.558 100.652 149.865 104.105L149.866 104.105L149.869 104.107C159.499 108.109 170.506 112.684 173.718 114.147C176.514 115.42 193.646 115.136 203.372 113.653C208.149 112.926 216.698 111.987 222.371 111.569L232.684 110.807L225.085 110.14C220.905 109.773 208.172 109.461 196.789 109.447C195.048 109.445 193.175 109.487 191.231 109.53C184.777 109.675 177.555 109.836 171.86 108.456C152.818 103.842 148.599 98.0179 148.599 97.2272C148.599 97.2272 159.759 101.742 167.325 103.551C178.613 106.251 183.569 106.263 195.64 106.293H195.642C197.507 106.297 199.541 106.302 201.794 106.317C220.387 106.444 230.172 108.586 235.127 109.67C235.456 109.742 235.764 109.81 236.052 109.872C238.995 110.503 242.704 111.3 243.842 111.545C241.314 110 234.631 105.693 229.529 101.802C229.529 101.802 207.611 93.9706 194.477 94.6885C189.475 94.9618 184.692 95.934 180.706 96.7441C178.554 97.1815 176.634 97.5717 175.038 97.7792C167.964 98.6986 157.867 91.8787 157.867 91.8787C157.867 91.8787 168.218 96.4952 175.038 95.2504C177.093 94.8754 179.054 94.2524 181.014 93.6303C183.236 92.9245 185.456 92.2198 187.805 91.8787C191.114 91.3982 208.16 92.7096 218.789 94.3652C205.099 86.1841 191.952 84.4719 160.353 87.1918C137.953 89.1195 132.138 88.5218 123.862 83.4401C122.752 82.7582 121.586 82.2038 120.388 81.6336C118.519 80.7447 116.57 79.8175 114.624 78.3095C113.721 77.61 113.113 76.9934 112.496 76.3684L112.496 76.3681L112.496 76.3679C111.932 75.7964 111.362 75.2179 110.553 74.5625C109.328 73.5711 108.602 73.0505 107.286 72.152C97.7437 65.6377 87.2407 62.6513 87.2407 62.6513C87.2407 62.6513 98.0343 64.6618 101.202 64.8895C104.37 65.1173 114.731 64.3615 124.227 63.2095C140.797 61.199 150.324 61.0851 170.804 62.6513C175.613 63.0193 198.103 76.0807 212.881 87.0892C216.319 89.6503 219.385 91.5281 219.692 91.2608C220.236 90.7892 213.264 85.4205 204.458 79.5303C202.07 77.933 194.532 73.3963 187.709 69.4479C180.885 65.5004 175.651 62.2711 176.079 62.2711C176.507 62.2711 174.969 59.8352 172.664 56.8591C170.359 53.8829 166.066 47.8468 163.124 43.4466C148.903 22.1712 134.6 14.2931 109.271 10.958C102.887 10.1173 92.748 10.396 92.748 10.396C92.748 10.396 102.069 10.846 107.651 12.4926C120.71 16.3446 125.71 22.142 134.034 32.8597C145.269 47.3263 145.751 47.7254 159.24 53.7078C171.419 59.1105 177.21 62.1779 175.346 62.241C174.86 62.2579 173.457 61.8051 172.23 61.2357C170.607 60.4837 170.2 60.4837 170.737 61.2357C171.913 62.8857 170.838 62.5393 159.557 57.6309C148.589 52.8589 132.716 47.2134 125.42 45.4881C120.752 44.3841 118.489 44.9977 93.2034 54.2274C72.7896 61.68 58.5138 64.0368 50.2675 61.3186C44.1685 59.3081 15.7211 65.4872 12.2407 69.5778C10.7436 71.3369 4.16263 77.4615 4.16263 77.4615L8.94473 69.9467C8.94473 69.9467 10.0027 68.6634 10.8152 67.9453C12.2164 66.7069 13.4044 66.1558 14.9216 65.4518C15.3427 65.2564 15.7892 65.0493 16.2726 64.8124C21.068 62.4626 25.0528 61.8624 29.443 61.2011C32.0138 60.8139 34.7236 60.4057 37.8166 59.613C42.5193 58.4078 46.641 57.6074 50.5141 56.8552C59.0478 55.1979 66.3745 53.7751 76.0496 48.7739C82.4493 45.4655 89.1997 42.2145 91.0506 41.55C95.4083 39.9857 72.0633 38.732 60.1216 40.9194C55.67 41.7348 40.6615 46.9234 30.8673 51.5741C14.3879 59.3991 2.68079 69.5778 2.68079 69.5778C2.68079 69.5778 2.04132 64.1415 27.9514 50.3486C40.0366 43.9152 55.8603 39.1406 59.0359 38.5908C66.0924 37.3691 77.4509 36.4512 89.2919 36.73C90.8309 36.7663 91.8813 36.7277 92.8211 36.6933C94.8198 36.6199 96.318 36.565 100.951 37.2867C101.178 37.3008 101.401 37.3156 101.619 37.3314C102.527 37.397 103.305 37.4464 104.005 37.491L104.006 37.491C106.305 37.6372 107.783 37.7311 110.367 38.1743C112.378 38.5193 113.73 38.8769 115.339 39.3025C115.994 39.4758 116.692 39.6605 117.494 39.8602C119.18 40.2797 123.428 41.2736 126.093 41.8944C126.095 41.3561 123.666 39.6859 118.676 36.5267C86.9372 16.4307 38.7253 25.3161 11.4283 53.6662C6.96893 58.2977 1.49854 66.4943 1.49854 66.4943C1.49854 66.4943 2.54901 60.7047 9.80841 51.5741C9.80841 51.5741 21.6049 40.7958 26.6555 37.9315C50.2675 24.5405 64.4141 24.1638 64.4141 24.1638C88.2123 22.197 101.531 23.7308 119.237 34.4645C127.327 39.3692 127.648 39.2469 121.409 33.6334C109.463 22.8856 95.0489 16.5718 79.9513 15.4743C75.8835 15.1788 68.7733 14.6106 68.7733 14.6106C68.7733 14.6106 82.6469 14.1387 91.1281 16.0155C106.127 19.3347 111.182 23.2715 124.555 34.4909C135.802 43.9276 140.45 47.2115 142.562 47.2115C142.929 47.2115 139.749 42.7774 135.493 37.3578C124.405 23.2338 114.788 16.1426 101.773 12.4926C99.6313 11.892 89.1842 11.5199 89.1842 11.5199L73.3091 11.0741C73.3091 11.0741 97.9529 8.38129 102.756 8.16763C123.786 7.23394 147.763 19.7193 161.627 38.8242C178.785 62.4659 179.567 63.2688 192.142 70.1727L195.391 71.9563L193.599 68.2902C192.612 66.2741 189.203 58.862 186.022 51.8197C171.674 20.0515 160.736 9.8063 135.921 4.88558C126.816 3.08031 119.287 3.49257 119.287 3.49257L100.832 4.04601C100.832 4.04601 125.148 1.16362 140.05 3.93364C140.483 4.01429 147.501 5.33851 147.501 5.33851C147.501 5.33851 140.462 3.01289 139.321 2.53628C137.53 1.78801 129.358 0 129.358 0C129.358 0 138.375 1.28707 143.937 2.80974C150.1 4.49694 153.512 5.71226 159.165 8.42923C161.162 9.38952 162.894 10.1723 164.462 10.8814C170.004 13.387 173.515 14.9744 179.576 20.2302C190.844 30.0024 193.354 34.3997 203.771 52.6487L203.772 52.6509C205.858 56.304 208.26 60.5123 211.113 65.4298C227.171 93.1122 228.822 95.26 240.406 103.551C246.094 107.622 251.56 112.348 251.56 112.348C252.356 112.118 252.07 111.119 250.742 109.487C246.3 104.03 241.667 94.5748 234.236 75.7917C223.176 47.8364 217.798 39.1838 202.872 25.3271C192.138 15.3623 182.257 6.728 164.839 3.44174C160.753 2.67089 160.112 2.63018 160.015 2.63253ZM251.56 112.348L251.176 112.652C251.205 112.502 251.331 112.399 251.56 112.348ZM251.176 112.652C251.176 112.652 242.861 107.477 235.398 101.802C227.934 96.1278 221.339 91.497 220.742 91.5121C220.145 91.5271 223.061 94.1663 227.223 97.3768C238.948 106.422 244.189 111.619 244.189 111.619C244.189 111.619 251.005 115.431 257.216 119.635C296.866 146.469 326.49 156.965 380.87 163.445C383.386 163.745 385.938 164.003 388.518 164.22C388.739 163.958 388.868 163.808 388.868 163.808H391.46C391.46 163.808 391.253 164.031 390.91 164.41C435.181 167.693 486.867 159.291 505.715 145.114C507.072 144.093 508.418 142.735 508.418 142.735C508.418 142.735 505.475 144.082 500.287 146.428C447.655 170.22 360.868 168.05 299.641 141.411C281.996 133.734 250.644 115.38 251.176 112.652ZM342.863 110.934C342.863 110.934 347.587 126.702 350.608 133.804C354.538 143.043 362.325 152.508 368.143 155.116C371.506 156.624 371.5 156.606 367.073 152.245C359.848 145.13 348.285 122.598 347.809 121.228C347.332 119.859 342.863 110.934 342.863 110.934ZM384.656 172.238C384.295 172.903 383.991 173.46 383.734 173.924C384.013 174.644 382.885 177.836 380.444 182.524C375.523 191.972 373.302 200.238 373.303 209.102C373.304 220.263 374.733 220.405 382.725 210.043C389.716 200.979 389.943 200.229 387.44 194.429C384.209 186.942 384.402 177.862 387.922 171.847C389.412 169.301 390.634 167.104 390.636 166.964C390.652 166.083 390.146 165.9 389.25 166.278C387.591 168.181 385.472 170.734 384.656 172.238ZM110.002 41.8827L111.095 42.0564C116.196 42.8668 119.833 44.3125 116.891 44.3596C115.899 44.3747 109.304 46.5517 102.236 49.1956C75.9606 59.0239 56.4619 62.3764 50.7451 60.2399C50.2731 59.9574 48.0384 59.5667 48.0384 59.5667C48.0384 59.5667 54.842 58.4428 56.138 58.4428C56.138 58.4428 57.7579 58.1618 60.6737 57.3189C60.6737 57.3189 60.8315 57.4266 64.4141 56.0185C67.9966 54.6095 73.5473 52.008 76.7498 50.2375C81.7174 47.4901 86.5942 45.2038 90.8329 43.5767C90.899 43.7113 91.3212 43.6532 92.4243 43.2705C95.6641 42.1466 102.005 41.827 108.099 41.827C108.751 41.827 109.386 41.8469 110.002 41.8827ZM170.311 3.10478C170.311 3.10478 174.175 4.62016 176.968 6.04046C179.761 7.45983 182.364 8.6213 182.75 8.6213C184.473 8.6213 196.496 17.5055 204.018 24.3379C219.482 38.3809 225.201 47.4675 236.408 75.7917C247.281 103.274 253.082 112.66 265.161 120.962C260.782 115.609 252.929 105.345 248.616 95.7047C245.448 88.6209 243.878 80.6169 242.303 72.5845C240.442 63.0905 238.573 53.5568 234.046 45.4561C225.689 30.5019 213.593 19.6677 213.593 19.6677C224.284 26.692 230.155 31.5161 236.305 41.4816C241.691 50.2082 243.483 59.7588 245.287 69.3763C246.545 76.0793 247.809 82.8148 250.299 89.3267C255.212 102.169 263.236 116.192 266.676 121.976C266.994 122.185 267.317 122.393 267.645 122.601C276.915 128.489 277.567 128.671 275.231 124.715C271.437 118.291 266.66 103.711 262.482 85.8017C249.857 31.6926 225.292 7.36571 180.624 3.5754C177.274 3.29087 173.917 3.20868 171.953 3.16061C171.117 3.14014 170.534 3.12586 170.311 3.10478ZM167.732 18.2688C175.83 25.7008 179.443 31.7123 192.478 59.4474C198.731 72.7497 200.548 75.1442 208.5 80.5609C212.247 83.1145 216.964 86.5029 218.981 88.0907C220.998 89.6795 222.464 90.5548 222.238 90.0372C220.64 86.3697 218.747 83.6066 217.078 81.1706L217.078 81.1702L217.076 81.1674C216.277 80.001 215.529 78.9097 214.89 77.8299C212.748 74.2112 210.826 71.3169 208.786 68.2433L208.785 68.2429L208.785 68.2426L208.784 68.2403L208.783 68.2393L208.783 68.2391L208.783 68.2387C204.919 62.4185 200.627 55.9536 193.599 42.7081C182.212 21.2483 160.784 11.8009 160.784 11.8009C160.784 11.8009 165.848 16.5399 167.732 18.2688ZM252.25 22.3923C269.228 37.7672 274.751 48.4219 278.289 72.6245C281.507 94.635 293.856 133.32 296.839 130.734C297.094 130.512 296.268 128.301 295.002 125.82C290.916 117.809 287.668 105.498 284.828 87.2474C278.578 47.0844 268.947 27.619 250.646 18.1587C248.315 16.9539 242.104 14.3297 242.104 14.3297C242.104 14.3297 248.314 18.8291 252.25 22.3923ZM299.382 53.699L299.383 53.6994C300.377 55.6915 301.249 57.437 302.336 59.918C306.799 70.1076 308.614 80.1843 310.2 88.9911L310.2 88.9914L310.2 88.9917C311.072 93.8343 311.875 98.2929 313.011 102.175C318.207 119.935 328.298 137.138 339.027 146.529C342.636 149.688 344.279 150.976 342.679 149.391C331.156 137.976 323.244 122.178 317.284 98.6767C312.389 79.375 309.769 71.6438 305.823 64.8594C303.674 61.1669 301.393 53.9471 301.393 53.9471C301.393 53.9471 304.658 61.0456 306.27 63.4476C310.591 69.8856 314.101 79.4635 318.893 97.8898C327.364 130.462 341.741 152.797 355.901 155.383L360.786 156.276L357.529 154.297C340.628 144.029 331.283 128.475 321.295 93.9856C314.114 69.1956 308.841 57.964 300.549 49.7999C297.658 46.9538 293.618 43.832 293.618 43.832C293.618 43.832 296.422 47.6845 298.149 51.2117C298.59 52.1121 298.993 52.9189 299.377 53.6887L299.382 53.6979L299.382 53.699ZM127.1 64.5375C121.284 65.267 113.687 66.147 110.219 66.4943C106.384 66.8784 102.468 67.3834 102.468 67.3834C102.468 67.3834 107.008 70.2913 109.919 72.152C111.68 73.277 113.162 74.5264 114.563 75.7083C117.161 77.8983 119.483 79.8561 122.79 80.3586C127.88 81.1323 137.089 81.36 160.004 77.805C168.332 76.5137 178.322 75.4275 182.203 75.3927C188.08 75.3399 188.806 75.1686 186.545 74.3724C180.607 72.281 168.337 72.3252 150.984 74.5032C133.406 76.7085 120.023 75.5822 116.459 73.8964C112.895 72.2105 113.207 70.6593 113.207 70.6593C113.207 70.6593 113.889 71.2967 119.855 71.2108C123.996 71.1512 126.563 70.3515 129.542 69.423C130.855 69.0137 132.249 68.5795 133.893 68.1725C139.267 66.8435 148.06 65.234 153.434 64.5968L163.205 63.4382L150.441 63.3252C143.422 63.2631 132.918 63.809 127.1 64.5375ZM134.436 69.7171C128.167 71.3096 122.06 72.6217 120.866 72.633C119.834 72.6427 118.403 72.7725 118.403 72.7725C118.403 72.7725 118.991 73.2838 120.347 73.6154C121.583 74.1268 137.655 74.6256 153.598 72.5379C167.937 70.6602 180.365 70.5171 186.003 72.1652C187.787 72.6866 187.691 72.4485 185.46 70.8277C177.496 65.042 154.787 64.5479 134.436 69.7171ZM160.491 79.7722C155.415 80.5948 145.401 81.5699 138.236 81.9389L125.208 82.609L129.551 84.3334C136.139 86.949 141.45 87.125 159.98 85.3433C170.966 84.2863 182.264 83.8364 191.982 84.0679C208.27 84.4557 209.344 83.3818 196.316 79.7402C186.625 77.0313 177.351 77.0398 160.491 79.7722ZM1.49854 79.3439C1.60712 80.6381 2.04132 84.9913 2.04132 84.9913C1.28577 84.3832 -0.904663 81.117 0.412903 77.4615C1.34583 74.8733 1.76562 73.8975 1.91492 73.8653C1.91492 73.8653 1.49854 77.182 1.49854 79.3439ZM405.346 112.757C405.346 112.757 404.357 113.012 405.812 116.33C406.395 117.658 407.4 118.745 408.047 118.745L411.547 117.728C411.547 117.728 415.892 116.686 414.581 113.699C413.365 110.928 405.346 112.757 405.346 112.757ZM206.26 114.986C198.295 116.018 189.99 116.901 187.805 116.947L183.831 117.031L187.631 118.001C190.116 118.635 197.252 118.702 208.258 118.195C217.512 117.768 231.036 117.399 238.309 117.376C251.975 117.331 252.923 116.726 242.997 114.379C235.729 112.66 222.522 112.879 206.26 114.986ZM398.954 115.083C396.547 116.034 396.968 120.257 398.802 123.291C399.681 124.106 404.753 120.204 404.753 118.713C404.753 114.298 403.278 113.375 398.954 115.083ZM157.827 110.266C157.827 110.266 157.605 112.109 164.733 118.001C172.508 122.505 192.859 127.562 223.999 123.436C231.164 122.41 241.667 121.527 247.34 121.475L257.653 121.382L252.768 119.988C248.785 118.852 244.675 118.732 230.513 119.342C199.848 120.663 188.022 120.354 180.032 118.023C165.737 113.853 157.827 110.266 157.827 110.266ZM389.473 120.332C378.336 129.056 375.201 144.347 382.673 153.499C386.907 158.686 390.725 161.199 389.052 157.698C385.125 149.48 386.805 138.381 393.309 129.567C397.354 120.774 396.986 114.448 389.473 120.332ZM407.884 120.223C407.507 120.426 407.862 123.035 408.673 126.021C409.484 129.008 410.155 134.34 410.164 137.873C410.179 143.479 410.423 144.255 412.081 143.979C415.496 143.408 417.072 136.427 416.792 123.111L416.695 118.535L412.633 119.195C410.397 119.56 408.261 120.022 407.884 120.223ZM402.553 123.138C401.076 124.002 399.736 124.788 399.573 124.885C399.41 124.982 400.013 127.769 400.913 131.079C401.813 134.389 402.557 139.322 402.566 142.04C402.583 147.34 402.711 147.491 405.91 146.007C408.176 144.956 408.837 135.537 407.32 125.935C406.548 121.051 406.334 120.926 402.553 123.138ZM391.084 137.098C388.389 143.221 388.421 152.805 391.154 157.329L393.14 160.617L394.631 156.886C395.45 154.834 397.283 152.084 398.705 150.774C401.354 148.334 401.357 140.074 398.712 129.298L397.952 126.205L395.554 129.298C394.235 131 392.223 134.51 391.084 137.098ZM299.593 135.709C300.944 137.792 302.942 140.197 304.033 141.053C305.125 141.91 304.191 140.205 301.959 137.266C297.23 131.041 296.075 130.28 299.593 135.709ZM408.172 150.648C407.454 152.726 405.541 155.822 403.922 157.528C402.302 159.233 401.868 160.018 402.957 159.272C407.832 155.927 415.34 144.15 411.443 145.958C410.361 146.46 408.89 148.57 408.172 150.648ZM404.158 148.642C403.533 149.023 402.908 150.817 402.77 152.628C402.537 155.697 402.623 155.794 404.033 154.04C407.299 149.977 407.376 146.687 404.158 148.642ZM398.228 153.805C395.669 157.445 395.442 160.158 397.697 160.158C398.592 160.158 399.347 159.84 399.373 159.452C399.399 159.065 399.821 156.947 400.312 154.746C401.385 149.943 401.05 149.792 398.228 153.805ZM274.959 154.095C270.147 155.297 261.598 158.252 255.96 160.663L245.711 165.044L251.682 164.652C255.689 164.387 261.045 162.916 267.966 160.177C273.639 157.932 281.699 154.878 285.879 153.389C295.27 150.044 289.741 150.402 274.959 154.095ZM294.52 153.138C290.962 153.936 281.211 157.162 272.851 160.309C258.724 165.626 256.977 166.054 248.054 166.389C235.059 166.878 233.223 167.991 242.934 169.495C255.247 171.403 263.2 170.046 289.075 161.618C297.468 158.885 307.702 155.876 311.816 154.933C317.389 153.655 318.775 153.039 317.244 152.518C313.654 151.297 301.222 151.635 294.52 153.138ZM356.904 173.436C354.86 174.785 350.744 177.021 347.759 178.405C340.555 181.743 345.752 180.579 355.402 176.694C364.451 173.049 374.857 166.794 373.609 165.748C370.953 163.521 366.184 164.43 363.417 167.688C361.879 169.5 358.948 172.086 356.904 173.436ZM371.884 175.07C368.902 177.481 362.52 184.324 357.701 190.277C341.135 210.739 329.732 217.546 303.249 222.78L299.992 223.423L302.701 224.319C308.004 226.07 324.436 225.419 331.481 223.178C345.885 218.596 348.877 215.493 367.798 185.507C372.335 178.317 379.715 170.621 384.669 167.913C385.864 167.261 384.695 167.617 382.073 168.706C379.45 169.795 374.865 172.659 371.884 175.07ZM397.449 175.72L397.375 183.752L401.316 186.073C406.728 189.262 406.831 189.172 405.361 182.512C403.999 176.341 399.555 167.688 397.749 167.688C397.625 167.688 397.49 171.302 397.449 175.72ZM394.196 175.436C394.438 177.128 394.641 175.971 394.646 172.865C394.653 169.759 394.455 168.374 394.206 169.789C393.959 171.204 393.955 173.745 394.196 175.436ZM386.92 183.218C386.834 188.341 389.32 197.103 390.657 196.387C393.102 195.076 395.171 182.969 393.442 180.072C392.499 178.489 391.685 175.584 391.635 173.618L391.542 170.041L389.271 174.277C387.986 176.673 386.965 180.556 386.92 183.218ZM392.895 196.222C391.494 199.398 394.885 203.968 401.126 207.313C406.032 209.941 406.324 209.525 406.706 199.377L407.031 190.748L401.831 187.842L396.63 184.934L395.347 189.253C394.643 191.628 393.539 194.764 392.895 196.222ZM99.0552 57.2632C99.0552 57.2632 110.286 57.6207 117.36 56.7012C119.733 56.3928 121.523 55.9752 123.336 55.5523C125.002 55.1636 126.687 54.7704 128.862 54.4534C134.168 53.6799 142.491 53.247 142.917 53.2251C142.852 53.2251 142.621 53.2088 142.256 53.1831C140.02 53.0252 132.747 52.5117 127.839 53.2243C125.121 53.619 123.235 54.0092 121.165 54.4374L121.165 54.4375C119.869 54.7054 118.502 54.9883 116.814 55.2964C109.994 56.5411 99.0552 57.2632 99.0552 57.2632Z" fill="#3A7E7F"/>
</svg>