<svg xmlns="http://www.w3.org/2000/svg" width="543" height="255" viewBox="0 0 543 255" fill="none">
  <path fill-rule="evenodd" clip-rule="evenodd" d="M365.016 251.194L360.124 251.669C360.124 251.669 331.191 252.069 316.363 247.008C278.362 234.036 260.729 210.889 247.482 156.591C240.629 128.498 232.52 110.174 225.067 105.94C221.386 103.849 221.305 104.139 224.32 108.635C230.254 117.481 236.808 137.454 241.275 164.102C249.923 200.055 252.71 206.998 266.14 223.807C269.943 227.313 277.672 234.12 277.672 234.12C277.672 234.12 274.643 232.95 274.47 232.871C257.943 225.287 245.94 204.568 238.23 164.102C232.418 133.604 225.33 113.746 216.801 104.074C211.981 98.6084 209.417 98.2556 213.604 103.634C222.934 115.62 230.903 139.896 235.285 169.678C239.803 200.393 244.322 209.892 262.238 226.329C268.099 231.706 292.086 249.122 292.086 249.122C292.086 249.122 268.662 240.683 256.05 232.871C240.377 220.19 230.666 197.548 224.383 160.892C218.145 124.5 210.271 105.113 197.662 95.1023C194.76 92.798 167.139 84.2749 163.096 84.4362C161.697 84.4917 161.541 84.7 162.617 85.0727C165.962 86.2317 178.373 101.226 184.21 111.16C193.393 126.791 196.237 134.81 202.732 163.396C209.686 194.006 215.049 204.917 228.587 216.004C230.999 218.214 234.891 222.547 234.891 222.547C234.891 222.547 218.097 210.58 208.7 200.94C193.728 185.579 193.032 183.132 185.683 157.306C185.025 154.992 184.313 152.49 183.533 149.775C172.146 110.15 162.157 94.2113 141.454 82.6323C132.953 77.8772 132.428 78.2143 139.613 83.8154C150.328 92.1677 157.642 102.587 167.203 136.199L167.589 137.557L167.715 138L167.715 138L167.715 138C173.424 158.09 176.098 167.502 185.349 176.925C187.875 179.498 195.508 192.242 195.508 192.242C195.508 192.242 185.337 181.639 182.535 179.428C175.209 173.648 162.609 142.501 161.633 130.73C161.633 130.73 158.652 126.258 158.03 127.605C156.658 130.574 162.988 153.689 166.533 160.65C167.047 161.659 167.87 163.206 168.779 164.912L168.779 164.912C171.086 169.245 173.939 174.604 173.642 174.767C173.521 174.833 171.575 171.922 169.839 169.323L169.839 169.323C168.633 167.518 167.527 165.864 167.203 165.462C164.523 162.135 161.945 154.572 158.594 140.204C151.089 108.031 134.075 79.4141 121.496 77.8134L117.587 77.3161L120.497 78.9911C130.169 84.5587 139.546 101.139 142.534 125.361C146.677 158.931 152.839 176.952 171.831 186.806L176.661 189.947C158.363 185.602 143.932 164.59 139.238 134.884C134.868 107.221 133.88 103.119 129.768 95.5388C124.054 85.011 121.002 81.9005 124.442 90.1116C129.913 103.17 127.001 131.514 119.226 140.887C118.764 141.444 117.309 143.175 117.309 143.175C117.309 143.175 118.412 141.297 118.806 140.364C122.951 130.524 124.397 123.537 124.867 111.05C125.349 98.2807 125.283 97.7635 123.79 102.675C121.398 110.542 117.818 115.813 111.238 121.149L105.303 125.961C105.303 125.961 106.88 129.326 108.076 131.407C110.726 136.02 116.228 142.55 116.228 142.55C116.228 142.55 109.292 136.473 107.079 132.999L103.057 126.68L99.2329 128.288L95.4075 129.895L97.7187 134C99.2689 136.753 101.453 139.112 101.453 139.112C101.453 139.112 98.0906 137.452 96.5136 134.771C94.1372 130.733 93.8257 130.573 89.4858 131.154C89.1846 131.194 88.9 131.232 88.6314 131.267C86.0796 131.603 84.9647 131.75 84.6959 132.306C84.4873 132.737 84.7882 133.415 85.3227 134.619C85.3953 134.783 85.4723 134.956 85.5529 135.14C86.1545 136.512 87.3983 137.862 87.3983 137.862C87.3983 137.862 85.7406 137.272 84.983 136.727C83.965 135.995 83.133 133.835 83.133 133.835C83.133 133.835 82.074 132.411 77.6907 132.982C73.3931 133.54 71.0022 132.89 69.7947 131.843C73.6974 133.601 80.8605 130.592 79.9283 127.501C79.294 125.4 77.6354 125.535 74.1575 125.818C73.4774 125.873 72.7277 125.935 71.9025 125.986C65.4159 125.986 64.3348 124.122 64.3348 124.122C64.3348 124.122 70.1007 124.736 71.1818 124.423C71.4832 124.374 71.7708 124.329 72.0454 124.286C77.0242 123.506 77.6992 123.4 77.6992 112.83C77.6992 107.244 78.1447 100.849 78.6881 98.6168C79.6529 94.6584 79.6034 94.5757 76.6522 95.2174C73.0369 96.0047 62.005 94.1317 57.775 92.0138C55.7838 91.0161 55.5773 90.7292 57.1712 91.17C72.3897 95.3807 79.7037 94.3935 83.6776 87.5947C85.2969 84.8246 88.1213 81.0128 89.9555 79.1241L93.2883 75.6891L71.0034 76.244C36.3016 77.1077 13.3115 81.8367 -14.0003 93.7297C-23.2793 97.7697 -29 99.4771 -29 99.4771C-29 99.4771 -26.8729 96.6835 -22.5809 93.1644C-3.13859 77.225 57.9839 63.3197 91.2391 67.2719C94.3811 67.6456 96.516 67.52 96.2154 66.9788C91.4613 58.4275 90.2454 55.293 89.5981 49.9265C88.6973 42.4462 83.4342 40.9781 78.7495 40.7104C74.2954 40.7179 67.5781 42.5407 67.5781 42.5407C67.5781 42.5407 70.8896 40.8626 71.5422 40.7104C71.9225 40.6216 72.3281 40.5193 72.7554 40.4114L72.7557 40.4113L72.7558 40.4112C74.94 39.8599 77.6924 39.1651 80.5513 39.4155C80.5513 39.4155 83.0143 39.6314 84.5153 40.0405C85.8173 40.3954 87.7168 41.2558 87.7168 41.2558L88.5838 30.7489C89.2745 22.383 89.1151 20.0567 87.8013 19.3354C87.1939 19.0014 82.2647 19.3354 82.2647 19.3354C82.2647 19.3354 82.7135 18.1636 88.265 18.413C89.6186 18.4036 90.4108 17.5504 90.4699 16.0417C90.5207 14.7457 91.3406 12.0373 92.2921 10.0219C93.0026 8.51707 95.6867 6.60007 95.6867 6.60007C95.6867 6.60007 93.285 10.0263 92.1858 15.2943C91.4468 18.8402 91.669 19.1385 97.4977 22.4123C100.843 24.2925 104.631 26.9884 105.915 28.4038L108.25 30.9771L112.139 24.949C117.667 16.381 126.81 6.91467 133.431 2.90601C136.412 1.10149 141.093 0.349518 141.093 0.349518C141.093 0.349518 136.778 2.33293 133.908 4.46277L128.704 8.32593L129.451 15.9915C130.751 29.3199 126.131 48.1572 119.168 57.925C119.028 58.1214 118.893 58.3073 118.763 58.4828L119.831 58.7918C119.831 58.7918 118.181 61.6843 116.848 63.7149C123.798 56.9064 133.5 45.1668 139.541 35.3292C157.943 5.36313 176.032 -5.11557 208.841 2.28094C216.094 3.91624 221.387 5.547 223.91 7.22513C226.432 8.90324 228.595 11.0376 228.595 11.0376C228.595 11.0376 225.481 9.48083 220.667 8.8499C215.852 8.21898 188.544 10.0188 170.997 20.1321C162.606 24.9689 158.024 29.5512 142.302 48.8293C137.985 54.1225 132.008 60.3465 129.019 62.6612C126.03 64.9749 124.944 66.0878 126.604 65.133C128.264 64.1793 132.34 61.9985 135.66 60.2879C138.981 58.5772 145.773 54.0754 150.754 50.2824C177.682 29.7826 191.204 24.4977 215.852 24.8401L227.432 25.0003L214.149 25.7949C190.603 27.203 177.403 32.0597 158.888 46.1324C153.086 50.5421 148.339 54.2921 148.339 54.4649C148.339 54.6376 151.904 53.6577 156.261 52.2862C167.207 48.8418 182.914 46.637 195.289 46.8087L205.697 46.9521L194.546 47.8138C174.371 49.3716 155.894 55.9641 143.669 65.9643L137.187 71.2669L145.463 72.92L153.741 74.5742L155.72 70.7424C159.147 64.107 174.724 55.0637 188.218 51.8769C188.901 51.7155 189.634 51.5342 190.417 51.3403L190.418 51.3401C199.371 49.1244 214.941 45.271 239.112 50.8279C239.112 50.8279 232.755 51.1396 231.184 51.0352L220.187 50.8279L226.051 52.4747C229.57 53.4627 232.986 55.4106 232.986 55.4106L225.058 53.2229C208.612 48.9326 180.821 59.6126 169.111 74.5082C167.592 76.4398 167.567 76.4366 168.272 74.4077C170.724 67.3525 180.525 60.6239 196.7 54.8899C208.371 50.7525 208.227 50.4248 195.573 52.3396C173.153 55.7327 147.835 72.5515 159.934 76.0137C165.675 77.6553 168.563 77.0407 186.682 70.3184C208.723 62.1409 228.555 56.3944 240.193 58.2234C241.504 58.429 247.04 59.8017 247.04 59.8017C247.04 59.8017 244.992 59.7167 241.274 59.786C223.676 60.1148 205.303 64.775 182.842 73.5932C170.336 78.5033 170.174 78.6121 174.013 79.4957C184.715 81.9592 198.467 79.4183 233.47 68.5125C252.641 62.5398 270.055 61.9734 284.186 66.8636C299.238 72.0731 304.736 73.8685 304.736 73.8685C299.286 73.7841 294.626 73.4074 290.397 73.0656C279.837 72.2121 271.966 71.5759 261.21 76.2503C247.005 82.424 233.401 86.5499 220.791 88.5108C219.691 88.6818 218.674 88.8377 217.737 88.9813C211.533 89.9323 208.831 90.3464 208.754 91.0475C208.695 91.5883 210.198 92.2999 212.86 93.5603L212.86 93.5604L212.861 93.5609L212.862 93.5615C213.383 93.8082 213.949 94.0758 214.555 94.3673C225.854 99.7967 234.594 99.2732 265.497 91.3166C301.225 82.1173 331.224 81.5905 348.733 107.24C348.733 107.499 347.295 106.23 345.327 104.494C342.253 101.782 337.887 97.9296 335.69 96.9768C320.596 89.6484 302.305 83.8908 260.419 94.2208C250.004 96.7889 238.107 99.2219 233.981 99.626C226.56 100.354 226.513 100.38 229.788 101.866C236.946 105.118 257.055 102.735 284.879 96.9768C291.054 95.6993 303.083 95.3021 312.92 96.608C326.388 98.396 337.261 102.364 337.261 102.364C337.261 102.364 324.904 101.122 316.951 100.727C312.401 100.501 309.056 100.026 306.015 99.5948C298.839 98.5759 293.36 97.7979 277.735 101.106C262.134 104.409 242.726 106.755 238.44 105.854C237.034 105.559 238.33 106.341 241.319 107.59C251.007 111.642 276.822 111.518 299.28 107.313C323.219 102.831 354.771 107.382 354.771 114.569C354.771 114.569 353.178 112.763 351.84 111.922C349.999 110.765 346.434 110.047 346.434 110.047C346.434 110.047 322.915 105.002 296.261 109.7C286.039 111.501 278.757 112.047 264.661 112.069L246.344 112.097L250.154 114.191C253.084 115.801 256.552 116.368 265.161 116.648C275.625 116.987 282.395 116.446 303.506 113.585C334.069 110.684 339.457 111.673 343.145 112.35L343.146 112.35C343.531 112.421 343.897 112.488 344.272 112.547C348.236 113.172 358.609 116.974 361.57 119.423C375.128 128.123 393.437 145.217 394.055 145.795C394.067 145.803 394.072 145.808 394.071 145.81L394.055 145.795C393.644 145.533 385.544 142.166 376.304 138.326L376.304 138.326C365.591 133.873 353.346 128.784 349.774 127.157C346.663 125.74 327.607 126.057 316.789 127.705C311.476 128.515 301.967 129.558 295.657 130.024L284.186 130.871L292.639 131.614C297.288 132.022 311.451 132.368 324.112 132.384C326.048 132.387 328.132 132.34 330.293 132.292C337.472 132.131 345.506 131.952 351.84 133.486C373.021 138.619 377.714 145.097 377.714 145.976C377.714 145.976 365.3 140.954 356.885 138.942C344.329 135.939 338.816 135.926 325.389 135.893C323.315 135.888 321.052 135.882 318.545 135.865C297.864 135.724 286.98 133.342 281.469 132.136C281.102 132.056 280.759 131.981 280.439 131.912C277.081 131.191 272.828 130.277 271.683 130.031L271.775 130.051C274.586 131.769 282.02 136.56 287.695 140.887C287.695 140.887 312.074 149.599 326.683 148.8C332.247 148.496 337.567 147.415 342.001 146.514C344.394 146.027 346.53 145.593 348.305 145.362C356.174 144.34 367.405 151.925 367.405 151.925C367.405 151.925 355.891 146.791 348.305 148.175C346.02 148.592 343.838 149.285 341.658 149.977C339.186 150.762 336.718 151.546 334.105 151.925C330.424 152.46 311.463 151.001 299.641 149.16C314.869 158.26 329.492 160.164 364.64 157.139C389.555 154.995 396.023 155.659 405.228 161.312C406.464 162.07 407.76 162.687 409.093 163.321C411.171 164.31 413.339 165.341 415.504 167.018C416.509 167.797 417.185 168.483 417.871 169.178C418.498 169.814 419.132 170.457 420.032 171.186C421.394 172.289 422.202 172.868 423.666 173.867C434.28 181.113 445.962 184.435 445.962 184.435C445.962 184.435 433.956 182.199 430.433 181.945C426.909 181.692 415.385 182.533 404.822 183.814C386.392 186.05 375.795 186.177 353.015 184.435C347.666 184.026 322.65 169.498 306.212 157.253C302.388 154.404 298.978 152.315 298.636 152.613C298.031 153.137 305.786 159.109 315.582 165.661C318.238 167.437 326.622 172.483 334.211 176.875C341.802 181.266 347.623 184.858 347.147 184.858C346.672 184.858 348.382 187.567 350.946 190.878C353.51 194.188 358.285 200.902 361.557 205.796C377.375 229.461 393.285 238.224 421.458 241.933C428.559 242.869 439.836 242.559 439.836 242.559C439.836 242.559 429.469 242.058 423.26 240.227C408.734 235.942 403.173 229.494 393.914 217.572C381.417 201.481 380.881 201.037 365.877 194.383C352.33 188.374 345.889 184.962 347.963 184.891C348.504 184.873 350.064 185.376 351.428 186.01C353.233 186.846 353.686 186.846 353.09 186.01C351.781 184.174 352.977 184.56 365.525 190.019C377.724 195.327 395.38 201.607 403.495 203.526C408.688 204.754 411.204 204.071 439.33 193.805C462.036 185.515 477.915 182.894 487.088 185.917C493.871 188.154 525.513 181.281 529.385 176.731C531.05 174.774 538.37 167.962 538.37 167.962L533.051 176.32C533.051 176.32 531.874 177.748 530.97 178.547C529.412 179.924 528.09 180.537 526.403 181.32C525.934 181.537 525.438 181.768 524.9 182.031C519.566 184.645 515.134 185.313 510.251 186.048C507.391 186.479 504.377 186.933 500.937 187.815C495.706 189.155 491.122 190.045 486.814 190.882L486.813 190.882C477.321 192.725 469.172 194.308 458.41 199.871C451.292 203.551 443.783 207.167 441.724 207.906C436.877 209.646 462.844 211.04 476.127 208.607C481.078 207.7 497.772 201.929 508.666 196.756C526.996 188.052 540.018 176.731 540.018 176.731C540.018 176.731 540.729 182.777 511.91 198.119C498.467 205.275 480.867 210.586 477.334 211.198C469.485 212.556 456.851 213.577 443.681 213.267C441.969 213.227 440.8 213.27 439.755 213.308C437.534 213.39 435.868 213.451 430.724 212.65C430.467 212.634 430.215 212.617 429.968 212.599C428.958 212.526 428.093 212.471 427.314 212.422C424.756 212.259 423.113 212.155 420.238 211.662C418.001 211.278 416.498 210.88 414.708 210.407L414.708 210.407C413.979 210.214 413.203 210.009 412.311 209.787C410.435 209.32 405.711 208.215 402.747 207.524C402.748 208.124 405.451 209.982 410.997 213.493C446.3 235.846 499.926 225.963 530.288 194.429C535.248 189.278 541.333 180.16 541.333 180.16C541.333 180.16 540.165 186.6 532.09 196.756C532.09 196.756 518.969 208.745 513.351 211.931C487.088 226.826 471.352 227.245 471.352 227.245C444.882 229.432 430.067 227.726 410.372 215.787C401.374 210.332 401.018 210.468 407.957 216.712C421.245 228.666 437.277 235.689 454.07 236.91C458.595 237.239 466.503 237.871 466.503 237.871C466.503 237.871 451.072 238.396 441.638 236.308C424.955 232.616 419.332 228.237 404.458 215.758C391.948 205.261 386.777 201.609 384.429 201.609C384.02 201.609 387.557 206.541 392.291 212.569C404.624 228.279 415.322 236.167 429.798 240.227C432.18 240.895 443.8 241.308 443.8 241.308L461.458 241.804C461.458 241.804 434.047 244.8 428.705 245.037C405.313 246.076 378.643 232.188 363.222 210.938C344.137 184.641 343.268 183.748 329.281 176.069L325.667 174.085L327.66 178.163C328.758 180.405 332.55 188.65 336.088 196.483C352.048 231.819 364.213 243.215 391.815 248.688C401.943 250.696 410.317 250.237 410.317 250.237L430.845 249.622C430.845 249.622 403.797 252.828 387.223 249.747C386.741 249.657 378.935 248.184 378.935 248.184C378.935 248.184 386.764 250.771 388.033 251.301C390.026 252.133 399.115 254.122 399.115 254.122C399.115 254.122 389.085 252.69 382.899 250.997C376.044 249.12 372.249 247.768 365.961 244.746C363.739 243.678 361.814 242.808 360.069 242.019L360.069 242.019C353.905 239.232 349.999 237.466 343.258 231.62C330.725 220.75 327.933 215.859 316.346 195.561C314.026 191.497 311.353 186.815 308.179 181.345C290.318 150.553 288.481 148.164 275.597 138.942C269.27 134.414 263.189 129.158 263.189 129.158C262.304 129.413 262.623 130.525 264.1 132.34C269.041 138.409 274.194 148.927 282.459 169.819C294.761 200.914 300.743 210.538 317.346 225.951C329.285 237.035 340.275 246.639 359.65 250.294C364.195 251.151 364.907 251.197 365.016 251.194ZM263.189 129.158L263.617 128.819C263.584 128.986 263.445 129.101 263.189 129.158ZM263.617 128.819C263.617 128.819 272.865 134.575 281.167 140.887C289.469 147.199 296.805 152.35 297.469 152.333C298.133 152.316 294.889 149.381 290.26 145.81C277.219 135.749 271.389 129.968 271.389 129.968C271.389 129.968 263.808 125.728 256.898 121.052C212.796 91.2044 179.845 79.5303 119.359 72.3222C116.56 71.9888 113.721 71.7018 110.851 71.4599C110.605 71.7515 110.462 71.918 110.462 71.918H107.579C107.579 71.918 107.809 71.6699 108.19 71.2491C58.9479 67.5972 1.45835 76.943 -19.5066 92.7121C-21.0158 93.847 -22.5134 95.3579 -22.5134 95.3579C-22.5134 95.3579 -19.2398 93.8592 -13.469 91.2506C45.073 64.7865 141.606 67.1997 209.709 96.8307C229.336 105.37 264.209 125.785 263.617 128.819ZM161.633 130.73C161.633 130.73 156.379 113.191 153.019 105.292C148.647 95.0154 139.986 84.4875 133.515 81.5865C129.774 79.9093 129.781 79.9292 134.705 84.7796C142.741 92.6943 155.603 117.756 156.133 119.28C156.663 120.803 161.633 130.73 161.633 130.73ZM115.147 62.5422C115.548 61.8018 115.887 61.1827 116.173 60.6657C115.863 59.8646 117.118 56.3142 119.832 51.1011C125.306 40.5921 127.776 31.397 127.775 21.5381C127.774 9.12369 126.185 8.96559 117.295 20.4912C109.519 30.573 109.266 31.4074 112.051 37.8586C115.644 46.1868 115.429 56.2865 111.515 62.9763C109.857 65.8083 108.498 68.2528 108.496 68.4078C108.478 69.3882 109.041 69.5912 110.037 69.1712C111.882 67.0544 114.239 64.2149 115.147 62.5422ZM420.656 207.538L419.429 207.343C413.756 206.441 409.709 204.833 412.982 204.781C414.085 204.764 421.421 202.343 429.283 199.402C458.509 188.47 480.197 184.741 486.556 187.117C487.081 187.431 489.567 187.866 489.567 187.866C489.567 187.866 481.999 189.116 480.558 189.116C480.558 189.116 478.756 189.429 475.513 190.366C475.513 190.366 475.337 190.246 471.352 191.813C467.367 193.38 461.193 196.274 457.631 198.243C452.105 201.299 446.681 203.842 441.966 205.652C441.891 205.503 441.421 205.568 440.196 205.993C436.592 207.243 429.54 207.599 422.761 207.599C422.04 207.599 421.337 207.577 420.656 207.538ZM353.563 250.669C353.563 250.669 349.265 248.983 346.159 247.403C343.052 245.825 340.157 244.533 339.727 244.533C337.811 244.533 324.438 234.651 316.071 227.051C298.871 211.431 292.509 201.324 280.044 169.819C267.949 139.249 261.497 128.809 248.061 119.576C252.931 125.529 261.667 136.946 266.464 147.67C269.988 155.549 271.734 164.452 273.485 173.387C275.556 183.947 277.635 194.551 282.671 203.561C291.966 220.195 305.42 232.246 305.42 232.246C293.529 224.433 286.998 219.067 280.157 207.982C274.167 198.276 272.174 187.653 270.167 176.955C268.768 169.499 267.362 162.007 264.592 154.764C259.128 140.479 250.201 124.88 246.376 118.447C246.022 118.216 245.663 117.985 245.299 117.753C234.988 111.204 234.262 111.002 236.861 115.402C241.081 122.547 246.394 138.764 251.042 158.685C265.084 218.87 292.408 245.929 342.092 250.145C345.818 250.462 349.552 250.553 351.737 250.607C352.666 250.629 353.315 250.645 353.563 250.669ZM356.432 233.802C347.424 225.535 343.405 218.848 328.907 187.999C321.951 173.203 319.931 170.539 311.086 164.514C306.918 161.674 301.671 157.905 299.427 156.139C297.184 154.372 295.554 153.398 295.805 153.974C297.582 158.053 299.688 161.127 301.544 163.836C302.434 165.135 303.267 166.35 303.978 167.552C306.362 171.579 308.5 174.799 310.771 178.22C315.069 184.694 319.843 191.884 327.66 206.618C340.326 230.488 364.159 240.996 364.159 240.996C364.159 240.996 358.528 235.725 356.432 233.802ZM262.423 229.215C243.538 212.114 237.394 200.262 233.459 173.342C229.88 148.86 216.144 105.83 212.826 108.707C212.542 108.954 213.461 111.413 214.869 114.173C219.414 123.083 223.027 136.777 226.186 157.077C233.138 201.75 243.851 223.402 264.206 233.924C266.799 235.264 273.708 238.183 273.708 238.183C273.708 238.183 266.8 233.178 262.423 229.215ZM209.998 194.395L209.997 194.392C208.89 192.176 207.921 190.235 206.712 187.475C201.748 176.141 199.729 164.933 197.965 155.137L197.965 155.137L197.965 155.137L197.965 155.137C196.994 149.75 196.101 144.791 194.837 140.473C189.058 120.718 177.834 101.584 165.9 91.1375C161.887 87.6241 160.058 86.1919 161.838 87.9549C174.655 100.651 183.455 118.223 190.085 144.364C195.529 165.833 198.444 174.433 202.834 181.979C205.223 186.086 207.761 194.117 207.761 194.117C207.761 194.117 204.129 186.221 202.336 183.549C197.53 176.388 193.625 165.735 188.295 145.239C178.873 109.009 162.882 84.1661 147.132 81.2891L141.698 80.2967L145.321 82.4973C164.119 93.9182 174.514 111.22 185.624 149.582C193.611 177.156 199.477 189.649 208.7 198.73C211.916 201.895 216.409 205.368 216.409 205.368C216.409 205.368 213.289 201.083 211.369 197.159C210.878 196.157 210.43 195.26 210.002 194.403L210 194.399L209.998 194.395ZM401.626 182.337C408.096 181.526 416.546 180.547 420.403 180.16C424.669 179.733 429.025 179.172 429.025 179.172C429.025 179.172 423.975 175.937 420.737 173.867C418.779 172.616 417.13 171.226 415.571 169.912C412.682 167.476 410.099 165.298 406.421 164.739C400.759 163.879 390.516 163.625 365.027 167.58C355.764 169.016 344.653 170.224 340.336 170.263C333.798 170.321 332.992 170.512 335.506 171.398C342.111 173.724 355.758 173.675 375.061 171.252C394.613 168.799 409.498 170.052 413.462 171.927C417.426 173.802 417.08 175.528 417.08 175.528C417.08 175.528 416.322 174.819 409.685 174.914C405.079 174.981 402.224 175.87 398.911 176.903C397.45 177.358 395.9 177.841 394.071 178.294C388.093 179.772 378.312 181.562 372.335 182.271L361.468 183.56L375.664 183.685C383.472 183.755 395.155 183.147 401.626 182.337ZM393.467 176.576C400.44 174.804 407.233 173.345 408.561 173.332C409.709 173.322 411.3 173.177 411.3 173.177C411.3 173.177 410.646 172.609 409.138 172.24C407.763 171.671 389.887 171.116 372.153 173.438C356.204 175.527 342.38 175.686 336.109 173.853C334.124 173.273 334.232 173.538 336.713 175.34C345.572 181.776 370.831 182.325 393.467 176.576ZM364.486 165.392C370.132 164.477 381.271 163.392 389.241 162.982L403.731 162.236L398.901 160.318C391.572 157.409 385.665 157.213 365.054 159.195C352.835 160.37 340.268 160.871 329.458 160.613C311.342 160.182 310.146 161.377 324.638 165.427C335.418 168.44 345.732 168.431 364.486 165.392ZM541.333 165.868C541.212 164.428 540.729 159.586 540.729 159.586C541.57 160.263 544.006 163.896 542.541 167.962C541.503 170.841 541.036 171.926 540.87 171.962C540.87 171.962 541.333 168.273 541.333 165.868ZM92.1339 128.702C92.1339 128.702 93.234 128.418 91.6159 124.728C90.9674 123.251 89.8493 122.043 89.1296 122.043L85.2361 123.173C85.2361 123.173 80.404 124.332 81.8615 127.655C83.2139 130.737 92.1339 128.702 92.1339 128.702ZM313.577 126.223C322.437 125.076 331.674 124.094 334.105 124.042L338.525 123.948L334.298 122.87C331.534 122.164 323.597 122.09 311.355 122.654C301.061 123.129 286.019 123.539 277.928 123.565C262.728 123.615 261.674 124.288 272.714 126.898C280.799 128.81 295.488 128.567 313.577 126.223ZM99.2438 126.115C101.921 125.058 101.453 120.36 99.4129 116.986C98.4348 116.079 92.7932 120.419 92.7932 122.077C92.7932 126.988 94.4342 128.015 99.2438 126.115ZM367.45 131.473C367.45 131.473 367.696 129.423 359.768 122.87C351.119 117.86 328.483 112.235 293.846 116.824C285.876 117.966 274.194 118.948 267.884 119.006L256.413 119.109L261.847 120.66C266.277 121.923 270.848 122.056 286.601 121.378C320.709 119.909 333.864 120.252 342.751 122.846C358.65 127.483 367.45 131.473 367.45 131.473ZM109.789 120.276C122.177 110.574 125.664 93.5654 117.353 83.3851C112.644 77.6155 108.397 74.8202 110.258 78.7148C114.625 87.8554 112.757 100.201 105.523 110.005C101.023 119.785 101.433 126.822 109.789 120.276ZM89.3107 120.398C89.7297 120.173 89.3349 117.271 88.4329 113.949C87.5308 110.627 86.7846 104.695 86.7749 100.766C86.758 94.5307 86.4863 93.6669 84.6424 93.9747C80.8436 94.6091 79.0914 102.374 79.403 117.186L79.5105 122.276L84.029 121.541C86.5153 121.136 88.8917 120.622 89.3107 120.398ZM95.2409 117.156C96.8831 116.195 98.3744 115.32 98.5555 115.213C98.7367 115.105 98.0653 112.005 97.0642 108.323C96.0632 104.641 95.2361 99.1539 95.2264 96.1314C95.2071 90.2362 95.0646 90.0676 91.506 91.7186C88.9859 92.888 88.2505 103.365 89.9386 114.044C90.7972 119.477 91.0351 119.616 95.2409 117.156ZM107.997 101.628C110.995 94.8175 110.959 84.1566 107.92 79.1251L105.71 75.4682L104.052 79.6182C103.142 81.9005 101.102 84.9596 99.5203 86.4159C96.574 89.1306 96.5704 98.3174 99.5131 110.304L100.358 113.745L103.026 110.304C104.493 108.411 106.73 104.507 107.997 101.628ZM209.763 103.173C208.26 100.856 206.037 98.1813 204.824 97.2286C203.61 96.2759 204.649 98.1719 207.131 101.441C212.391 108.366 213.676 109.212 209.763 103.173ZM88.9907 86.5562C89.7889 84.2446 91.9166 80.8013 93.7182 78.9043C95.5198 77.0072 96.0028 76.1341 94.7917 76.9643C89.3687 80.684 81.0174 93.7842 85.3525 91.773C86.5552 91.215 88.1914 88.8678 88.9907 86.5562ZM93.455 88.7872C94.1505 88.3642 94.846 86.3688 94.9994 84.3535C95.2578 80.9405 95.1624 80.8327 93.5938 82.7831C89.9616 87.3027 89.8759 90.9617 93.455 88.7872ZM100.052 83.0448C102.898 78.9964 103.15 75.9781 100.642 75.9781C99.6459 75.9781 98.8067 76.332 98.7777 76.7633C98.7487 77.1946 98.279 79.5502 97.7332 81.9979C96.5402 87.3403 96.9121 87.5089 100.052 83.0448ZM237.164 82.7224C242.515 81.3855 252.025 78.0981 258.295 75.4169L269.696 70.5435L263.054 70.9801C258.597 71.2743 252.639 72.9106 244.941 75.9572C238.632 78.4541 229.666 81.8513 225.017 83.5076C214.571 87.2283 220.721 86.8305 237.164 82.7224ZM215.405 83.7871C219.364 82.8993 230.21 79.3104 239.507 75.8106C255.221 69.8965 257.165 69.4202 267.09 69.0475C281.544 68.5041 283.586 67.2656 272.784 65.5926C259.089 63.4705 250.242 64.9802 221.462 74.3543C212.127 77.3946 200.743 80.7416 196.167 81.7906C189.969 83.2113 188.427 83.897 190.129 84.476C194.123 85.8349 207.951 85.458 215.405 83.7871ZM146.016 61.2092C148.29 59.7089 152.868 57.2214 156.188 55.6825C164.201 51.969 158.42 53.2641 147.686 57.5858C137.621 61.6395 126.047 68.5973 127.435 69.7604C130.39 72.2374 135.694 71.2272 138.771 67.6027C140.482 65.5874 143.742 62.7104 146.016 61.2092ZM129.353 59.3917C132.671 56.7105 139.77 49.0983 145.13 42.4765C163.555 19.7175 176.239 12.1461 205.697 6.32419L209.319 5.60915L206.305 4.61249C200.408 2.66417 182.13 3.38864 174.294 5.88136C158.272 10.9778 154.945 14.4295 133.899 47.7823C128.852 55.7798 120.644 64.3405 115.132 67.3525C113.804 68.078 115.103 67.6812 118.021 66.4699C120.938 65.2587 126.038 62.0739 129.353 59.3917ZM100.917 58.6693L101 49.7349L96.6162 47.1532C90.5967 43.6062 90.482 43.7067 92.117 51.1137C93.6325 57.9783 98.5748 67.6027 100.584 67.6027C100.722 67.6027 100.872 63.5825 100.917 58.6693ZM104.536 58.9845C104.267 57.1031 104.041 58.3898 104.035 61.8446C104.028 65.2995 104.248 66.8395 104.524 65.266C104.8 63.6924 104.804 60.8658 104.536 58.9845ZM112.629 50.3285C112.725 44.6301 109.959 34.8843 108.473 35.681C105.752 37.1393 103.452 50.6059 105.374 53.8283C106.424 55.5893 107.329 58.8201 107.385 61.0071L107.488 64.9854L110.014 60.2742C111.443 57.6088 112.579 53.2902 112.629 50.3285ZM105.983 35.8642C107.542 32.3319 103.77 27.2491 96.8276 23.5283C91.3708 20.6053 91.0459 21.067 90.6209 32.3549L90.2598 41.9531L96.0439 45.186L101.829 48.4199L103.255 43.6156C104.039 40.9742 105.267 37.4859 105.983 35.8642ZM432.821 190.428C432.821 190.428 420.329 190.031 412.46 191.053C409.821 191.396 407.83 191.861 405.814 192.331C403.961 192.764 402.086 193.201 399.667 193.554C393.765 194.414 384.508 194.896 384.034 194.92C384.106 194.92 384.363 194.938 384.768 194.967C387.256 195.142 395.345 195.713 400.804 194.921C403.828 194.482 405.926 194.048 408.228 193.571L408.228 193.571L408.229 193.571C409.669 193.273 411.19 192.959 413.068 192.616C420.653 191.231 432.821 190.428 432.821 190.428Z" fill="#3A7E7F"/>
</svg>