<svg xmlns="http://www.w3.org/2000/svg" width="799" height="412" viewBox="0 0 799 412" fill="none">
  <path opacity="0.1" fill-rule="evenodd" clip-rule="evenodd" d="M510.553 4.74546L502.625 3.97473C502.625 3.97473 455.737 3.32662 431.705 11.53C370.12 32.5518 341.543 70.0653 320.075 158.062C308.969 203.59 295.826 233.287 283.748 240.148C277.783 243.536 277.652 243.066 282.539 235.781C292.155 221.444 302.776 189.075 310.015 145.89C324.031 87.623 328.547 76.3711 350.312 49.1297C356.476 43.4481 369.001 32.4154 369.001 32.4154C369.001 32.4154 364.093 34.3115 363.813 34.4402C337.028 46.7309 317.576 80.3081 305.081 145.89C295.662 195.315 284.175 227.498 270.353 243.172C262.54 252.03 258.386 252.602 265.171 243.886C280.292 224.461 293.206 185.118 300.308 136.853C307.631 87.0744 314.953 71.6805 343.989 45.0427C353.488 36.3286 392.362 8.10386 392.362 8.10386C392.362 8.10386 354.401 21.7791 333.96 34.4402C308.561 54.992 292.822 91.686 282.64 151.092C272.531 210.07 259.769 241.489 239.335 257.712C234.632 261.447 189.869 275.259 183.317 274.998C181.049 274.908 180.797 274.57 182.54 273.966C187.961 272.088 208.075 247.788 217.534 231.689C232.417 206.357 237.026 193.361 247.552 147.033C258.822 97.4258 267.513 79.7431 289.452 61.7754C293.362 58.1937 299.67 51.1711 299.67 51.1711C299.67 51.1711 272.452 70.5653 257.223 86.1888C232.959 111.082 231.831 115.048 219.922 156.902C218.855 160.653 217.701 164.707 216.437 169.109C197.983 233.326 181.795 259.156 148.243 277.921C134.466 285.628 133.615 285.081 145.258 276.004C162.624 262.468 174.478 245.583 189.973 191.109L190.391 189.639L190.802 188.191L190.803 188.19C200.054 155.632 204.388 140.379 219.38 125.107C223.473 120.938 235.844 100.285 235.844 100.285C235.844 100.285 219.361 117.468 214.82 121.051C202.947 130.419 182.527 180.896 180.946 199.973C180.946 199.973 176.114 207.22 175.106 205.038C172.883 200.226 183.141 162.765 188.887 151.484C189.719 149.849 191.054 147.341 192.526 144.576C196.266 137.553 200.889 128.869 200.407 128.606C200.211 128.498 197.059 133.215 194.245 137.427L194.244 137.428C192.29 140.353 190.498 143.034 189.973 143.686C185.628 149.078 181.45 161.334 176.02 184.62C163.857 236.76 136.284 283.137 115.898 285.731L109.564 286.537L114.28 283.822C129.953 274.799 145.15 247.929 149.994 208.674C156.708 154.269 166.693 125.065 197.472 109.094L205.3 104.004C175.646 111.045 152.259 145.099 144.652 193.24C137.57 238.072 135.969 244.721 129.303 257.005C120.043 274.066 115.098 279.107 120.673 265.8C129.538 244.638 124.82 198.702 112.219 183.512C111.47 182.609 109.112 179.804 109.112 179.804C109.112 179.804 110.901 182.847 111.538 184.36C118.257 200.307 120.599 211.63 121.362 231.867C122.143 252.561 122.035 253.399 119.617 245.44C115.74 232.69 109.938 224.147 99.2741 215.501L89.6557 207.701C89.6557 207.701 92.2114 202.247 94.1489 198.875C98.4434 191.4 107.36 180.817 107.36 180.817C107.36 180.817 96.1195 190.665 92.5344 196.296L86.0158 206.536L79.8181 203.931L73.6185 201.327L77.3641 194.674C79.8763 190.211 83.4153 186.389 83.4153 186.389C83.4153 186.389 77.9667 189.08 75.411 193.424C71.5598 199.968 71.0549 200.227 64.0216 199.286C63.5335 199.22 63.0723 199.16 62.6368 199.102C58.5014 198.558 56.6945 198.32 56.2589 197.419C55.9209 196.719 56.4086 195.621 57.2747 193.67C57.3925 193.405 57.5172 193.124 57.6478 192.826C58.6227 190.602 60.6385 188.415 60.6385 188.415C60.6385 188.415 57.952 189.371 56.7241 190.254C55.0744 191.44 53.7261 194.94 53.7261 194.94C53.7261 194.94 52.0098 197.248 44.9061 196.323C37.9413 195.419 34.0666 196.473 32.1096 198.169C38.4345 195.321 50.0431 200.197 48.5323 205.205C47.5044 208.611 44.8166 208.392 39.1801 207.933H39.1799C38.0777 207.843 36.8629 207.745 35.5256 207.662C25.0132 207.662 23.2612 210.682 23.2612 210.682C23.2612 210.682 32.6055 209.688 34.3576 210.194C34.8459 210.274 35.3121 210.347 35.7571 210.416C43.8259 211.681 44.9198 211.852 44.9198 228.982C44.9198 238.034 45.6419 248.399 46.5226 252.016C48.0862 258.432 48.0059 258.566 43.2231 257.526C37.364 256.25 19.4853 259.285 12.6301 262.717C9.40312 264.334 9.06848 264.799 11.6517 264.085C36.3151 257.261 48.1684 258.861 54.6087 269.879C57.233 274.368 61.8102 280.546 64.7828 283.607L70.184 289.174L34.0685 288.274C-22.1703 286.875 -59.4287 279.211 -103.691 259.937C-118.729 253.389 -128 250.622 -128 250.622C-128 250.622 -124.553 255.15 -117.597 260.853C-86.0882 286.685 12.9687 309.22 66.8631 302.815C71.9551 302.209 75.415 302.413 74.9277 303.29C67.2232 317.148 65.2525 322.228 64.2036 330.925C62.7437 343.048 54.2142 345.427 46.622 345.861C39.4036 345.849 28.5174 342.895 28.5174 342.895C28.5174 342.895 33.884 345.615 34.9416 345.861C35.5581 346.005 36.2155 346.171 36.9082 346.346C40.4479 347.24 44.9086 348.366 49.5421 347.96C49.5421 347.96 53.5337 347.61 55.9663 346.947C58.0763 346.372 61.1547 344.977 61.1547 344.977L62.5598 362.005C63.6792 375.563 63.4208 379.333 61.2917 380.502C60.3072 381.043 52.3188 380.502 52.3188 380.502C52.3188 380.502 53.0462 382.401 62.0431 381.997C64.2369 382.012 65.5206 383.395 65.6165 385.84C65.6987 387.94 67.0275 392.33 68.5696 395.596C69.721 398.035 74.0709 401.141 74.0709 401.141C74.0709 401.141 70.1786 395.589 68.3973 387.051C67.1997 381.305 67.5598 380.821 77.006 375.516C82.4267 372.468 88.5657 368.099 90.6479 365.806L94.4307 361.635L100.734 371.405C109.693 385.29 124.511 400.632 135.241 407.128C140.071 410.053 147.657 411.271 147.657 411.271C147.657 411.271 140.664 408.057 136.014 404.605L127.579 398.344L128.791 385.921C130.896 364.321 123.409 333.793 112.125 317.963C111.898 317.644 111.679 317.343 111.468 317.058L113.201 316.557C113.201 316.557 110.528 311.872 108.367 308.581C119.631 319.616 135.353 338.64 145.143 354.582C174.965 403.146 204.28 420.128 257.453 408.141C269.206 405.491 277.785 402.848 281.873 400.128C285.961 397.409 289.465 393.95 289.465 393.95C289.465 393.95 284.419 396.473 276.617 397.495C268.814 398.518 224.558 395.601 196.122 379.211C182.523 371.372 175.096 363.946 149.617 332.704C142.621 324.125 132.934 314.038 128.09 310.287C123.247 306.537 121.485 304.734 124.176 306.281C126.867 307.827 133.472 311.361 138.853 314.133C144.235 316.906 155.243 324.201 163.315 330.349C206.955 363.571 228.869 372.136 268.814 371.581L287.582 371.321L266.055 370.034C227.895 367.752 206.503 359.881 176.497 337.074C167.094 329.928 159.401 323.85 159.401 323.57C159.401 323.29 165.178 324.878 172.239 327.101C189.979 332.683 215.435 336.256 235.49 335.978L252.357 335.746L234.286 334.349C201.589 331.825 171.644 321.141 151.832 304.934L141.327 296.34L154.74 293.661L168.155 290.981L171.362 297.19C176.916 307.944 202.161 322.6 224.03 327.764C225.137 328.026 226.325 328.32 227.595 328.634C242.105 332.225 267.339 338.47 306.51 329.465C306.51 329.465 296.207 328.959 293.662 329.128L275.84 329.465L285.343 326.796C291.046 325.194 296.582 322.038 296.582 322.038L283.734 325.583C257.082 332.536 212.041 315.228 193.065 291.087C190.603 287.957 190.562 287.962 191.705 291.25C195.679 302.684 211.562 313.589 237.775 322.881C256.691 329.587 256.456 330.118 235.949 327.015C199.615 321.516 158.583 294.259 178.192 288.648C187.495 285.987 192.176 286.983 221.54 297.878C257.261 311.13 289.401 320.443 308.262 317.479C310.387 317.146 319.359 314.921 319.359 314.921C319.359 314.921 316.04 315.059 310.014 314.947C281.494 314.414 251.719 306.861 215.317 292.57C195.049 284.613 194.787 284.437 201.008 283.005C218.353 279.012 240.64 283.13 297.366 300.804C328.435 310.484 356.658 311.402 379.558 303.477C403.952 295.034 412.863 292.124 412.863 292.124C404.031 292.261 396.478 292.871 389.624 293.425C372.51 294.809 359.754 295.84 342.323 288.264C319.302 278.259 297.255 271.572 276.818 268.394C275.035 268.117 273.387 267.865 271.868 267.632C261.814 266.091 257.436 265.42 257.311 264.283C257.216 263.407 259.651 262.254 263.966 260.211C264.811 259.811 265.728 259.376 266.713 258.903C285.024 250.104 299.188 250.953 349.271 263.847C407.173 278.756 455.789 279.61 484.165 238.041C484.165 237.622 481.835 239.678 478.646 242.492C473.664 246.887 466.588 253.13 463.028 254.674C438.566 266.551 408.922 275.882 341.042 259.141C324.163 254.979 304.881 251.036 298.194 250.381C286.169 249.202 286.092 249.159 291.4 246.75C303 241.48 335.589 245.342 380.681 254.674C390.688 256.745 410.184 257.388 426.126 255.272C447.952 252.374 465.574 245.944 465.574 245.944C465.574 245.944 445.547 247.957 432.659 248.596C425.284 248.962 419.863 249.732 414.935 250.431C403.305 252.083 394.425 253.343 369.104 247.982C343.82 242.629 312.366 238.828 305.421 240.287C303.143 240.766 305.243 239.498 310.087 237.474C325.787 230.908 367.625 231.108 404.02 237.924C442.817 245.187 493.95 237.812 493.95 226.164C493.95 226.164 491.368 229.091 489.2 230.454C486.217 232.329 480.44 233.493 480.44 233.493C480.44 233.493 442.324 241.668 399.128 234.055C382.562 231.135 370.76 230.251 347.916 230.216L318.231 230.17L324.406 226.777C329.153 224.167 334.773 223.248 348.727 222.795C365.684 222.245 376.656 223.122 410.87 227.759C460.401 232.46 469.133 230.857 475.11 229.76C475.734 229.646 476.328 229.537 476.936 229.441C483.36 228.428 500.17 222.267 504.969 218.298C526.942 204.197 556.614 176.495 557.615 175.558L557.622 175.554L557.629 175.549L557.633 175.546L557.636 175.543C557.641 175.539 557.642 175.536 557.641 175.534L557.615 175.558C556.95 175.983 543.842 181.431 528.881 187.649L528.856 187.659L528.85 187.662C511.488 194.878 491.642 203.126 485.852 205.764C480.811 208.059 449.928 207.547 432.396 204.875C423.785 203.563 408.374 201.871 398.149 201.116L379.558 199.744L393.257 198.541C400.791 197.879 423.744 197.318 444.263 197.292C447.402 197.288 450.779 197.364 454.282 197.442C465.916 197.702 478.936 197.993 489.2 195.506C523.527 187.188 531.132 176.689 531.132 175.264C531.132 175.264 511.014 183.403 497.377 186.664C477.028 191.53 468.094 191.552 446.334 191.606H446.333H446.332H446.331H446.331C442.97 191.614 439.303 191.623 435.241 191.65C401.725 191.88 384.087 195.739 375.155 197.694C374.56 197.824 374.005 197.946 373.486 198.057C368.181 199.196 361.496 200.633 359.445 201.073C364.001 198.289 376.048 190.524 385.245 183.512C385.245 183.512 424.755 169.394 448.431 170.688C457.448 171.181 466.069 172.933 473.255 174.393C477.134 175.182 480.594 175.885 483.472 176.259C496.224 177.917 514.425 165.623 514.425 165.623C514.425 165.623 495.766 173.945 483.472 171.701C479.768 171.025 476.232 169.902 472.7 168.78C468.694 167.508 464.693 166.238 460.459 165.623C454.493 164.757 423.765 167.121 404.606 170.105C429.284 155.358 452.982 152.271 509.944 157.174C550.322 160.649 560.805 159.572 575.723 150.411C577.725 149.182 579.826 148.183 581.986 147.155C585.355 145.552 588.868 143.881 592.377 141.163C594.005 139.901 595.101 138.79 596.212 137.663C597.228 136.633 598.256 135.59 599.715 134.408C601.922 132.621 603.231 131.683 605.604 130.063C622.805 118.32 641.738 112.937 641.738 112.937C641.738 112.937 622.281 116.561 616.57 116.972C610.86 117.382 592.183 116.02 575.065 113.943C545.197 110.319 528.022 110.114 491.105 112.937C482.435 113.6 441.895 137.145 415.255 156.989C409.057 161.606 403.531 164.991 402.977 164.509C401.997 163.659 414.564 153.981 430.439 143.363C434.744 140.484 448.331 132.306 460.631 125.189C472.932 118.073 482.367 112.251 481.596 112.251C480.825 112.251 483.596 107.86 487.752 102.496C491.907 97.1307 499.645 86.2499 504.948 78.3179C530.584 39.9663 556.367 25.7651 602.025 19.7532C613.534 18.2378 631.81 18.7402 631.81 18.7402C631.81 18.7402 615.008 19.5513 604.945 22.5194C581.404 29.4631 572.392 39.9137 557.386 59.2337C537.134 85.3116 536.265 86.031 511.95 96.8151C489.995 106.554 479.557 112.083 482.917 112.197C483.793 112.228 486.322 111.411 488.533 110.385C491.459 109.029 492.193 109.029 491.226 110.385C489.105 113.359 491.044 112.735 511.379 103.887C531.15 95.2847 559.762 85.108 572.915 81.998C581.33 80.0078 585.408 81.1141 630.989 97.7516C667.788 111.186 693.522 115.434 708.387 110.534C719.381 106.91 770.661 118.049 776.935 125.423C779.633 128.594 791.496 139.634 791.496 139.634L782.876 126.088C782.876 126.088 780.969 123.774 779.504 122.48C776.978 120.248 774.837 119.254 772.102 117.985C771.343 117.633 770.538 117.259 769.667 116.832C761.022 112.597 753.839 111.515 745.925 110.323C741.291 109.625 736.406 108.889 730.831 107.46C722.354 105.287 714.924 103.845 707.942 102.489C692.559 99.5012 679.352 96.9363 661.911 87.9211C650.375 81.9573 638.206 76.097 634.87 74.8991C627.015 72.0793 669.097 69.8193 690.623 73.7624C698.648 75.2323 725.703 84.5853 743.358 92.9687C773.064 107.074 794.168 125.423 794.168 125.423C794.168 125.423 795.32 115.623 748.614 90.7596C726.829 79.1627 698.305 70.5559 692.58 69.5648C679.86 67.3625 659.385 65.7079 638.04 66.2105C635.266 66.2758 633.372 66.2063 631.678 66.1442C628.077 66.0121 625.377 65.9131 617.032 67.2126C616.619 67.2381 616.214 67.2651 615.818 67.2937C614.181 67.412 612.78 67.5011 611.516 67.5814L611.516 67.5814C607.371 67.8449 604.708 68.0142 600.05 68.8132C596.424 69.435 593.988 70.0796 591.088 70.8468L591.086 70.8473L591.08 70.8488C589.901 71.1607 588.645 71.4929 587.201 71.8521C584.162 72.6083 576.506 74.3999 571.702 75.5191C571.7 74.5478 576.08 71.5371 585.071 65.844C642.285 29.6183 729.193 45.6355 778.399 96.7401C786.438 105.089 796.299 119.864 796.299 119.864C796.299 119.864 794.405 109.428 781.319 92.9687C781.319 92.9687 760.054 73.5396 750.95 68.3763C708.387 44.2373 682.886 43.5582 682.886 43.5582C639.986 40.0128 615.977 42.7777 584.06 62.1266C569.476 70.9679 568.899 70.7474 580.146 60.6284C601.68 41.2541 627.662 29.8728 654.878 27.8944C662.21 27.3617 675.028 26.3375 675.028 26.3375C675.028 26.3375 650.019 25.4867 634.73 28.87C607.693 34.8532 598.58 41.9497 574.474 62.1741C554.201 79.1849 545.821 85.1046 542.015 85.1046C541.353 85.1046 547.085 77.1116 554.756 67.3422C574.745 41.8819 592.081 29.0991 615.541 22.5194C619.402 21.4369 638.234 20.7661 638.234 20.7661L666.851 19.9625C666.851 19.9625 622.428 15.1083 613.77 14.7232C575.86 13.0401 532.639 35.5465 507.647 69.9856C476.717 112.603 475.308 114.05 452.641 126.495L446.783 129.71L450.014 123.102C451.793 119.467 457.938 106.106 463.672 93.4115C489.537 36.1454 509.253 17.6771 553.985 8.80686C570.398 5.55264 583.97 6.29579 583.97 6.29579L617.238 7.29344C617.238 7.29344 573.404 2.09757 546.543 7.09088C545.762 7.23625 533.111 9.62333 533.111 9.62333C533.111 9.62333 545.799 5.43111 547.856 4.57197C551.085 3.22311 565.816 0 565.816 0C565.816 0 549.561 2.3201 539.535 5.06491C528.426 8.10629 522.275 10.2971 512.086 15.1947C508.485 16.9258 505.364 18.3368 502.536 19.6152C492.546 24.1317 486.217 26.9932 475.293 36.4674C454.981 54.0831 450.456 62.0097 431.677 94.9058L431.676 94.9083C427.916 101.494 423.586 109.08 418.443 117.945C389.496 167.846 386.519 171.718 365.638 186.664C355.385 194.003 345.531 202.521 345.531 202.521C344.096 202.107 344.613 200.305 347.006 197.363C355.014 187.528 363.365 170.483 376.76 136.624C396.697 86.2312 406.392 70.6337 433.298 45.6552C452.646 27.6926 470.458 12.1281 501.858 6.20417C509.223 4.81461 510.378 4.74123 510.553 4.74546ZM345.531 202.521L346.224 203.069C346.171 202.799 345.945 202.613 345.531 202.521ZM346.224 203.069C346.224 203.069 361.212 193.741 374.666 183.512C388.12 173.282 400.008 164.935 401.085 164.962C402.161 164.989 396.905 169.747 389.402 175.534C368.267 191.839 358.819 201.208 358.819 201.208C358.819 201.208 346.533 208.08 335.335 215.657C263.861 264.029 210.46 282.949 112.435 294.63C107.899 295.171 103.299 295.636 98.6481 296.028C98.2485 295.555 98.0165 295.285 98.0165 295.285H93.3443C93.3443 295.285 93.717 295.687 94.3355 296.369C14.5316 302.288 -78.6382 287.142 -112.615 261.586C-115.061 259.746 -117.488 257.298 -117.488 257.298C-117.488 257.298 -112.182 259.727 -102.83 263.954C-7.95504 306.843 148.489 302.932 258.859 254.911C290.667 241.072 347.183 207.987 346.224 203.069ZM180.946 199.973C180.946 199.973 172.431 228.397 166.985 241.198C159.9 257.853 145.863 274.915 135.376 279.616C129.313 282.334 129.325 282.302 137.305 274.441C150.329 261.615 171.172 220.998 172.032 218.529C172.891 216.061 180.946 199.973 180.946 199.973ZM105.609 310.479C106.26 311.679 106.809 312.682 107.272 313.52C106.768 314.817 108.802 320.572 113.202 329.022C122.073 346.053 126.076 360.955 126.075 376.932C126.073 397.052 123.497 397.308 109.09 378.629C96.4874 362.29 96.0784 360.938 100.591 350.483C106.415 336.986 106.067 320.618 99.7223 309.776C97.0354 305.187 94.8338 301.225 94.8299 300.974C94.8016 299.385 95.7131 299.056 97.3292 299.737C100.319 303.168 104.138 307.769 105.609 310.479ZM600.716 75.4975L598.737 75.812C589.543 77.2728 582.985 79.8789 588.289 79.9637C590.077 79.9909 601.966 83.9153 614.708 88.6812C662.072 106.398 697.22 112.441 707.526 108.59C708.377 108.081 712.405 107.376 712.405 107.376C712.405 107.376 700.14 105.35 697.804 105.35C697.804 105.35 694.884 104.844 689.628 103.324C689.628 103.324 689.344 103.519 682.886 100.98C676.428 98.4405 666.422 93.7509 660.649 90.5594C651.694 85.6068 642.903 81.4854 635.262 78.5523C635.142 78.794 634.38 78.6889 632.394 77.9997C626.553 75.9737 615.124 75.3976 604.138 75.3976C602.966 75.3976 601.823 75.4332 600.716 75.4975ZM491.993 5.59676C491.993 5.59676 485.028 8.32841 479.993 10.8887C474.958 13.4473 470.267 15.541 469.57 15.541C466.465 15.541 444.791 31.5559 431.232 43.872C403.357 69.1864 393.048 85.5661 372.846 136.624C353.244 186.166 342.788 203.086 321.013 218.05C328.906 208.402 343.062 189.9 350.836 172.521C356.547 159.751 359.377 145.323 362.216 130.844C365.571 113.73 368.941 96.5439 377.102 81.9414C392.166 54.9845 413.97 35.4545 413.97 35.4545C394.698 48.1168 384.114 56.8128 373.028 74.7768C363.32 90.5078 360.09 107.724 356.837 125.061C354.57 137.144 352.292 149.285 347.802 161.024C338.947 184.173 324.481 209.453 318.281 219.879C317.708 220.254 317.126 220.628 316.537 221.003C299.826 231.617 298.65 231.945 302.861 224.814C309.701 213.234 318.312 186.953 325.844 154.668C348.601 57.1298 392.883 13.2776 473.402 6.4451C479.441 5.9322 485.493 5.78405 489.033 5.69739C490.54 5.6605 491.591 5.63475 491.993 5.59676ZM496.643 32.9319C482.044 46.3288 475.531 57.1655 452.034 107.161C440.762 131.14 437.488 135.457 423.153 145.221C416.398 149.824 407.895 155.932 404.259 158.795C400.623 161.659 397.981 163.236 398.388 162.303C401.269 155.692 404.681 150.711 407.69 146.32L407.69 146.32C409.132 144.215 410.481 142.246 411.635 140.298C415.498 133.772 418.963 128.553 422.643 123.01C429.608 112.518 437.345 100.864 450.014 76.9867C470.541 38.3027 509.166 21.2726 509.166 21.2726C509.166 21.2726 500.039 29.8153 496.643 32.9319ZM344.288 40.365C313.683 68.0802 303.726 87.2865 297.349 130.915C291.548 170.592 269.288 240.326 263.91 235.664C263.45 235.263 264.94 231.278 267.221 226.806C274.587 212.365 280.443 190.173 285.562 157.274C296.828 84.8755 314.19 49.7867 347.179 32.7334C351.38 30.5615 362.577 25.8311 362.577 25.8311C362.577 25.8311 351.382 33.9419 344.288 40.365ZM261.548 92.3155C260.75 93.9462 260.021 95.4066 259.325 96.8001L259.325 96.8009L259.324 96.8022L259.324 96.8025C257.532 100.392 255.961 103.538 254.002 108.01C245.957 126.378 242.685 144.542 239.826 160.418L239.826 160.418C238.253 169.148 236.806 177.185 234.758 184.184C225.392 216.198 207.202 247.208 187.861 264.138C181.356 269.832 178.394 272.153 181.278 269.295C202.049 248.72 216.311 220.241 227.055 177.877C235.879 143.083 240.603 129.147 247.717 116.917C251.589 110.261 255.701 97.2463 255.701 97.2463C255.701 97.2463 249.816 110.042 246.91 114.372C239.122 125.977 232.793 143.243 224.155 176.459C208.885 235.174 182.969 275.436 157.444 280.098L148.638 281.707L154.509 278.14C184.975 259.631 201.82 231.592 219.826 169.421C232.769 124.734 242.276 104.487 257.223 89.7705C262.435 84.6401 269.718 79.0126 269.718 79.0126C269.718 79.0126 264.661 85.9574 261.548 92.3155ZM569.885 116.337C580.371 117.652 594.066 119.238 600.316 119.864C607.23 120.557 614.289 121.467 614.289 121.467C614.289 121.467 606.105 126.709 600.856 130.063C597.684 132.091 595.012 134.343 592.485 136.473L592.485 136.474C587.802 140.421 583.616 143.951 577.656 144.856C568.481 146.251 551.88 146.662 510.572 140.253C495.56 137.925 477.553 135.967 470.557 135.905C459.962 135.81 458.654 135.501 462.729 134.065C473.433 130.295 495.551 130.375 526.833 134.301C558.519 138.277 582.643 136.246 589.068 133.207C595.492 130.169 594.931 127.372 594.931 127.372C594.931 127.372 593.702 128.521 582.946 128.366C575.481 128.259 570.855 126.817 565.484 125.144C563.117 124.406 560.605 123.623 557.641 122.89C547.954 120.494 532.103 117.593 522.416 116.444L504.803 114.355L527.811 114.152C540.465 114.04 559.398 115.024 569.885 116.337ZM556.662 125.674C567.964 128.545 578.972 130.91 581.124 130.93C582.984 130.948 585.564 131.181 585.564 131.181C585.564 131.181 584.504 132.103 582.059 132.701C579.832 133.623 550.86 134.522 522.12 130.759C496.273 127.374 473.87 127.116 463.707 130.087C460.49 131.027 460.664 130.598 464.686 127.676C479.042 117.246 519.977 116.356 556.662 125.674ZM509.696 143.799C518.844 145.282 536.897 147.04 549.813 147.705L573.296 148.913L565.469 152.021C553.592 156.736 544.019 157.054 510.615 153.842C490.813 151.937 470.447 151.126 452.928 151.543C423.568 152.242 421.631 150.306 445.116 143.742C462.586 138.859 479.302 138.874 509.696 143.799ZM796.299 143.027C796.103 145.36 795.32 153.207 795.32 153.207C796.682 152.111 800.631 146.224 798.256 139.634C796.574 134.968 795.817 133.21 795.548 133.152C795.548 133.152 796.299 139.13 796.299 143.027ZM68.3132 203.259C68.3132 203.259 70.096 203.719 67.4736 209.7C66.4228 212.094 64.6106 214.052 63.4443 214.052L57.1343 212.22C57.1343 212.22 49.3034 210.341 51.6654 204.956C53.8572 199.961 68.3132 203.259 68.3132 203.259ZM427.19 207.277C441.549 209.137 456.519 210.728 460.459 210.811L467.621 210.964L460.772 212.711C456.292 213.855 443.429 213.975 423.59 213.061C406.907 212.291 382.529 211.627 369.417 211.585C344.783 211.503 343.075 210.412 360.967 206.183C374.069 203.085 397.875 203.478 427.19 207.277ZM79.8357 207.452C84.1743 209.165 83.4153 216.778 80.1097 222.247C78.5245 223.716 69.3817 216.683 69.3817 213.996C69.3817 206.037 72.0412 204.372 79.8357 207.452ZM514.498 198.768C514.498 198.768 514.897 202.09 502.049 212.711C488.032 220.83 451.348 229.947 395.214 222.51C382.298 220.658 363.365 219.067 353.139 218.974L334.548 218.806L343.355 216.293C350.535 214.245 357.942 214.03 383.472 215.129C438.748 217.51 460.067 216.953 474.47 212.75C500.238 205.234 514.498 198.768 514.498 198.768ZM96.9258 216.914C117.002 232.639 122.654 260.203 109.184 276.701C101.552 286.052 94.6694 290.582 97.6851 284.27C104.763 269.457 101.736 249.449 90.0119 233.56C82.7196 217.711 83.3837 206.307 96.9258 216.914ZM63.7379 216.717C64.4169 217.082 63.777 221.785 62.3152 227.169C60.8533 232.552 59.6439 242.166 59.6283 248.533C59.6009 258.639 59.1605 260.038 56.1723 259.539C50.0157 258.511 47.1762 245.927 47.6811 221.923L47.8552 213.673L55.1782 214.865C59.2075 215.521 63.0588 216.354 63.7379 216.717ZM73.3484 221.972C76.0099 223.529 78.4267 224.946 78.7203 225.121C79.0138 225.295 77.9257 230.319 76.3034 236.287C74.6811 242.254 73.3406 251.146 73.325 256.044C73.2936 265.598 73.0627 265.871 67.2956 263.196C63.2114 261.301 62.0196 244.322 64.7555 227.014C66.1469 218.21 66.5324 217.985 73.3484 221.972ZM94.0217 247.137C98.8808 258.174 98.822 275.451 93.8964 283.605L90.3152 289.532L87.6283 282.806C86.1528 279.107 82.8475 274.15 80.2839 271.789C75.5089 267.39 75.503 252.502 80.2721 233.076L81.642 227.499L85.9649 233.076C88.3426 236.144 91.9688 242.471 94.0217 247.137ZM258.946 244.632C256.511 248.387 252.908 252.722 250.942 254.266C248.975 255.81 250.658 252.737 254.681 247.439C263.206 236.217 265.288 234.846 258.946 244.632ZM63.2193 271.562C64.5128 275.308 67.961 280.889 70.8807 283.963C73.8005 287.038 74.5833 288.453 72.6205 287.107C63.8318 281.079 50.2975 259.848 57.323 263.108C59.2721 264.012 61.9238 267.816 63.2193 271.562ZM70.4541 267.947C71.5813 268.632 72.7085 271.866 72.957 275.132C73.3758 280.663 73.2212 280.838 70.6791 277.677C64.7926 270.352 64.6537 264.423 70.4541 267.947ZM81.1449 277.253C85.7574 283.814 86.1664 288.705 82.1019 288.705C80.4874 288.705 79.1273 288.132 79.0803 287.433C79.0334 286.734 78.2721 282.916 77.3876 278.949C75.4541 270.291 76.0568 270.018 81.1449 277.253ZM303.353 277.775C312.026 279.942 327.437 285.27 337.599 289.615L356.075 297.513L345.312 296.805C338.089 296.328 328.433 293.677 315.957 288.739C305.732 284.693 291.202 279.187 283.668 276.503C266.738 270.473 276.705 271.118 303.353 277.775ZM268.09 276.05C274.505 277.489 292.083 283.305 307.151 288.977C332.617 298.561 335.768 299.333 351.852 299.937C375.276 300.818 378.586 302.825 361.081 305.536C338.885 308.975 324.548 306.529 277.906 291.337C262.777 286.41 244.329 280.985 236.912 279.285C226.867 276.983 224.368 275.872 227.127 274.933C233.599 272.731 256.01 273.342 268.09 276.05ZM155.636 312.64C159.321 315.072 166.74 319.103 172.122 321.597C185.108 327.615 175.738 325.516 158.343 318.512C142.031 311.943 123.274 300.667 125.523 298.782C130.311 294.768 138.908 296.405 143.895 302.279C146.668 305.545 151.951 310.207 155.636 312.64ZM128.632 315.586C134.008 319.931 145.513 332.267 154.2 342.999C184.061 379.883 204.617 392.153 252.357 401.589L258.227 402.747L253.343 404.363C243.785 407.52 214.163 406.346 201.464 402.306C175.499 394.047 170.106 388.453 135.998 334.4C127.82 321.439 114.517 307.566 105.585 302.684C103.433 301.508 105.538 302.151 110.266 304.115C114.994 306.078 123.258 311.239 128.632 315.586ZM82.548 316.756L82.6811 331.236L75.5774 335.42C65.822 341.168 65.6361 341.005 68.2858 329.001C70.7418 317.876 78.7516 302.279 82.0079 302.279C82.231 302.279 82.4737 308.794 82.548 316.756ZM88.4131 316.246C87.9767 319.295 87.6107 317.209 87.6009 311.61C87.5892 306.011 87.9453 303.516 88.3935 306.066C88.8396 308.616 88.8475 313.197 88.4131 316.246ZM101.529 330.274C101.683 339.509 97.2017 355.303 94.7927 354.012C90.3837 351.649 86.6557 329.824 89.7712 324.602C91.4718 321.748 92.9395 316.512 93.0295 312.968L93.1958 306.52L97.2898 314.155C99.6068 318.475 101.446 325.474 101.529 330.274ZM90.7575 353.715C93.2839 359.44 87.1704 367.677 75.9199 373.707C67.0764 378.444 66.55 377.696 65.8611 359.402L65.276 343.847L74.6498 338.608L84.0256 333.367L86.3367 341.153C87.6068 345.434 89.597 351.087 90.7575 353.715ZM620.441 103.224C620.441 103.224 600.195 103.868 587.444 102.211C583.167 101.655 579.94 100.902 576.672 100.14C573.669 99.4393 570.631 98.7305 566.711 98.1591C557.145 96.7648 542.142 95.9843 541.375 95.945C541.492 95.9449 541.908 95.9156 542.565 95.8692C546.597 95.5845 559.706 94.6588 568.553 95.9434C573.454 96.6549 576.854 97.3583 580.585 98.1301C582.92 98.6133 585.385 99.1232 588.428 99.6786C600.721 101.922 620.441 103.224 620.441 103.224Z" fill="#3A7E7F"/>
</svg>